<svg version="1.1" xmlns="http://www.w3.org/2000/svg" style="display: block;" viewBox="0 0 2048 1638" width="1920" height="1536" preserveAspectRatio="none">
<path transform="translate(0,0)" fill="rgb(0,0,0)" d="M 857.126 108.812 C 862.225 106.239 874.729 100.147 879.941 98.8728 C 928.443 87.0207 981.912 96.4055 1027.91 111.54 C 1031.59 112.753 1035.26 113.985 1038.92 115.235 C 1094.74 86.4695 1157.19 89.2492 1216.13 107.292 C 1219.94 108.458 1235.22 113.493 1237.32 115.873 L 1237.06 116.472 C 1243.37 133.612 1266.48 129.95 1277.33 138.162 C 1290.18 135.679 1301.36 132.076 1314.52 131.188 C 1354.91 128.463 1411.66 152.781 1446.02 173.521 C 1452.64 176.712 1485.35 196.48 1486.16 202.112 L 1486.87 202.299 C 1493.61 204.029 1500.9 204.686 1507.58 206.479 C 1535.47 213.959 1549.63 225.172 1564.34 249.278 C 1565.76 249.08 1569.5 248.63 1570.58 249.178 C 1576.06 251.977 1592.89 256.247 1596.89 258.339 C 1664.49 285.41 1741.56 341.669 1770.76 410.749 L 1771.26 411.943 C 1774.32 416.795 1776.28 420.303 1779.62 425.004 C 1783.98 431.121 1794.05 437.377 1794 444.444 C 1828.08 456.007 1847.98 471.473 1864.44 504.49 C 1869.33 514.517 1873.51 524.872 1876.95 535.48 C 1880.14 545.26 1883.81 560.595 1889.4 568.73 C 1897.45 580.44 1912.34 593.864 1923.27 603.717 C 1957.4 634.466 1962.25 673.954 1953.01 717.474 C 1961.55 714.128 1968.34 718.766 1975.21 724.399 C 2011.26 773.755 2029.39 852.589 2034.38 911.926 C 2035.26 922.444 2038.79 944.094 2037.51 953.581 C 2042.88 955.499 2042.92 959.25 2048 962.352 L 2048 1019.45 C 2047.06 1018.12 2045.43 1015.13 2044.53 1013.6 L 2042.68 1017.76 L 2041.76 1017.15 C 2039.52 1011.78 2040.01 1011.86 2034.66 1010.92 C 2045.38 1055.28 2042.97 1095.17 2023.46 1136.7 C 2013.3 1144.56 2010.02 1154.06 2004.16 1156.54 C 2007.2 1182.51 2005.77 1203.95 1982.85 1220.39 C 1985.26 1220.91 1987.86 1220.87 1988.8 1222.79 C 1991.26 1227.78 1989.85 1240.42 1989.64 1246.26 C 1982.62 1282.99 1957.5 1317.58 1927.19 1338.95 C 1905.86 1353.99 1846.99 1376.67 1822.09 1372.4 C 1814.38 1371.57 1804.65 1371.45 1797.46 1368.87 C 1794.14 1367.68 1794.32 1366.54 1793.08 1363.56 C 1752.1 1377.81 1735.4 1366.18 1695.33 1358.94 C 1659.44 1352.45 1619.97 1345.57 1583.66 1343.4 C 1579.15 1344.95 1524.15 1343.77 1516.98 1342.34 C 1515.37 1339.7 1515.84 1340.65 1516.47 1336.76 C 1478.81 1345.43 1439.47 1356.38 1402.23 1340.03 C 1400.76 1357.57 1393.95 1362.34 1389.52 1374.77 C 1387.89 1378.52 1338.14 1401.12 1330.64 1404.08 C 1304.99 1414.37 1277.65 1419.81 1250.01 1420.14 C 1203.01 1420.38 1182.86 1419.13 1137.76 1436.31 C 1121.08 1428.6 1098.86 1402.98 1077.81 1390.71 C 1083.82 1419.65 1090.02 1426.64 1108.98 1449.01 C 1086.05 1465.63 1036.55 1495.44 1009.18 1506.15 C 944.416 1531.5 852.593 1552.6 783.092 1541.91 C 753.147 1537.31 702.178 1518.59 678.857 1500.69 C 677.002 1499.27 667.816 1486.13 664.517 1482.17 C 664.463 1479.83 667.059 1477.91 669.073 1475.7 C 662.973 1477.64 653.147 1482.96 647.61 1483.93 C 597.791 1492.73 553.367 1451.72 543.931 1404.67 C 543.054 1400.3 540.837 1391.96 543.122 1388.39 C 546.9 1385.44 551.704 1380.63 555.308 1377.22 C 561.497 1376.17 570.697 1376.59 577.399 1376.45 C 556.743 1360.3 530.868 1351.74 514.233 1328.4 C 494.204 1300.29 492.309 1269.17 497.311 1236.4 C 493.834 1236.55 492.457 1236.71 489.486 1234.64 C 480.99 1228.74 469.598 1231.59 459.496 1229.94 L 457.929 1232.28 C 450.14 1235.94 427.318 1236.79 418.256 1237.46 C 371.208 1240.98 321.696 1240.04 277.173 1222.72 C 255.783 1214.41 235.833 1202.71 215.35 1192.46 C 192 1180.99 169.818 1174.52 148.318 1158.58 C 96.8295 1120.41 61.5414 1075.88 50.5993 1011.66 C 40.8614 954.498 70.0221 933.894 76.9123 882.369 C 80.9038 852.52 71.0785 821.439 79.244 789.819 C 84.8515 768.105 89.5881 760.034 102.417 742.075 C 105.531 738.313 109.283 734.855 109.181 730.191 L 107.492 728.592 C 101.312 727.595 93.3804 732.124 88.4366 735.627 C 82.0718 738.841 74.6814 746.026 70.5016 751.581 C 43.954 786.868 51.6756 833.379 46.6589 874.038 C 44.5758 890.921 34.7607 915.537 27.4216 931.022 L 26.7318 929.596 C -12.8496 846.224 15.8956 742.783 45.1926 661.379 C 50.8846 650.308 63.7481 643.585 76.0829 645.179 C 63.2596 616.211 78.4725 571.866 91.8894 544.375 C 94.0984 539.848 95.6147 538.581 100.212 536.627 L 97.5215 535.769 L 97.494 533.859 C 99.4172 528.24 108.949 510.63 112.184 504.84 C 134.276 465.294 161.7 429.861 197.198 401.463 C 210.162 391.091 228.403 380.367 239.663 369.606 C 248.961 360.721 260.247 341.588 269.101 330.619 C 304.824 286.361 345.283 264.486 398.779 248.856 C 412.758 245.635 434.91 231.636 442.993 234.357 C 447.534 230.418 460.163 217.602 463.663 215.34 C 511.214 184.605 585.751 152.372 641.305 145.497 C 659.316 140.531 677.088 135.013 695.06 129.949 C 699.723 128.636 700.832 129.062 704.702 131.173 C 751.481 113.467 759.224 113.719 807.722 117.11 C 814.096 113.981 841.018 110.882 849.369 107.874 C 851.239 107.201 855.141 108.027 857.126 108.812 z M 1633.4 993.851 C 1643.11 988.229 1647.26 984.669 1655.12 976.604 C 1643.44 976.138 1641.24 975.263 1640.52 963.91 C 1635.32 973.925 1633.77 982.584 1633.4 993.851 z M 942.279 852.296 C 942.154 847.686 942.386 842.156 940.937 837.925 C 939.272 842.38 939.696 854.183 940.472 858.941 C 937.199 863.649 937.376 866.969 938.393 872.476 L 939.237 871.973 L 940.194 866.888 C 940.654 867.454 941.258 868.09 941.553 868.706 C 943.779 860.565 944.232 843.152 943.141 834.652 C 942.93 840.537 942.643 846.419 942.279 852.296 z M 372.916 698.053 C 365.038 702.459 364.422 703.743 355.764 702.269 C 354.778 708.775 350.831 729.444 352.578 734.598 L 353.844 734.817 C 360.834 728.664 369.314 707.23 372.916 698.053 z M 1871.78 981.05 C 1868.09 979.789 1867.75 979.782 1864.82 977.354 C 1863.17 973.722 1864.41 969.519 1864.84 965.067 C 1856.81 974.769 1850.46 985.744 1846.06 997.54 C 1856.68 992.344 1862.6 988.544 1871.78 981.05 z"/>
<path transform="translate(0,0)" fill="rgb(254,254,254)" fill-opacity="0.792157" d="M 943.141 834.652 C 944.232 843.152 943.779 860.565 941.553 868.706 C 941.258 868.09 940.654 867.454 940.194 866.888 L 939.237 871.973 L 938.393 872.476 C 937.376 866.969 937.199 863.649 940.472 858.941 C 942.673 856.703 941.941 856.421 942.279 852.296 C 942.643 846.419 942.93 840.537 943.141 834.652 z"/>
<path transform="translate(0,0)" fill="rgb(254,254,254)" fill-opacity="0.4" d="M 940.472 858.941 C 939.696 854.183 939.272 842.38 940.937 837.925 C 942.386 842.156 942.154 847.686 942.279 852.296 C 941.941 856.421 942.673 856.703 940.472 858.941 z"/>
<path transform="translate(0,0)" fill="rgb(0,0,0)" d="M 857.126 108.812 C 862.225 106.239 874.729 100.147 879.941 98.8728 C 928.443 87.0207 981.912 96.4055 1027.91 111.54 C 1031.59 112.753 1035.26 113.985 1038.92 115.235 C 1094.74 86.4695 1157.19 89.2492 1216.13 107.292 C 1219.94 108.458 1235.22 113.493 1237.32 115.873 L 1237.06 116.472 C 1217.03 131.853 1192.95 142.514 1187.52 171.549 C 1181.35 204.59 1223.28 224.844 1187.53 251.328 C 1173.84 261.469 1152.64 270.763 1137.07 278.879 C 1094.64 301.003 1046.99 341.045 1040.06 391.078 C 1039.13 397.793 1039 404.595 1039.67 411.342 C 1041.02 425.935 1046.94 442.956 1033.34 452.784 C 1023.58 459.841 1011.06 465.123 1000.24 470.5 C 990.761 475.245 981.685 480.762 973.106 486.994 C 925.243 521.82 903.392 570.149 888.995 625.908 C 877.777 669.36 864.902 709.918 877.777 755.299 C 884.87 780.438 901.716 804.083 906.71 829.698 C 914.677 870.553 886.728 926.663 843.258 933.75 C 792.796 941.976 741.71 937.777 693.205 959.804 C 686.786 962.719 667.886 969.029 665.117 958.119 C 657.858 929.46 681.542 900.153 687.368 872.678 C 691.214 854.461 690.097 836.608 688.22 818.359 C 686.957 807.736 680.239 772.646 668.551 769.396 C 664.984 771.529 663.515 776.126 662.579 780.044 C 655.096 811.366 662.285 842.44 647.792 872.266 C 639.139 890.073 632.755 910.729 625.408 929.143 C 620.726 941.826 607.78 942.214 596.817 938.938 C 555.028 929.075 533.982 885.275 488.461 890.836 L 489.229 892.038 C 495.987 902.476 507.242 913.778 515.302 922.717 C 543.805 954.33 568.735 974.762 611.871 981.469 C 615.477 982.03 623.366 983.771 626.781 985.145 C 626.627 994.75 562.753 1061.89 552 1071.75 C 461.622 1154.61 293.321 1125.74 218.293 1033.88 C 212.221 1026.47 190.477 1005.76 181.063 1008.92 C 174.212 1021.06 203.599 1061.69 212.114 1072.34 C 199.226 1076.54 181 1082.2 167.591 1081.74 C 145.96 1080.99 138.068 1078.44 116.098 1081.49 C 121.457 1085.42 125.664 1089.37 131.738 1093.41 C 147.517 1103.9 166.718 1106.63 184.92 1106.61 C 207.048 1106.58 232.395 1096.03 252.492 1106.69 C 268.324 1115.09 282.335 1122.41 297.441 1129.98 C 277.765 1147.23 262.672 1154.21 254.784 1178.86 C 281.932 1169.17 294.423 1154.55 322.454 1149.02 C 344.54 1144.67 361.459 1149.28 383.29 1151.92 C 424.778 1156.94 459.68 1153.75 498.554 1138.59 C 483.13 1159.94 460.567 1203.31 459.496 1229.94 L 457.929 1232.28 C 450.14 1235.94 427.318 1236.79 418.256 1237.46 C 371.208 1240.98 321.696 1240.04 277.173 1222.72 C 255.783 1214.41 235.833 1202.71 215.35 1192.46 C 192 1180.99 169.818 1174.52 148.318 1158.58 C 96.8295 1120.41 61.5414 1075.88 50.5993 1011.66 C 40.8614 954.498 70.0221 933.894 76.9123 882.369 C 80.9038 852.52 71.0785 821.439 79.244 789.819 C 84.8515 768.105 89.5881 760.034 102.417 742.075 C 105.531 738.313 109.283 734.855 109.181 730.191 L 107.492 728.592 C 101.312 727.595 93.3804 732.124 88.4366 735.627 C 82.0718 738.841 74.6814 746.026 70.5016 751.581 C 43.954 786.868 51.6756 833.379 46.6589 874.038 C 44.5758 890.921 34.7607 915.537 27.4216 931.022 L 26.7318 929.596 C -12.8496 846.224 15.8956 742.783 45.1926 661.379 C 50.8846 650.308 63.7481 643.585 76.0829 645.179 C 63.2596 616.211 78.4725 571.866 91.8894 544.375 C 94.0984 539.848 95.6147 538.581 100.212 536.627 L 97.5215 535.769 L 97.494 533.859 C 99.4172 528.24 108.949 510.63 112.184 504.84 C 134.276 465.294 161.7 429.861 197.198 401.463 C 210.162 391.091 228.403 380.367 239.663 369.606 C 248.961 360.721 260.247 341.588 269.101 330.619 C 304.824 286.361 345.283 264.486 398.779 248.856 C 412.758 245.635 434.91 231.636 442.993 234.357 C 447.534 230.418 460.163 217.602 463.663 215.34 C 511.214 184.605 585.751 152.372 641.305 145.497 C 659.316 140.531 677.088 135.013 695.06 129.949 C 699.723 128.636 700.832 129.062 704.702 131.173 C 751.481 113.467 759.224 113.719 807.722 117.11 C 814.096 113.981 841.018 110.882 849.369 107.874 C 851.239 107.201 855.141 108.027 857.126 108.812 z M 372.916 698.053 C 365.038 702.459 364.422 703.743 355.764 702.269 C 354.778 708.775 350.831 729.444 352.578 734.598 L 353.844 734.817 C 360.834 728.664 369.314 707.23 372.916 698.053 z"/>
<path transform="translate(0,0)" fill="rgb(254,254,254)" d="M 966.034 156.874 C 997.981 169.497 1010.96 199.598 996.312 229.7 C 973.76 276.044 960.108 274.583 979.044 327.084 C 924.941 326.951 905.286 340.752 859.944 362.354 C 867.902 346.668 870.167 344.946 881.924 333.298 C 894.895 320.446 929.414 311.527 922.307 290.526 C 916.54 273.486 897.192 258.38 881.461 250.847 C 839.944 230.966 785.195 220.552 740.304 234.024 C 722.487 239.371 704.297 255.835 683.83 260.108 C 655.662 265.988 628.531 261.202 600.368 265.985 C 588.552 268.042 577.025 271.506 566.034 276.303 C 541.338 286.803 471.163 325.985 457.766 350.759 C 454.171 357.405 454.328 365.752 457.014 373.019 C 460.831 383.142 468.555 391.307 478.45 395.681 C 490.029 400.741 524.214 403.171 528.817 413.916 C 527.343 422.991 511.886 426.33 504.088 427.21 C 448.167 433.517 385.767 467.991 372.803 526.626 C 369.187 542.981 373.406 564.483 378.932 581.123 C 401.254 561.121 423.743 551.884 454.019 553.89 C 483.293 555.83 515.909 568.636 541.543 582.828 C 553.013 589.179 563.813 596.601 575.423 602.98 C 543.967 624.783 497.009 589.968 459.258 587.97 C 392.124 584.417 387.381 619.857 379.104 675.887 C 378.173 682.792 374.057 691.682 372.916 698.053 C 365.038 702.459 364.422 703.743 355.764 702.269 C 357.114 677.821 358.429 659.522 344.538 638.238 C 303.886 642.15 284.811 611.495 249.492 602.383 C 242.753 601.185 234.905 603.379 228.649 605.282 C 169.767 623.197 164.552 709.031 92.8884 696.602 C 70.1906 692.666 57.7893 679.221 45.1926 661.379 C 50.8846 650.308 63.7481 643.585 76.0829 645.179 C 63.2596 616.211 78.4725 571.866 91.8894 544.375 C 94.0984 539.848 95.6147 538.581 100.212 536.627 L 97.5215 535.769 L 97.494 533.859 C 99.4172 528.24 108.949 510.63 112.184 504.84 C 134.276 465.294 161.7 429.861 197.198 401.463 C 210.162 391.091 228.403 380.367 239.663 369.606 C 248.961 360.721 260.247 341.588 269.101 330.619 C 304.824 286.361 345.283 264.486 398.779 248.856 C 412.758 245.635 434.91 231.636 442.993 234.357 C 433.738 246.495 424.208 258.05 415.617 270.788 C 378.672 325.567 389.385 309.44 431.879 328.822 C 439.419 322.46 448.155 314.946 455.542 308.468 C 464.396 300.703 482.899 288.95 488.751 279.976 C 490.217 254.163 494.491 237.951 513.567 217.752 C 515.772 215.417 517.242 215.224 519.955 215.106 C 525.703 221.424 520.26 252.387 521.443 264.442 C 558.902 241.566 592.374 229.981 636.524 226.97 C 650.458 226.019 668.85 226.924 681.985 224.281 C 695.033 221.655 712.268 210.293 725.077 205.044 C 758.676 191.274 803.986 191.06 839.087 199.523 C 861.823 205.005 891.006 216.06 910.324 229.326 C 918.567 234.986 928.25 244.781 936.484 250.532 C 951.13 241.487 966.648 218.078 970.392 201.112 C 974.121 184.208 970.576 172.854 966.034 156.874 z"/>
<path transform="translate(0,0)" fill="rgb(0,0,0)" d="M 97.494 533.859 C 99.4172 528.24 108.949 510.63 112.184 504.84 C 134.276 465.294 161.7 429.861 197.198 401.463 C 210.162 391.091 228.403 380.367 239.663 369.606 C 248.961 360.721 260.247 341.588 269.101 330.619 C 304.824 286.361 345.283 264.486 398.779 248.856 C 388.536 262.301 380.701 276.174 372.688 290.985 C 363.903 307.22 361.034 325.183 377.745 337.963 C 388.893 346.942 412.593 346.834 418.804 360.873 C 421.806 367.658 424.148 377.067 426.498 384.34 C 428.843 391.596 436.914 400.395 435.496 406.975 C 430.919 412.536 416.437 420.322 410.105 424.13 C 385.154 439.007 366.928 459.357 351.899 483.863 C 349.661 487.513 344.959 491.732 340.721 491.27 C 302.596 487.115 267.811 476.838 237.771 511.802 C 265.519 513.551 309.643 508.841 330.508 529.923 C 340.073 539.588 340.951 567.751 341.278 581.013 C 341.549 591.998 333.099 599.481 322.036 597.498 C 311.929 595.686 304.814 590.822 296.398 585.174 C 287.997 579.7 276.323 570.075 267.23 566.511 C 241.541 556.442 214.078 567.757 193.009 582.94 C 179.949 592.351 171.824 601.166 161.132 612.794 C 143.74 631.706 128.362 664.035 97.9834 659.536 C 88.2032 658.088 81.9537 652.204 76.0829 645.179 C 63.2596 616.211 78.4725 571.866 91.8894 544.375 C 94.0984 539.848 95.6147 538.581 100.212 536.627 L 97.5215 535.769 L 97.494 533.859 z"/>
<path transform="translate(0,0)" fill="rgb(57,57,56)" d="M 134.165 524.685 C 138.574 525.771 140.198 526.963 144.091 529.188 L 144.877 530.837 C 142.43 532.438 141.867 532.483 139.142 533.233 C 141.14 533.92 142.219 534.263 144.275 534.728 C 137.938 536.056 128.903 533.055 122.636 533.237 C 115.727 533.437 107.464 536.517 100.212 536.627 L 97.5215 535.769 L 97.494 533.859 C 102.217 533.139 105.654 527.83 113.81 527.296 C 120.363 531.014 127.666 527.267 134.165 524.685 z"/>
<path transform="translate(0,0)" fill="rgb(254,254,254)" d="M 138.374 522.533 C 153.344 529.805 169.01 524.439 183.346 518.59 C 168.614 529.739 162.512 531.532 144.275 534.728 C 142.219 534.263 141.14 533.92 139.142 533.233 C 141.867 532.483 142.43 532.438 144.877 530.837 L 144.091 529.188 C 140.198 526.963 138.574 525.771 134.165 524.685 L 138.374 522.533 z"/>
<path transform="translate(0,0)" fill="rgb(226,225,222)" d="M 113.81 527.296 C 120.678 525.915 132.996 520.665 136.591 520.602 L 138.374 522.533 L 134.165 524.685 C 127.666 527.267 120.363 531.014 113.81 527.296 z"/>
<path transform="translate(0,0)" fill="rgb(254,254,254)" d="M 291.711 397.31 C 313.008 395.487 339.877 396.682 357.978 409.246 C 342.557 413.628 324.975 413.528 308.964 416.805 C 278.085 423.124 250.937 440.463 229.6 463.342 C 220.564 473.031 212.634 484.053 203.675 493.987 C 201.501 496.513 199.198 498.925 196.773 501.211 C 183.445 513.724 169.405 512.437 152.643 511.837 C 192.182 499.95 188.603 473.094 211.065 443.445 C 232.425 415.249 257.867 402.763 291.711 397.31 z"/>
<path transform="translate(0,0)" fill="rgb(254,254,254)" d="M 807.722 117.11 C 814.096 113.981 841.018 110.882 849.369 107.874 C 851.239 107.201 855.141 108.027 857.126 108.812 C 852.113 113.305 846.266 118.023 846.223 125.511 C 846.143 139.436 868.108 157.626 868.435 169.845 C 864.6 173.92 855.45 167.908 851.316 165.617 C 829.036 153.272 807.819 144.581 781.794 143.416 C 791.21 131.212 796.088 126.856 807.722 117.11 z"/>
<path transform="translate(0,0)" fill="rgb(254,254,254)" d="M 641.305 145.497 C 659.316 140.531 677.088 135.013 695.06 129.949 C 699.723 128.636 700.832 129.062 704.702 131.173 C 697.31 135.402 680.977 144.178 675.07 148.469 C 649.114 167.324 632.689 183.168 601.656 194.768 C 614.799 168.76 627.94 164.07 641.305 145.497 z"/>
<path transform="translate(0,0)" fill="rgb(254,254,254)" d="M 770.296 287.524 C 786.358 301.595 780.237 368.332 783.478 390.787 C 784.683 403.003 787.278 418.587 791.959 430.137 C 813.813 484.064 870.633 412.279 896.451 402.245 L 897.724 403.036 C 900.895 415.436 891.715 432.433 885.098 442.563 C 872.988 460.931 855.346 475.36 835.291 484.175 C 799.132 500.068 753.443 530.294 752.749 574.388 C 752.529 588.397 753.296 602.355 752.274 616.502 C 750.959 634.702 744.607 651.143 742.005 669.11 C 748.963 686.191 758.995 702.256 766.492 719.946 C 780.869 753.871 791.976 796.107 787.332 833.02 C 786.043 843.265 782.292 853.135 778.535 862.568 C 766.273 833.113 762.229 812.071 754.333 781.908 C 747.847 757.129 728.141 727.567 713.949 706.165 C 694.297 722.41 680.152 721.341 659.174 729.801 C 637.929 738.368 621.397 747.222 598.791 755.054 C 560.617 768.279 493.281 775.729 461.168 797.286 C 440.252 811.327 415.411 855.096 396.076 875.853 C 385.847 890.845 345.186 910.911 338.072 925.472 C 303.244 996.754 434.324 1002.05 466.258 1023.47 L 466.577 1025.38 C 465.234 1026.85 463.827 1027.9 461.839 1028.57 C 429.109 1039.49 381.889 1029.36 350.679 1017.38 C 328.993 1009.06 307.714 995.002 298.897 973.788 C 295.664 966.01 293.577 957.954 290.018 949.824 C 261.733 950.315 241.746 949.963 214.251 944.108 C 182.236 935.868 137.425 914.307 129.968 878.482 C 152.061 885.928 169.402 902.326 193.514 908.556 C 226.047 916.962 300.87 932.087 313.743 889.145 C 288.895 872.265 256.79 857.059 245.635 827.009 C 243.165 820.356 240.398 812.5 242.174 805.41 C 243.754 804.011 243.605 803.492 244.829 804.138 C 251.689 807.759 260.235 814.686 266.219 819.819 C 288.025 838.524 319.691 858.449 349.537 856.56 C 375.715 854.904 393.064 815.201 406.906 796.519 C 415.723 784.619 420.681 776.737 432.678 766.705 C 459.567 744.218 482.192 743 513.86 736.121 C 529.631 732.583 545.305 728.627 560.865 724.258 C 595.608 714.165 621.922 702.496 654.046 686.185 C 698.204 663.765 714.284 636.989 708.695 586.034 C 707.458 574.757 703.126 566.234 698.677 555.902 C 673.94 498.45 588.604 498.342 586.346 426.81 C 584.508 385.354 597.819 355.567 624.322 324.869 C 627.932 320.689 632.74 315.046 638.382 314.676 C 644.628 322.27 633.962 342.804 631.21 351.31 C 624.096 373.308 619.038 396.924 621.354 420.172 C 624.939 453.786 664.198 468.336 687.046 485.858 C 711.444 505.27 722.587 522.384 752.484 497.61 C 766.99 485.589 765.26 474.99 760.872 458.255 C 758.149 447.871 754.466 436.73 752.303 426.316 C 745.031 391.316 749.83 356.295 758.059 321.951 C 760.582 311.421 763.154 297.52 769.55 288.554 L 770.296 287.524 z"/>
<path transform="translate(0,0)" fill="rgb(254,254,254)" d="M 218.791 658.398 C 224.361 660.594 242.622 684.636 249.551 690.762 C 265.763 705.094 277.404 713.888 292.041 730.2 L 281.268 739.704 C 270.702 740.377 257.171 740.302 247.084 742.145 C 216.204 747.788 195.249 765.968 177.747 790.83 C 171.418 800.473 168.032 808.96 163.426 819.482 C 159.633 822.478 149.059 824.245 147.108 819.759 C 133.178 787.737 166.19 748.851 189.7 730.754 C 199.638 723.103 211.031 716.131 221.256 708.512 C 211.446 691.178 209.117 676.248 218.791 658.398 z"/>
<path transform="translate(0,0)" fill="rgb(254,254,254)" d="M 1237.06 116.472 C 1243.37 133.612 1266.48 129.95 1277.33 138.162 C 1259.93 145.337 1234.25 151.808 1226 170.837 C 1222.95 177.871 1223.85 184.832 1226.74 191.729 C 1235.94 213.714 1244.77 224.575 1234.94 249.476 C 1212.85 305.462 1121.44 304.198 1085.25 376.181 C 1079.29 388.022 1076.24 400.941 1081.64 413.613 C 1087.47 427.309 1117.49 447.63 1113.38 459.907 C 1111.26 466.253 1102.97 470.571 1097.18 473.099 C 1081.94 479.748 1065.38 483.551 1049.83 489.492 C 1000.22 508.455 962.583 539.625 942.312 589.87 C 928.282 624.646 909.42 689.081 911.922 726.057 C 913.128 743.882 918.443 760.651 925.066 777.113 C 932.225 794.909 943.238 815.202 943.141 834.652 C 942.93 840.537 942.643 846.419 942.279 852.296 C 942.154 847.686 942.386 842.156 940.937 837.925 C 939.272 842.38 939.696 854.183 940.472 858.941 C 937.199 863.649 937.376 866.969 938.393 872.476 L 939.237 871.973 L 940.194 866.888 C 940.654 867.454 941.258 868.09 941.553 868.706 C 940.541 873.101 939.636 877.249 938.31 881.573 C 969.93 860.314 1001.99 839.714 1034.46 819.784 C 1048.48 811.278 1069.94 801.48 1082.3 791.926 C 1086.26 788.857 1088.94 784.797 1090.01 779.857 C 1096.3 750.68 1058.69 718.439 1075.28 668.973 C 1076.93 664.065 1080.45 655.79 1085.02 653.061 C 1086.18 652.371 1086.28 652.405 1087.4 652.073 C 1096.78 655.51 1100.89 689.677 1103 699.045 C 1109.79 729.232 1128.88 758.684 1158.86 769.748 C 1188.2 780.648 1230.52 775.785 1258.72 762.379 C 1292.42 746.36 1308.4 717.61 1321.01 684.641 C 1337.75 640.857 1337.64 570.345 1382.75 546.828 C 1372.6 573.124 1374.38 592.128 1372.28 620.001 C 1366.83 692.239 1342.6 752.744 1283.05 797.186 C 1310.67 814.52 1333.92 829.468 1342.04 862.88 C 1322.08 860.48 1302.65 847.837 1284.29 838.689 C 1271.97 832.469 1259.22 827.156 1246.13 822.792 C 1196.71 806.809 1128.19 813.831 1082.38 837.483 C 1033.76 862.589 978.234 899.919 934.74 932.751 C 871.36 980.594 826.721 1070.69 848.118 1149.99 C 851.922 1164.54 860.651 1179.84 871.585 1190.2 C 877.299 1182.75 884.055 1173.94 889.004 1166.02 C 902.237 1144.82 909.332 1129.09 928.068 1111.45 C 945.265 1165.95 898.761 1185.12 909.437 1230.62 C 914.549 1252.4 947.336 1255.75 957.481 1282.4 C 911.561 1283.14 902.021 1259.93 868.061 1256.54 C 836.979 1253.44 804.031 1294.39 768.535 1299.22 C 779.567 1261.85 812.115 1241.75 843.225 1223.29 C 809.804 1174.02 800.705 1124.93 810.451 1065.77 C 815.546 1034.85 827.679 1013.49 836.135 986.179 C 765.259 977.632 703.919 985.369 645.979 1030.44 C 612.314 1056.62 587.625 1091.17 560.113 1122.66 C 525.978 1161.72 509.276 1184.9 497.311 1236.4 C 493.834 1236.55 492.457 1236.71 489.486 1234.64 C 480.99 1228.74 469.598 1231.59 459.496 1229.94 C 460.567 1203.31 483.13 1159.94 498.554 1138.59 C 459.68 1153.75 424.778 1156.94 383.29 1151.92 C 361.459 1149.28 344.54 1144.67 322.454 1149.02 C 294.423 1154.55 281.932 1169.17 254.784 1178.86 C 262.672 1154.21 277.765 1147.23 297.441 1129.98 C 282.335 1122.41 268.324 1115.09 252.492 1106.69 C 232.395 1096.03 207.048 1106.58 184.92 1106.61 C 166.718 1106.63 147.517 1103.9 131.738 1093.41 C 125.664 1089.37 121.457 1085.42 116.098 1081.49 C 138.068 1078.44 145.96 1080.99 167.591 1081.74 C 181 1082.2 199.226 1076.54 212.114 1072.34 C 203.599 1061.69 174.212 1021.06 181.063 1008.92 C 190.477 1005.76 212.221 1026.47 218.293 1033.88 C 293.321 1125.74 461.622 1154.61 552 1071.75 C 562.753 1061.89 626.627 994.75 626.781 985.145 C 623.366 983.771 615.477 982.03 611.871 981.469 C 568.735 974.762 543.805 954.33 515.302 922.717 C 507.242 913.778 495.987 902.476 489.229 892.038 L 488.461 890.836 C 533.982 885.275 555.028 929.075 596.817 938.938 C 607.78 942.214 620.726 941.826 625.408 929.143 C 632.755 910.729 639.139 890.073 647.792 872.266 C 662.285 842.44 655.096 811.366 662.579 780.044 C 663.515 776.126 664.984 771.529 668.551 769.396 C 680.239 772.646 686.957 807.736 688.22 818.359 C 690.097 836.608 691.214 854.461 687.368 872.678 C 681.542 900.153 657.858 929.46 665.117 958.119 C 667.886 969.029 686.786 962.719 693.205 959.804 C 741.71 937.777 792.796 941.976 843.258 933.75 C 886.728 926.663 914.677 870.553 906.71 829.698 C 901.716 804.083 884.87 780.438 877.777 755.299 C 864.902 709.918 877.777 669.36 888.995 625.908 C 903.392 570.149 925.243 521.82 973.106 486.994 C 981.685 480.762 990.761 475.245 1000.24 470.5 C 1011.06 465.123 1023.58 459.841 1033.34 452.784 C 1046.94 442.956 1041.02 425.935 1039.67 411.342 C 1039 404.595 1039.13 397.793 1040.06 391.078 C 1046.99 341.045 1094.64 301.003 1137.07 278.879 C 1152.64 270.763 1173.84 261.469 1187.53 251.328 C 1223.28 224.844 1181.35 204.59 1187.52 171.549 C 1192.95 142.514 1217.03 131.853 1237.06 116.472 z"/>
<path transform="translate(0,0)" fill="rgb(254,254,254)" d="M 1061.6 1211.06 C 1039.55 1159.4 1059.85 1106.71 1003.62 1059.31 C 977.371 1037.18 953.618 1031.23 928.615 1010 C 926.681 1008.36 925.441 1007.11 925.422 1004.8 C 929.548 1002.13 935.861 1001.67 940.696 1001.5 C 964.73 1000.67 987.384 1012.3 1008.73 1021.93 C 1017.27 1025.78 1025.85 1029.81 1035.29 1030.74 C 1052.71 1032.45 1109.09 1009.32 1129.97 1003.6 C 1148.55 998.507 1167.56 995.092 1186.54 991.917 C 1203.42 988.98 1220.49 987.337 1237.61 987.002 C 1264.26 986.589 1290.13 989.541 1315.96 982.676 C 1342.54 975.429 1367.21 962.479 1388.27 944.727 C 1491.39 858.51 1510.44 740.687 1518.45 612.121 C 1520.4 580.836 1508.13 548.872 1510.81 517.396 C 1513.54 485.227 1540.82 463.443 1572.84 467.784 C 1576.58 468.311 1580.95 468.607 1583.41 471.715 C 1582.76 480.307 1551.64 492.025 1547.54 516.285 C 1543.87 538.063 1549.64 554.73 1551.91 576.046 C 1553.11 588.365 1553.67 600.739 1553.59 613.116 C 1553.14 663.346 1540.43 714.108 1544.12 764.146 C 1545.48 782.601 1550.74 801.063 1560.39 816.924 C 1577.9 845.696 1608.4 865.898 1640.9 873.641 C 1658.98 877.949 1677.85 877.444 1695.42 871.21 C 1752.48 850.96 1744.8 804.745 1768.07 790.275 C 1777.12 790.428 1782.98 806.925 1786.54 814.244 C 1802.08 846.108 1811.27 887.849 1810.26 923.354 C 1808.94 969.476 1789.01 1043.09 1754.96 1075.44 L 1753.51 1075.14 C 1747.77 1058.65 1761.15 1026.93 1764.93 1009.14 C 1774.99 961.852 1781.92 897.928 1759.72 853.268 C 1738.13 882.094 1710.36 900.869 1691.07 932.038 C 1682 946.707 1666.99 964.081 1655.12 976.604 C 1643.44 976.138 1641.24 975.263 1640.52 963.91 C 1643.64 948.569 1657.74 926.138 1663.91 911.504 C 1600.15 909.013 1552.74 880.489 1520.23 825.281 C 1509.32 851.091 1499.59 873.786 1483.23 896.979 C 1477.04 905.763 1470.36 913.964 1463.89 922.48 C 1456.13 932.696 1435.23 952.429 1432.23 963.587 C 1430.25 970.952 1438.29 995.57 1439.2 1005.59 C 1440.6 1021.21 1439.66 1029.76 1437.11 1045.1 C 1472.22 1038.24 1496.85 1040.62 1531.31 1048.07 C 1557.57 1053.74 1585.75 1054.93 1612.21 1051.02 C 1656.72 1045.52 1680.62 1008.61 1717.21 999.954 C 1706.69 1035.68 1675.74 1058.96 1645.96 1078.88 C 1656.55 1142.33 1683.1 1172.48 1752.08 1161.29 C 1800.71 1153.4 1840.12 1125.26 1867.72 1085.03 C 1876.53 1072.66 1897.49 1031.25 1903.46 1026.61 L 1905.35 1026.55 C 1909 1031.31 1907.53 1042.15 1906.79 1047.93 C 1900.71 1092.82 1876.98 1133.43 1840.84 1160.75 C 1803.22 1189.51 1748.7 1204.83 1701.67 1198.4 C 1691.32 1196.98 1681.45 1194.45 1671.33 1191.9 C 1662.67 1255.59 1640.2 1300.43 1588.13 1340.13 C 1586.67 1341.25 1585.18 1342.34 1583.66 1343.4 C 1579.15 1344.95 1524.15 1343.77 1516.98 1342.34 C 1515.37 1339.7 1515.84 1340.65 1516.47 1336.76 C 1521.32 1334.78 1526.4 1332.93 1531.29 1331.09 C 1590.58 1308.61 1626.88 1253.78 1633.67 1192.04 C 1638.14 1151.43 1630.1 1122.79 1607.67 1089.14 C 1588.41 1089.16 1568.21 1088.96 1549.03 1086.83 C 1511.05 1082.62 1480.42 1072.29 1441.79 1081.68 C 1407.74 1089.95 1385.7 1112.24 1352.46 1119.27 C 1332.1 1123.58 1314.16 1120.89 1296.79 1109.4 C 1305.76 1104.04 1315.19 1101.15 1324.91 1097.48 C 1357.09 1085.32 1399.11 1066.52 1402.75 1027.51 C 1404.11 1012.88 1403.04 1003.01 1393.65 991.573 C 1385.9 994.679 1373.7 1001.52 1365.69 1005.39 C 1350.87 1012.43 1335.34 1017.85 1319.36 1021.56 C 1284.2 1029.72 1262.38 1024.75 1227.53 1026.61 C 1172.17 1029.58 1113.67 1048.31 1062.17 1068.25 C 1065.58 1076.92 1071.61 1104.27 1081 1103.99 C 1118.58 1102.9 1148.1 1104.74 1184.32 1117.63 C 1241.48 1137.98 1284.06 1179.91 1346.43 1187.63 C 1405.05 1194.89 1456.67 1177.92 1514.11 1172.67 C 1523.95 1171.78 1534.35 1174.1 1543.75 1177.17 C 1481.02 1224.45 1366.79 1234.56 1292.83 1211.42 C 1235.92 1193.61 1189.87 1149.39 1128.83 1141.09 C 1119.86 1139.87 1092.86 1137.15 1084.64 1148.03 C 1076.02 1169.9 1074.45 1188.74 1061.6 1211.06 z"/>
<path transform="translate(0,0)" fill="rgb(254,254,254)" d="M 1451.34 327.736 C 1450.45 317.867 1450.55 253.897 1461.35 251.746 C 1478.55 259.233 1480.37 328.228 1501.88 332.258 C 1542.27 339.829 1580.15 355.386 1613.45 379.78 C 1620.68 385.117 1627.39 391.114 1633.5 397.692 C 1661.02 427.081 1664.12 437.834 1705 421.225 C 1723.29 413.79 1751.87 409.965 1771.26 411.943 C 1774.32 416.795 1776.28 420.303 1779.62 425.004 C 1783.98 431.121 1794.05 437.377 1794 444.444 C 1791.52 443.83 1789.02 443.296 1786.5 442.845 C 1753.75 437.251 1716.7 449.696 1690.24 468.789 C 1700.7 483.157 1709.57 496.688 1719.61 511.036 C 1727.28 513.887 1738.65 515.034 1746.97 516.376 C 1792.68 523.756 1845.41 555.181 1854.35 604.289 C 1830.03 594.897 1813.04 568.698 1784.76 559.434 C 1769.02 554.277 1743.88 545.536 1726.91 552.318 C 1724.54 553.304 1720.51 557.004 1720.1 559.682 C 1715.48 590.098 1707.51 642.331 1676.52 657.671 L 1675.24 658.295 C 1674.55 641.13 1677.4 630.46 1681.63 613.916 C 1689.15 584.513 1690.41 557.94 1682.37 528.231 C 1680.02 519.228 1676.1 510.714 1670.77 503.085 C 1661.34 489.32 1648.11 479.903 1636.99 466.381 C 1625.27 452.124 1614.73 432.033 1602.5 419.544 C 1592.51 409.485 1581.18 400.862 1568.82 393.924 C 1521.75 367.005 1464.91 356.31 1411.04 364.714 C 1393.8 367.403 1374.8 374.895 1357.56 378.99 C 1343.41 382.247 1329.25 383.534 1315.1 386.982 C 1266.5 398.823 1260.82 442.39 1241.15 479.241 C 1212.84 532.254 1188.04 574.329 1203.47 636.848 C 1208.59 657.628 1219.43 673.481 1224.97 693.095 C 1190.36 687.611 1167.86 651.563 1164.8 619.914 C 1162.16 576.421 1151.78 563.264 1106.79 562.257 C 1094.1 561.972 1025.2 578.807 1022.59 568.133 C 1024.82 562.69 1033.92 555.945 1038.72 552.467 C 1063.66 534.449 1096.39 528.249 1126.71 527.452 C 1145.65 527.429 1167.74 526.799 1180.03 509.071 C 1204.37 473.947 1244.19 412.238 1192.58 380.908 C 1187.33 377.722 1180.38 371.892 1183.39 365.422 C 1187.72 362.371 1190.99 362.588 1196.1 362.543 C 1216.96 362.357 1231.09 376.015 1243.79 390.696 C 1245.54 388.811 1247.34 386.969 1249.18 385.173 C 1260.89 373.647 1274.57 364.314 1289.58 357.618 C 1318.56 344.965 1359.03 342.046 1390.09 332.711 C 1406.49 327.783 1434.44 327.545 1451.34 327.736 z"/>
<path transform="translate(0,0)" fill="rgb(254,254,254)" d="M 847.306 1377.87 C 848.698 1375.33 849.915 1373.49 851.377 1371.08 C 863.093 1351.77 895.184 1342.6 916.222 1339.77 C 937.316 1336.93 947.375 1339.43 969.208 1329.88 C 991.907 1319.96 1009.35 1297.99 1032.07 1291.31 C 1047.19 1286.87 1068.97 1292.35 1085.98 1288.85 C 1107.33 1284.46 1108.49 1256.22 1118.97 1240.12 C 1120.56 1237.67 1120.54 1238.06 1122.81 1237.69 C 1144.74 1252.08 1112.41 1298.89 1164.2 1302.8 C 1199.59 1305.47 1208.36 1286.45 1238.2 1276.42 C 1303.5 1254.49 1350.58 1314.85 1402.23 1340.03 C 1400.76 1357.57 1393.95 1362.34 1389.52 1374.77 C 1354.65 1354.48 1326.57 1327.81 1289.36 1312.63 C 1246.11 1294.99 1218.51 1337.22 1182.05 1339.35 C 1120.73 1342.94 1090.29 1302.55 1023.5 1338.25 C 1001.18 1350.22 970.257 1369.48 961.786 1394.35 C 952.535 1421.51 951.091 1455.85 921.285 1470.47 L 919.982 1471.1 C 912.982 1436.98 934.139 1397.22 930.202 1381.72 C 929.396 1378.54 927.574 1376.05 924.743 1374.39 C 911.874 1366.84 862.795 1374.44 847.306 1377.87 z"/>
<path transform="translate(0,0)" fill="rgb(254,254,254)" d="M 1989.64 1246.26 C 1978.72 1248.53 1974.22 1252.81 1959.54 1253.79 C 1938.08 1255.22 1920.22 1245.57 1900.68 1247.45 C 1887.57 1249.93 1877.42 1256.92 1865.2 1262.64 C 1842.73 1273.16 1811.3 1283.04 1786.87 1275.82 C 1784.98 1275.26 1784.64 1272.18 1784.47 1270.63 C 1787.69 1266.59 1801.66 1263.8 1807.34 1261.87 C 1850.89 1247.01 1900.36 1222.61 1922.28 1180.3 C 1917.05 1210.76 1911.1 1222.05 1949.27 1225.91 C 1962.06 1227.2 1971.09 1225.14 1982.85 1220.39 C 1985.26 1220.91 1987.86 1220.87 1988.8 1222.79 C 1991.26 1227.78 1989.85 1240.42 1989.64 1246.26 z"/>
<path transform="translate(0,0)" fill="rgb(254,254,254)" d="M 1929.82 937.878 C 1948.93 909.396 1993.63 922.418 2016.87 938.194 C 2022.72 942.164 2031.42 951.424 2037.51 953.581 C 2042.88 955.499 2042.92 959.25 2048 962.352 L 2048 1019.45 C 2047.06 1018.12 2045.43 1015.13 2044.53 1013.6 L 2042.68 1017.76 L 2041.76 1017.15 C 2039.52 1011.78 2040.01 1011.86 2034.66 1010.92 C 2022.76 983.273 2002.43 955.458 1969.15 954.908 C 1959 954.741 1949.86 959.025 1940.65 962.78 C 1934.24 954.123 1932.16 948.217 1929.82 937.878 z"/>
<path transform="translate(0,0)" fill="rgb(254,254,254)" d="M 1446.02 173.521 C 1452.64 176.712 1485.35 196.48 1486.16 202.112 C 1470.3 201.549 1463.35 201.105 1447.65 205.066 C 1427.98 210.028 1410.13 225.813 1390.52 226.287 C 1370.12 226.779 1342.68 207.845 1328.52 194.297 C 1341.71 197.409 1354.17 202.227 1367.51 204.859 C 1391.65 209.618 1399.84 197.097 1418.57 185.782 C 1427.89 180.155 1435.89 177.215 1446.02 173.521 z"/>
<path transform="translate(0,0)" fill="rgb(254,254,254)" d="M 577.399 1376.45 C 587.089 1381.43 627.464 1406.25 633.112 1412.93 L 633.659 1415.02 C 616.915 1429.87 559.027 1397.42 543.122 1388.39 C 546.9 1385.44 551.704 1380.63 555.308 1377.22 C 561.497 1376.17 570.697 1376.59 577.399 1376.45 z"/>
<path transform="translate(0,0)" fill="rgb(254,254,254)" d="M 669.073 1475.7 C 675.963 1471.91 685.16 1467.73 692.49 1463.72 C 702.964 1457.99 723.692 1442.9 733.603 1440.68 C 735.08 1442.45 735.428 1444.32 735.005 1446.67 C 730.713 1470.53 698.031 1490.13 678.857 1500.69 C 677.002 1499.27 667.816 1486.13 664.517 1482.17 C 664.463 1479.83 667.059 1477.91 669.073 1475.7 z"/>
<path transform="translate(0,0)" fill="rgb(254,254,254)" d="M 1953.01 717.474 C 1961.55 714.128 1968.34 718.766 1975.21 724.399 C 1967.27 744.4 1953.62 780.924 1929.87 785.291 C 1926.6 784.387 1927.83 785.319 1926.09 782.379 C 1924.41 764.311 1947.19 736.906 1953.01 717.474 z"/>
<path transform="translate(0,0)" fill="rgb(254,254,254)" d="M 1564.34 249.278 C 1565.76 249.08 1569.5 248.63 1570.58 249.178 C 1576.06 251.977 1592.89 256.247 1596.89 258.339 C 1601.56 270.63 1618.84 314.695 1609.73 324.445 L 1607.2 324.158 C 1594.85 315.651 1571.84 264.211 1564.34 249.278 z"/>
<path transform="translate(0,0)" fill="rgb(254,254,254)" d="M 1793.08 1363.56 C 1838.35 1341.47 1844.47 1323.96 1880.64 1298.74 C 1870.85 1328.24 1844.39 1350.84 1822.09 1372.4 C 1814.38 1371.57 1804.65 1371.45 1797.46 1368.87 C 1794.14 1367.68 1794.32 1366.54 1793.08 1363.56 z"/>
<path transform="translate(0,0)" fill="rgb(254,254,254)" d="M 1947.68 1076.29 C 1987.68 1081.37 2003.37 1104.8 2023.46 1136.7 C 2013.3 1144.56 2010.02 1154.06 2004.16 1156.54 C 1996.04 1114.27 1978.13 1102.54 1947.68 1076.29 z"/>
<path transform="translate(0,0)" fill="rgb(254,254,254)" d="M 1864.84 965.067 L 1865.48 963.668 C 1869.61 954.91 1881.35 938.596 1886.8 929.133 C 1903.42 900.256 1914.64 859.79 1903.71 827.311 C 1896.73 806.578 1879.03 788.197 1869.36 765.83 C 1864.32 754.133 1860.58 741.92 1858.2 729.409 C 1853.3 704.961 1852.94 666.487 1827.16 653.6 C 1818.64 649.339 1808.93 647.767 1799.8 651.212 C 1765.09 664.316 1765.99 740.51 1708.49 759.362 C 1696.45 763.309 1683.45 763.253 1671.68 758.38 C 1654.62 751.14 1641.13 737.408 1634.19 720.213 C 1619.38 683.303 1640.35 646.104 1614.24 599.98 C 1636.05 612.568 1648.13 625.157 1655.02 649.737 C 1661.99 674.585 1651.39 706.813 1678.39 721.987 C 1703.34 735.724 1722.16 709.699 1732.1 690.784 C 1745.13 665.982 1758.09 629.212 1786.94 619.664 C 1829.17 605.688 1866.98 631.061 1878.38 672.395 C 1886.33 699.558 1886.34 727.238 1896.77 753.921 C 1903.21 770.389 1912.36 779.435 1921.84 793.729 C 1965.05 858.839 1927.48 937.714 1871.78 981.05 C 1868.09 979.789 1867.75 979.782 1864.82 977.354 C 1863.17 973.722 1864.41 969.519 1864.84 965.067 z"/>
<path transform="translate(0,0)" fill="rgb(254,254,254)" d="M 744.531 1079.9 C 746.788 1079.6 745.902 1079.61 748.205 1080.34 C 755.717 1095.22 720.196 1146.56 711.046 1161.87 C 680.295 1213.33 686.919 1290.91 711.355 1343.81 C 725.152 1373.68 750.416 1393.74 778.129 1409.66 C 795.333 1419.54 811.666 1425.35 826.779 1439.05 C 787.712 1443.44 758.122 1433.53 726.418 1411.42 C 697.669 1388.46 688.505 1370.36 671.038 1339.6 C 655.733 1313.54 626.64 1298.85 597.894 1292.73 C 594.326 1291.36 563.871 1291.4 564.531 1284.53 C 566.421 1264.84 604.869 1265.24 615.67 1267.53 C 634.864 1271.59 634.936 1273.02 650.904 1271.12 C 653.091 1270.86 654.722 1267.19 654.864 1265.61 C 656.594 1236.71 653.82 1207.92 664.171 1180.06 C 675.216 1149.52 715.329 1094.02 744.531 1079.9 z"/>
<path transform="translate(0,0)" fill="rgb(254,254,254)" d="M 1380.5 407.355 C 1408.11 403.741 1436.11 410.067 1459.48 425.202 C 1401.72 424.163 1354.7 422.022 1312.43 469.128 C 1302.1 482.09 1289.54 503.234 1281.85 517.829 C 1279.61 489.832 1287.6 469.312 1304.68 446.849 C 1323.99 421.456 1349.65 411.162 1380.5 407.355 z"/>
<path transform="translate(0,0)" fill="rgb(254,254,254)" d="M 1278.9 218.851 C 1280.6 218.804 1282.31 218.825 1284.01 218.915 C 1301.87 219.995 1319.46 234.005 1330.65 247.08 C 1345.35 264.269 1352.98 282.806 1351.28 305.462 C 1335.03 300.726 1316.09 268.15 1304.62 255.069 C 1297.86 247.353 1279.61 228.31 1278.9 218.851 z"/>
<path transform="translate(0,0)" fill="rgb(254,254,254)" fill-opacity="0.988235" d="M 88.4366 735.627 C 93.3804 732.124 101.312 727.595 107.492 728.592 L 109.181 730.191 C 109.283 734.855 105.531 738.313 102.417 742.075 C 97.7077 742.022 94.3864 742.32 89.9606 740.705 C 87.7602 738.348 88.3116 739.567 88.4366 735.627 z"/>
</svg>