<svg version="1.1" xmlns="http://www.w3.org/2000/svg" style="display: block;" viewBox="0 0 2048 1638" width="1920" height="1536" preserveAspectRatio="none">
<path transform="translate(0,0)" fill="rgb(0,0,0)" d="M 706.166 658.877 C 714.629 594.467 709.302 531.693 712.968 468.178 C 716.484 407.277 746.235 343.374 795.703 307.227 C 878.167 245.159 1007.73 241.658 1106.07 253.087 C 1175.45 261.149 1247.8 287.837 1290.93 344.981 C 1361.71 438.771 1325.11 550.797 1342.62 658.667 C 1362.52 656.131 1380.25 652.58 1399.62 646.554 C 1416.18 641.479 1432.51 632.381 1449.65 629.744 C 1456.4 628.704 1466.73 631.521 1471.59 636.138 C 1515.23 677.59 1424.56 704.791 1397.96 714.776 C 1380.73 721.248 1361.67 725.609 1344.46 729.792 C 1352.17 763.56 1345.69 774.86 1336.88 807.045 C 1334.49 815.746 1332.37 827.066 1329.28 835.228 C 1324.53 834.682 1319.45 833.541 1315.83 836.903 C 1299.48 852.089 1302.87 890.97 1288.67 907.026 C 1286.95 908.967 1278.26 910.244 1275.16 910.667 C 1274.89 923.724 1279.55 937.97 1277.85 951.467 C 1275.88 967.093 1274.92 988.199 1269.72 1003.12 C 1259.47 1032.51 1252.66 1062.45 1243.04 1092 C 1240.32 1100.36 1240.64 1113.79 1237.23 1120.84 C 1234.76 1136.96 1233.45 1152.68 1234.2 1169.02 C 1237.62 1173.66 1240.99 1178.18 1243.93 1183.15 C 1241.91 1188.08 1240.62 1191.5 1237.83 1196.07 C 1247.79 1199.12 1246.63 1209.82 1247.54 1218.98 C 1249.85 1232.99 1259.13 1295.49 1256.41 1304.4 C 1233.14 1362.63 1129.63 1397.03 1075 1405.04 C 987.825 1417.81 898.425 1396.58 826.946 1346.62 C 772.147 1308.32 795.896 1275.72 801.011 1218.34 C 800.353 1208.62 800.766 1199.94 809.975 1194.9 C 802.679 1182.64 805.815 1180.09 814.172 1170.01 C 815.026 1154.63 814.184 1139.2 811.661 1124.01 L 809.666 1122.97 C 799.481 1104.38 797.994 1085.59 790.524 1065.58 C 788.602 1060.38 776.979 1050.57 776.316 1045.75 C 772.892 1020.82 762.911 929.418 773.209 910.888 C 767.327 909.701 760.651 909.436 757.131 903.971 C 747.13 888.446 746.617 840.836 728.448 834.607 C 726.236 833.849 721.914 835.397 719.478 836.195 C 715.579 823.666 712.934 811.093 709.583 799.077 C 701.492 770.059 696.988 760.303 704.259 729.834 C 680.442 723.813 516.633 685.674 580.506 633.638 C 595.62 621.325 628.397 640.337 643.932 644.554 C 665.738 651.535 683.192 655.991 706.166 658.877 z M 814.172 1170.01 C 805.815 1180.09 802.679 1182.64 809.975 1194.9 C 800.766 1199.94 800.353 1208.62 801.011 1218.34 C 795.896 1275.72 772.147 1308.32 826.946 1346.62 C 898.425 1396.58 987.825 1417.81 1075 1405.04 C 1129.63 1397.03 1233.14 1362.63 1256.41 1304.4 C 1259.13 1295.49 1249.85 1232.99 1247.54 1218.98 C 1246.63 1209.82 1247.79 1199.12 1237.83 1196.07 C 1240.62 1191.5 1241.91 1188.08 1243.93 1183.15 C 1240.99 1178.18 1237.62 1173.66 1234.2 1169.02 C 1233.45 1152.68 1234.76 1136.96 1237.23 1120.84 L 1236.61 1121.69 C 1227.9 1134.03 1219.84 1150.2 1211.09 1163.11 C 1173.81 1218.14 1129.99 1263.46 1062.52 1275.83 C 958.701 1294.88 883.572 1238.08 831.469 1153.71 C 827.676 1147.57 816.55 1127.14 812.832 1123.04 L 811.661 1124.01 C 814.184 1139.2 815.026 1154.63 814.172 1170.01 z"/>
<path transform="translate(0,0)" fill="rgb(254,254,254)" d="M 795.553 746.064 C 942.742 770.162 1105.48 767.952 1252.8 746.463 C 1254.45 759.507 1255.43 767.15 1260.59 779.626 C 1262.96 785.341 1270.92 801.355 1272 806.265 C 1278.35 835.168 1276.98 880.862 1275.16 910.667 C 1274.89 923.724 1279.55 937.97 1277.85 951.467 C 1275.88 967.093 1274.92 988.199 1269.72 1003.12 C 1259.47 1032.51 1252.66 1062.45 1243.04 1092 C 1240.32 1100.36 1240.64 1113.79 1237.23 1120.84 C 1234.76 1136.96 1233.45 1152.68 1234.2 1169.02 C 1237.62 1173.66 1240.99 1178.18 1243.93 1183.15 C 1241.91 1188.08 1240.62 1191.5 1237.83 1196.07 C 1247.79 1199.12 1246.63 1209.82 1247.54 1218.98 C 1249.85 1232.99 1259.13 1295.49 1256.41 1304.4 C 1233.14 1362.63 1129.63 1397.03 1075 1405.04 C 987.825 1417.81 898.425 1396.58 826.946 1346.62 C 772.147 1308.32 795.896 1275.72 801.011 1218.34 C 800.353 1208.62 800.766 1199.94 809.975 1194.9 C 802.679 1182.64 805.815 1180.09 814.172 1170.01 C 815.026 1154.63 814.184 1139.2 811.661 1124.01 L 809.666 1122.97 C 799.481 1104.38 797.994 1085.59 790.524 1065.58 C 788.602 1060.38 776.979 1050.57 776.316 1045.75 C 772.892 1020.82 762.911 929.418 773.209 910.888 C 773.365 880.963 769.361 837.831 775.923 809.549 C 781.674 784.759 793.373 777.791 795.553 746.064 z M 814.172 1170.01 C 805.815 1180.09 802.679 1182.64 809.975 1194.9 C 800.766 1199.94 800.353 1208.62 801.011 1218.34 C 795.896 1275.72 772.147 1308.32 826.946 1346.62 C 898.425 1396.58 987.825 1417.81 1075 1405.04 C 1129.63 1397.03 1233.14 1362.63 1256.41 1304.4 C 1259.13 1295.49 1249.85 1232.99 1247.54 1218.98 C 1246.63 1209.82 1247.79 1199.12 1237.83 1196.07 C 1240.62 1191.5 1241.91 1188.08 1243.93 1183.15 C 1240.99 1178.18 1237.62 1173.66 1234.2 1169.02 C 1233.45 1152.68 1234.76 1136.96 1237.23 1120.84 L 1236.61 1121.69 C 1227.9 1134.03 1219.84 1150.2 1211.09 1163.11 C 1173.81 1218.14 1129.99 1263.46 1062.52 1275.83 C 958.701 1294.88 883.572 1238.08 831.469 1153.71 C 827.676 1147.57 816.55 1127.14 812.832 1123.04 L 811.661 1124.01 C 814.184 1139.2 815.026 1154.63 814.172 1170.01 z"/>
<path transform="translate(0,0)" fill="rgb(0,0,0)" d="M 811.661 1124.01 L 812.832 1123.04 C 816.55 1127.14 827.676 1147.57 831.469 1153.71 C 883.572 1238.08 958.701 1294.88 1062.52 1275.83 C 1129.99 1263.46 1173.81 1218.14 1211.09 1163.11 C 1219.84 1150.2 1227.9 1134.03 1236.61 1121.69 L 1237.23 1120.84 C 1234.76 1136.96 1233.45 1152.68 1234.2 1169.02 C 1237.62 1173.66 1240.99 1178.18 1243.93 1183.15 C 1241.91 1188.08 1240.62 1191.5 1237.83 1196.07 C 1247.79 1199.12 1246.63 1209.82 1247.54 1218.98 C 1249.85 1232.99 1259.13 1295.49 1256.41 1304.4 C 1233.14 1362.63 1129.63 1397.03 1075 1405.04 C 987.825 1417.81 898.425 1396.58 826.946 1346.62 C 772.147 1308.32 795.896 1275.72 801.011 1218.34 C 800.353 1208.62 800.766 1199.94 809.975 1194.9 C 802.679 1182.64 805.815 1180.09 814.172 1170.01 C 815.026 1154.63 814.184 1139.2 811.661 1124.01 z M 926.856 1332.71 C 945.722 1343.82 972.02 1356.55 991.924 1366.84 C 985.206 1356.75 959.41 1322.12 951.281 1314.57 C 950.851 1315.44 950.324 1316.5 949.703 1317.76 C 942.884 1321.5 933.067 1329.23 926.856 1332.71 z M 1057.32 1366.99 C 1069.22 1360.87 1081.64 1354.67 1093.21 1348.04 C 1084.35 1345.9 1079.91 1346.9 1079.28 1337.2 C 1070.97 1346.39 1064.05 1356.63 1057.32 1366.99 z"/>
<path transform="translate(0,0)" fill="rgb(254,254,254)" d="M 1237.83 1196.07 C 1247.79 1199.12 1246.63 1209.82 1247.54 1218.98 C 1244.06 1229.19 1240.11 1243.07 1233.62 1251.63 C 1204.98 1289.36 1136.67 1326.83 1094.35 1347.48 L 1093.21 1348.04 C 1084.35 1345.9 1079.91 1346.9 1079.28 1337.2 C 1097.64 1307.71 1141.84 1267.04 1170.73 1247.67 C 1195.87 1230.82 1217.33 1219.81 1237.83 1196.07 z"/>
<path transform="translate(0,0)" fill="rgb(254,254,254)" d="M 809.975 1194.9 C 829.086 1218.52 852.086 1230.34 876.596 1246.68 C 897.536 1260.64 937.556 1293.63 951.281 1314.57 C 950.851 1315.44 950.324 1316.5 949.703 1317.76 C 942.884 1321.5 933.067 1329.23 926.856 1332.71 C 888.567 1314.09 838.595 1283.06 813.013 1248.46 C 807.912 1241.57 803.804 1226.81 801.011 1218.34 C 800.353 1208.62 800.766 1199.94 809.975 1194.9 z"/>
<path transform="translate(0,0)" fill="rgb(0,0,0)" d="M 969.795 1018.07 C 990.025 1015.62 1001.25 1029.02 1023.64 1031.02 C 1039.97 1032.47 1065.14 1011.27 1080.28 1020.04 C 1080.61 1020.23 1086.63 1030.09 1087.88 1031.59 C 1106.61 1054.2 1108.25 1074.71 1108 1102.93 L 1091.5 1102.92 L 940.302 1102.93 C 939.668 1055.41 947.164 1053.54 969.795 1018.07 z"/>
</svg>