<svg version="1.1" xmlns="http://www.w3.org/2000/svg" style="display: block;" viewBox="0 0 2048 1638" width="1920" height="1536" preserveAspectRatio="none">
<defs>
	<linearGradient id="Gradient1" gradientUnits="userSpaceOnUse" x1="1497.91" y1="1324.95" x2="1478.25" y2="1328.1">
		<stop class="stop0" offset="0" stop-opacity="0" stop-color="rgb(254,252,255)"/>
		<stop class="stop1" offset="1" stop-opacity="0.0627451" stop-color="rgb(255,255,255)"/>
	</linearGradient>
</defs>
<path transform="translate(0,0)" fill="rgb(0,0,0)" d="M 98.6502 500.01 C 93.1933 490.523 88.098 492.612 85.5591 485.583 C 84.2622 481.992 87.4747 474.896 89.9431 471.78 C 106.003 451.505 128.502 430.245 149.369 415.184 C 273.37 325.687 433.939 286.881 581.685 260.53 C 584.828 261.946 595.467 268.107 598.109 270.468 C 606.015 277.532 605.883 281.109 606.49 290.593 C 613.127 296.592 631.791 306.775 634.853 312.288 C 642.445 325.959 650.42 347.182 656.58 361.976 C 666.29 385.193 676.128 408.357 686.092 431.466 C 693.625 449.275 701.402 468.914 709.97 486.066 C 736.357 485.532 743.655 476.8 764.297 498.922 C 765.469 508.268 767.103 549.545 764.584 557.147 C 761.005 560.693 758.9 562.589 754.932 565.729 L 766.035 574.845 C 766.053 582.113 766.169 589.588 766.064 596.836 L 758.587 601.499 C 759.476 625.307 768.592 620.823 774.219 636.854 C 788.4 677.257 800.38 718.273 814.884 758.677 C 838.916 757.808 862.924 757.487 886.941 756.08 C 892.733 755.74 899.422 755.23 905.185 755.316 C 919.711 764.299 947.258 791.55 961.882 803.549 C 981.729 802.971 1016.19 803.889 1034.21 801.764 C 1034.67 799.789 1044.23 793.234 1047.25 789.242 C 1045.3 785.815 1045.97 766.213 1045.96 761.01 C 1059.54 760.849 1073.25 761.365 1086.85 761.195 C 1101.24 761.016 1102 759.9 1103.34 746.09 L 1123.21 745.997 C 1122.81 760.033 1122.72 774.076 1122.93 788.116 C 1134.41 786.617 1154.63 787.912 1168.5 786.657 C 1168.21 776.01 1171.63 720.808 1175.08 714.025 C 1181.44 710.007 1230.61 711.555 1240.55 711.609 C 1318.45 712.427 1396.3 715.725 1473.99 721.496 C 1577.04 728.884 1681.65 739.353 1783.36 762.641 C 1831.64 773.697 1927.14 800.234 1962.21 841.835 C 1970.6 860.667 1966.23 889.012 1967.64 909.119 C 1968.74 925.012 1972.28 937.817 1972.39 951.006 C 1972.91 1014.3 1973.28 1077.08 1974.09 1140.32 C 1974.23 1150.85 1980.99 1160.5 1980.82 1171.06 C 1980.01 1185.2 1975.62 1200 1975.43 1214.54 C 1975.21 1232.04 1975.63 1249.61 1975.81 1267.1 L 1976.31 1341.18 C 2000.21 1341.19 2024.1 1341.35 2048 1341.68 L 2048 1375.04 L 684.21 1374.77 L 223.365 1374.76 L 76.6838 1374.79 C 51.2157 1374.8 25.3905 1375.41 0 1374.77 L 0 1341.56 C 24.8537 1340.49 51.9141 1342.99 76.2751 1341.03 C 75.8796 1308.81 77.5076 1275.45 77.1394 1243.16 C 77.0297 1233.53 77.9972 1209.94 76.7151 1201.51 C 75.9522 1196.72 74.2649 1192.13 71.7476 1188 C 70.8609 1186.51 70.0552 1185.08 69.2004 1183.58 C 66.5108 1176.91 65.9162 1175.04 67.7596 1167.99 C 68.545 1164.49 70.5099 1160.96 71.4617 1157.28 C 73.148 1150.77 72.924 1143.29 72.9318 1136.55 C 76.9801 1130.62 78.5297 1127.63 78.9746 1120.2 C 79.752 1107.21 79.5598 1094.11 79.6455 1081.1 L 80.1553 999.738 C 63.4022 977.931 63.493 972.881 83.1209 953.27 C 80.7749 949.565 80.6627 946.755 79.9192 942.428 C 80.6905 930.888 84.5721 915.335 84.7507 905.581 C 85.3681 871.852 84.8411 837.336 84.6489 803.588 C 79.014 795.878 73.9195 790.374 73.1878 780.284 C 71.857 761.932 86.8017 745.3 97.7823 732.324 C 95.4979 733.26 93.1902 734.137 90.8614 734.957 C 87.6736 733.813 88.6205 733.983 86.4624 730.048 C 85.1534 700.613 89.313 662.112 85.3138 632.128 C 85.1262 630.721 81.2728 624.281 80.5511 622.779 C 74.0257 609.195 84.827 613.041 86.6076 605.48 C 88.1453 598.95 81.3235 587.325 78.3385 581.476 C 86.8371 572.557 84.9195 569.21 81.8456 557.918 C 98.7314 546.155 101.916 540.687 100.101 519.393 C 99.573 513.206 99.1459 506.279 98.6502 500.01 z M 1320.75 1066.17 L 1381.52 1066.47 C 1392.73 1066.47 1404.65 1065.81 1415.7 1066.29 C 1415.97 1089.94 1417.39 1114.52 1416.29 1138.08 C 1416 1144.3 1411.91 1149.85 1412.22 1155.97 C 1412.69 1165.25 1441.13 1250.96 1446.47 1262.14 C 1448.27 1258.76 1448.31 1258.54 1451.23 1256.21 C 1454.44 1256.13 1453.24 1255.91 1456.32 1258.67 C 1460.41 1267.97 1456.11 1277.55 1464.86 1279.43 C 1469.95 1286.11 1463.31 1295.75 1473.31 1295.04 C 1464.08 1266.13 1454.54 1237.31 1444.7 1208.6 C 1442.73 1202.69 1428.75 1161.81 1429.16 1159.48 C 1433.11 1137.17 1430.5 1104.42 1431.42 1081.82 C 1436.1 1081.25 1441.35 1081.3 1446.11 1081.2 C 1445.5 1055.02 1446.06 1028.28 1446.1 1002.04 C 1446.15 976.086 1450.97 933.415 1412.48 932.839 C 1403.65 932.688 1395.14 936.139 1388.9 942.398 C 1374.92 956.631 1377.69 979.272 1377.77 997.675 L 1377.91 1049.89 C 1365.17 1050.47 1349.4 1050.04 1336.43 1050.03 C 1335.74 1032.4 1336.44 1014.68 1336.52 996.768 C 1336.61 976.297 1339.2 952.249 1319.65 938.992 C 1310.47 932.765 1300.5 932.903 1290.08 934.976 C 1285.16 923.608 1277.45 903.318 1273.8 891.744 C 1268.51 887.339 1264.42 884.905 1261.34 878.849 C 1259.61 882.895 1257.29 887.762 1258.46 892.07 C 1263.52 910.702 1271.7 930.917 1278.31 949.061 C 1292.66 988.021 1306.81 1027.06 1320.75 1066.17 z M 1099.14 1196.13 C 1111.82 1234.56 1127.99 1272.52 1141.25 1310.81 C 1144.64 1320.6 1148.66 1331.88 1153 1341.17 C 1171.53 1341.39 1190.54 1341.18 1209.12 1341.18 L 1209.13 1265.48 C 1209.18 1253.98 1209.95 1228.87 1208.03 1218.55 C 1206.62 1210.53 1203.24 1202.98 1198.19 1196.59 C 1181.57 1175.75 1148.97 1172.91 1127.87 1188.49 C 1124.02 1191.33 1120.31 1198.16 1115.63 1197.42 L 1113.59 1192.83 C 1108.91 1194.17 1103.93 1195.93 1099.14 1196.13 z M 1552.06 1341.17 C 1552.04 1303.22 1552.36 1265.29 1551.93 1227.34 C 1551.72 1208.93 1538.7 1187.84 1518.6 1189.22 C 1510.15 1189.8 1502.27 1193.71 1496.7 1200.1 C 1485.55 1212.91 1486.86 1236.46 1487.35 1252.62 C 1488.16 1279.56 1486.38 1308.52 1488.29 1335.16 L 1486.91 1334.59 C 1481.98 1332.47 1475.71 1332.96 1470.29 1332.96 C 1471.44 1336.46 1471.7 1338.85 1474.67 1340.77 C 1478.84 1341.81 1481.96 1341.27 1486.25 1340.95 C 1506.31 1341.91 1531.6 1341.2 1552.06 1341.17 z M 963.552 946.057 C 957.977 948.296 953.777 948.874 949.204 952.462 C 952.131 962.562 956.513 974.085 960.026 984.237 C 965.626 1000.42 971.384 1021.53 979.14 1036.53 C 1001.75 1036.8 1025.25 1035.95 1048.08 1035.93 C 1050.51 1029.26 1050.23 1026.84 1050.19 1019.85 C 1048.96 992.63 1055.89 950.371 1038.39 931.565 C 1031.57 924.155 1022.03 919.83 1011.96 919.581 C 995.98 919.201 981.275 928.201 975.245 943.114 C 971.556 952.237 971.755 959.331 971.581 968.949 C 968.846 961.339 966.169 953.709 963.552 946.057 z M 121.17 928.028 C 134.929 921.631 149.594 914.328 163.858 909.414 C 297.325 863.433 443.017 845.905 582.61 830.875 C 586.481 823.643 586.243 826.4 590.08 816.48 C 571.823 816.591 527.164 823.037 507.289 825.454 C 403.442 838.085 204.151 866.385 115.335 918.112 C 119.627 920.038 118.895 918.96 121.013 922.354 L 121.17 928.028 z M 593.651 571.42 C 642.502 565.025 691.499 559.798 740.6 555.743 C 745.017 558.479 750.579 562.648 754.932 565.729 C 758.9 562.589 761.005 560.693 764.584 557.147 C 767.103 549.545 765.469 508.268 764.297 498.922 C 743.655 476.8 736.357 485.532 709.97 486.066 C 701.402 468.914 693.625 449.275 686.092 431.466 C 676.128 408.357 666.29 385.193 656.58 361.976 C 650.42 347.182 642.445 325.959 634.853 312.288 C 631.791 306.775 613.127 296.592 606.49 290.593 C 605.883 281.109 606.015 277.532 598.109 270.468 C 595.467 268.107 584.828 261.946 581.685 260.53 C 433.939 286.881 273.37 325.687 149.369 415.184 C 128.502 430.245 106.003 451.505 89.9431 471.78 C 87.4747 474.896 84.2622 481.992 85.5591 485.583 C 88.098 492.612 93.1933 490.523 98.6502 500.01 C 99.1459 506.279 99.573 513.206 100.101 519.393 C 101.916 540.687 98.7314 546.155 81.8456 557.918 C 84.9195 569.21 86.8371 572.557 78.3385 581.476 C 81.3235 587.325 88.1453 598.95 86.6076 605.48 C 84.827 613.041 74.0257 609.195 80.5511 622.779 C 81.2728 624.281 85.1262 630.721 85.3138 632.128 C 89.313 662.112 85.1534 700.613 86.4624 730.048 C 88.6205 733.983 87.6736 733.813 90.8614 734.957 C 93.1902 734.137 95.4979 733.26 97.7823 732.324 C 98.0313 732.18 133.907 703.206 134.246 702.832 C 143.668 699.225 157.085 688.974 166.945 684.065 C 299.144 618.239 449.025 592.065 593.651 571.42 z M 922.095 1341.23 L 983.744 1341.21 L 1025.64 1341.12 L 1025.74 1258.86 C 1025.77 1239.38 1027.88 1215.31 1021.09 1197.04 C 1012.95 1175.17 995.079 1164.53 972.005 1164.97 C 970.47 1164.98 968.938 1165.08 967.413 1165.24 C 915.189 1174.04 921.721 1221.76 921.91 1262.74 C 922.031 1288.84 921.703 1315.13 922.095 1341.23 z M 757.827 1341.23 L 816.785 1341.22 C 830.389 1341.21 845.111 1341.47 858.624 1341.07 L 858.736 1258.86 C 858.757 1231.99 863.091 1201.53 842.294 1180.76 C 832.816 1171.29 821.797 1166.99 808.451 1166.98 C 806.127 1166.96 803.804 1167.03 801.485 1167.18 C 786.884 1170.05 775.957 1176.03 767.494 1188.71 C 762.962 1195.58 759.939 1203.34 758.626 1211.46 C 756.906 1221.83 757.614 1250.12 757.702 1261.6 C 757.905 1288.03 757.516 1314.83 757.827 1341.23 z M 758.031 1041.98 C 776.925 1041.45 796.832 1040.25 815.537 1040 C 829.634 1039.62 844.081 1038.93 858.122 1038.82 C 859.226 1018.43 858.612 995.013 858.751 974.364 C 858.845 960.228 859.699 933.389 857.195 921.074 C 855.304 911.282 850.853 902.166 844.294 894.653 C 833.148 882.1 817.344 877.59 800.942 880.217 C 786.954 883.079 775.252 889.819 767.24 901.861 C 762.868 908.535 759.968 916.064 758.732 923.947 C 756.996 934.553 757.657 966.083 757.844 977.922 C 758.171 998.593 757.263 1021.67 758.031 1041.98 z M 604.109 1341.16 L 651.75 1341.2 L 694.839 1341.18 L 694.831 1260.29 C 694.85 1234.54 699.177 1202.63 679.243 1183.03 C 671.23 1175.26 660.467 1170.98 649.307 1171.12 C 648.515 1171.17 647.723 1171.22 646.931 1171.28 C 597.764 1179.22 603.345 1228.28 603.874 1265.88 C 604.225 1290.9 603.565 1316.14 604.109 1341.16 z M 1268.68 1341.2 L 1318.5 1341.23 L 1362.99 1341.12 L 1362.97 1264.31 C 1362.97 1246.29 1365.06 1224.2 1358.55 1207.38 C 1351.19 1188.38 1334.25 1179.43 1314.34 1179.35 C 1260.23 1184.32 1268.34 1230.66 1268.32 1271.49 C 1268.31 1294.43 1267.72 1318.35 1268.68 1341.2 z M 604.238 1049.27 L 654.248 1046.67 C 667.1 1046 684.297 1045.64 696.763 1044.31 C 697.01 1021.17 697.074 998.034 696.956 974.897 C 696.921 936.823 700.747 883.778 645.066 889.114 C 597.771 901.784 603.685 940.757 603.937 980.26 C 604.084 1003.17 603.518 1026.36 604.238 1049.27 z M 605.032 775.666 C 620.57 774.23 639.527 773.078 654.773 771.181 C 669.36 770.057 683.929 768.711 698.475 767.143 C 698.295 746.861 698.337 726.578 698.602 706.297 C 698.896 668.633 702.325 622.212 649.583 624.132 C 634.079 627.646 622.408 634.161 613.664 647.944 C 609.716 654.18 607.065 661.148 605.87 668.431 C 604.255 677.754 604.825 699.448 604.865 709.726 L 605.032 775.666 z M 1811.67 1341.19 L 1838.5 1341.23 L 1856.4 1341.16 L 1856.34 1275.71 C 1856.3 1255.23 1860.99 1204.23 1829.1 1205.96 C 1820.44 1210.71 1816.56 1216.51 1813.89 1225.96 C 1808.66 1244.39 1811.57 1317.83 1811.67 1341.19 z M 1893.94 1213.83 C 1878.45 1226.85 1882.36 1258.6 1882.59 1277.5 L 1883.27 1341.2 L 1902.09 1341.28 L 1913.81 1341.2 L 1913.79 1278.45 C 1913.78 1261.74 1918.37 1213.83 1893.94 1213.83 z M 175.185 1341.27 L 201.25 1341.22 L 219.087 1341.18 L 219.698 1279.4 C 219.967 1258.29 225.606 1204.84 196.285 1202.06 C 174.483 1209.57 174.467 1244.06 174.979 1263.11 C 175.664 1288.61 173.764 1315.96 175.185 1341.27 z M 195.754 854.644 C 204.779 851.455 214.4 848.344 222.958 844.149 L 223.061 788.553 C 223.071 770.692 227.189 726.911 200.38 726.98 C 191.29 730.751 185.815 736.354 182.029 745.449 C 174.473 763.601 176.535 838.147 177.409 861.014 C 184.108 859.024 189.218 857.166 195.754 854.644 z M 1829.76 1118.69 C 1838.41 1119.28 1845.26 1119.89 1853.78 1121.82 C 1857.3 1122.05 1859.73 1122.7 1862.5 1120.78 C 1865.53 1112.14 1862.31 1023.23 1862.62 1007.33 C 1862.69 1003.94 1860.21 990.375 1858.02 986.636 C 1855.43 982.213 1853.04 978.397 1847.71 976.556 C 1845.08 975.649 1842.59 975.786 1839.95 975.95 C 1826.66 985.126 1827.67 1003.87 1828.44 1018.53 C 1830.13 1050.76 1826.95 1086.88 1829.76 1118.69 z M 1907.88 1130.28 L 1912.57 1130.92 C 1912.97 1130.45 1913.37 1129.99 1913.77 1129.52 C 1913.63 1097.12 1913.18 1065.33 1913.23 1032.86 C 1913.25 1020.11 1913.97 1000 1903.85 989.983 C 1900.94 987.104 1897.98 986.769 1894.01 986.619 C 1891.15 989.101 1888.17 991.803 1887.07 995.51 C 1881.86 1012.95 1883.97 1035.81 1884.32 1054 C 1884.81 1077.8 1885.13 1101.6 1885.29 1125.41 C 1893.31 1127.56 1899.78 1128.79 1907.88 1130.28 z M 1645.21 1103.37 L 1644.82 1020.42 C 1644.81 1000.68 1648.78 967.874 1634.23 953.094 C 1628.79 947.551 1621.28 944.536 1613.51 944.777 C 1611.74 944.824 1609.94 945.019 1608.17 945.228 C 1600.37 948.024 1595.32 951.826 1591.53 959.468 C 1582.82 977.027 1587.75 1072.26 1587.97 1099.49 C 1603.15 1103.2 1611.84 1101 1625.76 1102.69 C 1632.58 1103.16 1638.34 1103.61 1645.21 1103.37 z M 115.171 1112.93 L 128.246 1109.31 C 134.402 1107.38 142.719 1105.04 148.564 1102.72 C 150.182 1070.92 148.935 1034.63 148.161 1002.57 C 147.898 991.654 144.084 977.928 130.87 977.908 C 123.423 982.195 120.284 988.444 118.081 996.45 C 112.415 1017.04 115.159 1087.32 115.171 1112.93 z M 1938.08 1000.45 C 1934.34 1004.71 1932.63 1007.28 1931.49 1013.04 C 1929.51 1023.07 1929.82 1033.37 1929.94 1043.53 C 1930.27 1072.41 1931.11 1101.27 1931.3 1130.15 C 1931.31 1131.53 1931.53 1132.95 1931.69 1134.33 L 1947.75 1139.47 L 1951.01 1140.11 C 1952.53 1139.02 1953.34 1138.8 1953.37 1136.46 C 1953.89 1099.02 1954.6 1060.87 1952.19 1023.51 C 1951.6 1014.44 1948.74 1001.75 1938.08 1000.45 z M 175.99 1096.48 C 183.324 1095.47 189.558 1094.21 196.762 1092.7 C 201.095 1091.76 216.704 1089.77 218.977 1086.13 C 221.222 1082.53 221.286 998.584 220.717 987.959 C 220.389 981.825 219.55 975.59 217.653 969.73 C 215.657 963.562 212.163 957.367 206.21 954.288 C 203.342 952.805 200.358 952.739 197.212 952.955 C 188.213 957.169 183.312 963.057 179.993 972.368 C 173.317 991.094 175.422 1073.08 175.99 1096.48 z M 1680.14 1105.9 C 1690.67 1106.28 1702.38 1106.47 1712.76 1107.81 C 1717.92 1108.31 1722.74 1109.21 1727.69 1107.99 C 1730.85 1104.22 1729.7 1085.81 1729.64 1080.23 C 1729.29 1048.89 1729.66 1017.39 1728.78 986.078 C 1728.28 968.112 1717.81 950.218 1698.2 952.081 C 1690.42 955.45 1684.65 959.303 1681.43 967.592 C 1675.93 981.71 1678.15 1085.95 1680.14 1105.9 z M 1514.03 839.29 C 1486.85 843.621 1485.4 860.615 1485.71 884.479 C 1485.83 893.735 1485.11 903.703 1488.58 912.481 C 1495.22 916.049 1515.34 915.26 1524.13 915.841 C 1529.88 916.144 1543.68 917.882 1547.72 914.827 C 1550.27 906.61 1548.85 900.737 1549.53 892.731 C 1551.55 869.048 1546.74 835.614 1514.03 839.29 z M 133.358 1341.24 L 147.993 1341.15 L 148.2 1278.67 C 148.238 1261.7 153.033 1216.18 129.115 1214.9 C 120.995 1220.14 116.706 1228.45 115.94 1237.86 C 113.227 1271.19 114.118 1307.95 114.357 1341.22 L 133.358 1341.24 z M 1803.1 1115.63 L 1802.85 1034.52 C 1802.72 1012.58 1808.16 965.015 1778.78 961.133 C 1767.75 963.6 1761.95 970.601 1760.94 982.121 C 1758.76 1006.76 1760.53 1031.87 1760.24 1056.61 C 1760.28 1067.81 1760.05 1099.47 1761.7 1109.07 C 1766.27 1113.66 1779.78 1112.61 1786.7 1114.15 C 1792.68 1114.92 1797.09 1115.42 1803.1 1115.63 z M 1903.82 870.287 L 1903.95 828.679 C 1899.25 826.242 1893.84 823.271 1889.02 821.273 L 1889.32 864.631 L 1903.82 870.287 z M 1386.98 745.988 L 1387.04 798.241 C 1399.35 798.842 1411.67 799.244 1423.99 799.447 L 1423.99 747.395 C 1411.55 746.648 1399.46 745.793 1386.98 745.988 z M 151.013 870.85 C 151.079 851.051 155.274 778.592 143.495 766.507 C 141.074 764.024 137.581 763.792 134.294 763.905 C 133.897 763.919 133.499 763.946 133.102 763.966 C 114.255 778.754 117.678 806.343 117.734 828.013 L 117.905 888.765 C 123.007 886.222 127.579 884.04 132.392 880.96 L 151.013 870.85 z M 1627.34 763.653 C 1617.09 762.222 1607.71 761.007 1597.41 760.075 L 1597.32 811.265 L 1627.29 814.374 C 1627.41 797.502 1627.15 780.456 1627.34 763.653 z M 1838.86 882.929 C 1823.45 895.159 1827.55 927.302 1829.08 945.441 C 1837.73 948.342 1845.15 949.82 1853.44 952.356 C 1857.62 953.008 1857.72 953.693 1861.14 952.442 C 1862.1 948.211 1862.34 942.356 1862.15 938.033 C 1861.38 919.803 1865.92 883.338 1838.86 882.929 z M 1933.15 1341.2 L 1946.11 1341.24 C 1948.9 1341.25 1952.62 1341.69 1954.76 1340.22 C 1955.84 1323.36 1957.81 1232.92 1949.16 1223.57 C 1947 1221.24 1943.76 1221.06 1940.78 1220.68 C 1929.3 1231.33 1932.38 1258.57 1932.54 1273.55 C 1932.77 1296.1 1933.06 1318.64 1933.15 1341.2 z M 1788.67 796.709 C 1780.91 794.553 1776.29 793.154 1768.31 792.544 C 1768.14 814.19 1768.17 835.836 1768.4 857.481 C 1773.84 858.612 1782.22 860.64 1787.52 860.823 L 1789.05 859.808 C 1789.03 839.669 1787.96 816.373 1788.67 796.709 z M 504.694 901.162 C 461.139 914.143 467.313 954.637 467.448 991.225 C 467.305 1013.93 467.497 1036.63 468.025 1059.33 C 480.022 1058.27 496.974 1056.24 508.62 1055.88 C 521.634 1054.73 536.741 1053.14 549.77 1052.77 C 550.021 1029.64 550.092 1006.52 549.985 983.395 C 549.961 959.471 553.539 929.756 535.709 911.044 C 529.692 904.73 519.702 900.625 510.967 900.78 C 508.872 900.83 506.779 900.957 504.694 901.162 z M 255.233 835.737 C 263.113 833.978 270.965 832.096 278.786 830.091 C 290.156 827.366 302.76 824.58 313.89 821.141 L 314.024 759.909 C 314.07 738.432 319.078 696.101 286.706 696.195 C 250.662 704.037 254.502 749.887 254.877 778.011 C 255.131 797.136 254.52 816.665 255.233 835.737 z M 424.217 798.636 L 424.452 737.11 C 424.526 710.737 429.146 671.639 392.142 669.217 C 348.956 677.434 351.827 716.234 351.826 750.604 L 351.843 813.233 C 360.947 811.371 370.075 809.62 379.222 807.982 C 391.557 805.843 413.276 802.567 424.217 798.636 z M 1146.38 911.289 C 1090.83 926.859 1105.13 973.72 1103.2 1019.06 C 1102.94 1025.07 1102.76 1031.94 1103.14 1037.89 C 1123.67 1038.02 1144.21 1038.04 1164.75 1037.95 L 1209.36 1037.84 L 1209.35 994.085 C 1209.43 969.468 1212.36 943.984 1193.31 925.384 C 1182.64 914.969 1170.36 910.765 1155.6 910.878 C 1152.52 910.929 1149.45 911.066 1146.38 911.289 z M 385.238 1066.85 L 418.968 1063.68 C 420.12 1053.93 420.289 1042.31 419.988 1032.48 C 419.137 1004.68 421.506 976.111 418.943 948.489 C 417.565 933.645 406.069 917.695 390.364 916.301 C 388.138 916.105 385.9 916.09 383.672 916.257 C 340.553 927.769 350.695 975.993 349.651 1010.39 C 349.108 1028.3 348.433 1052.69 349.792 1070.44 C 361.579 1068.98 373.397 1067.78 385.238 1066.85 z M 1709.97 1341.19 L 1748.5 1341.2 L 1770.8 1341.18 L 1770.86 1273.18 C 1770.91 1248.55 1775.58 1197.18 1737.01 1198.73 C 1735.65 1198.79 1734.3 1198.92 1732.97 1199.13 C 1724.68 1202.78 1717.77 1207.58 1714.28 1216.41 C 1706.18 1236.94 1709.84 1314.42 1709.97 1341.19 z M 469.923 792.923 L 507.233 787.863 C 520.054 786.178 541.953 782.412 554.002 781.694 L 554.026 717.319 C 554.043 686.706 557.655 641.106 511.684 645.189 C 467.674 654.419 469.83 690.366 469.874 725.842 L 469.923 792.923 z M 252.729 1082.85 L 278.912 1079.26 C 288.835 1077.92 301.253 1076.58 310.719 1074.19 C 311.484 1046.28 310.75 1018.34 311.125 990.427 C 311.284 978.601 311.761 966.593 308.035 955.216 C 303.87 942.173 294.056 931.854 279.379 933.088 C 263.439 939.763 252.97 955.271 253.188 972.089 C 253.638 1006.79 249.895 1048.79 252.729 1082.85 z M 1488.56 1097.5 C 1501.2 1098.16 1513.85 1098.67 1526.5 1099.04 C 1534.32 1099.33 1542.64 1099.78 1550.42 1099.91 C 1550.53 1072.62 1550.49 1045.33 1550.29 1018.05 C 1550.2 997.602 1554.08 966.496 1538.97 951.213 C 1532.87 945.054 1524.47 941.733 1515.81 942.059 C 1515.32 942.087 1514.84 942.115 1514.36 942.144 C 1498.2 945.536 1488.46 955.134 1486.96 972.061 C 1485.01 994.153 1487.07 1016.75 1486.85 1038.94 C 1487.01 1053.43 1486.01 1084.59 1488.56 1097.5 z M 277.329 1193.06 C 242.636 1207.9 253.939 1257.39 252.19 1288.51 C 251.365 1303.18 251.58 1326.53 252.65 1341.17 L 284.5 1341.21 L 309.057 1341.18 L 308.938 1271.34 C 309.051 1248 315.178 1190.63 277.329 1193.06 z M 349.838 1341.2 L 387.467 1341.17 L 418.046 1341.09 L 418.113 1267.68 C 418.271 1240.75 424.476 1184.73 382.861 1185.3 C 344.131 1192.01 349.753 1238.79 349.875 1267.88 L 349.838 1341.2 z M 1632.75 1341.2 L 1658.97 1341.18 L 1658.97 1269.53 C 1659 1240.28 1664.92 1190.09 1620.37 1193.2 C 1588.12 1204.58 1594.73 1237.57 1594.8 1265.89 L 1595.04 1341.2 L 1632.75 1341.2 z M 502.868 1178.14 C 462.454 1187.56 467.741 1229.56 467.796 1261.5 L 467.913 1341.2 L 514.5 1341.16 L 547.822 1341.13 L 547.972 1263.09 C 548.048 1232.63 552.476 1177.59 506.532 1178.05 C 505.31 1178.06 504.089 1178.09 502.868 1178.14 z"/>
<path transform="translate(0,0)" fill="url(#Gradient1)" d="M 1488.29 1335.16 L 1488.9 1335.32 C 1488.94 1330.49 1488.66 1316.77 1489.77 1312.84 L 1490.72 1312.3 C 1491.45 1320.95 1489.46 1329.37 1493.44 1337.12 C 1496.47 1338.5 1496.47 1338.42 1499.83 1338.87 C 1494.82 1339.71 1492.54 1340.04 1487.39 1340.2 L 1486.25 1340.95 C 1481.96 1341.27 1478.84 1341.81 1474.67 1340.77 C 1471.7 1338.85 1471.44 1336.46 1470.29 1332.96 C 1475.71 1332.96 1481.98 1332.47 1486.91 1334.59 L 1488.29 1335.16 z"/>
<path transform="translate(0,0)" fill="rgb(0,0,0)" d="M 98.6502 500.01 C 93.1933 490.523 88.098 492.612 85.5591 485.583 C 84.2622 481.992 87.4747 474.896 89.9431 471.78 C 106.003 451.505 128.502 430.245 149.369 415.184 C 273.37 325.687 433.939 286.881 581.685 260.53 C 584.828 261.946 595.467 268.107 598.109 270.468 C 606.015 277.532 605.883 281.109 606.49 290.593 C 613.127 296.592 631.791 306.775 634.853 312.288 C 642.445 325.959 650.42 347.182 656.58 361.976 C 666.29 385.193 676.128 408.357 686.092 431.466 C 693.625 449.275 701.402 468.914 709.97 486.066 C 736.357 485.532 743.655 476.8 764.297 498.922 C 765.469 508.268 767.103 549.545 764.584 557.147 C 761.005 560.693 758.9 562.589 754.932 565.729 C 750.579 562.648 745.017 558.479 740.6 555.743 C 691.499 559.798 642.502 565.025 593.651 571.42 C 594.963 560.112 593.662 562.065 603.223 557.001 C 586.691 556.73 540.424 565.285 522.588 568.23 C 410.688 586.704 295.705 612.98 191.763 659.085 C 173.824 667.041 144.995 681.809 129.823 694.151 C 133.952 693.7 134.122 692.969 137.126 694.539 C 137.074 698.297 135.437 699.377 134.246 702.832 C 133.907 703.206 98.0313 732.18 97.7823 732.324 C 95.4979 733.26 93.1902 734.137 90.8614 734.957 C 87.6736 733.813 88.6205 733.983 86.4624 730.048 C 85.1534 700.613 89.313 662.112 85.3138 632.128 C 85.1262 630.721 81.2728 624.281 80.5511 622.779 C 74.0257 609.195 84.827 613.041 86.6076 605.48 C 88.1453 598.95 81.3235 587.325 78.3385 581.476 C 86.8371 572.557 84.9195 569.21 81.8456 557.918 C 98.7314 546.155 101.916 540.687 100.101 519.393 C 99.573 513.206 99.1459 506.279 98.6502 500.01 z M 372.404 441.885 C 372.363 450.505 371.827 490.251 373.205 496.666 L 405.95 487.566 C 406.019 479.654 406.79 439.221 405.835 433.756 L 405.215 433.19 L 372.404 441.885 z M 291.908 593.24 L 275.676 598.85 C 275.66 603.004 275.232 615.27 276.339 618.538 L 276.747 618.933 C 281.802 616.948 287.93 614.728 292.667 612.283 C 292.755 608.607 293.517 595.559 291.908 593.24 z M 520.744 537.455 C 512.131 538.161 506.09 538.824 497.629 540.691 C 497.513 546.864 497.007 555.551 498.182 561.392 C 499.89 563.017 498.881 562.596 501.016 563.126 C 506.444 562.486 516.347 561.719 521.019 559.74 C 523.604 556.287 524.212 540.113 521.998 537.274 L 520.744 537.455 z M 187.52 569.345 C 190.327 569.559 206.9 561.13 210.605 559.27 C 210.641 553.306 211.535 506.737 209.863 505.023 C 202.552 509.001 194.871 513.352 187.523 517.166 C 187.417 534.559 187.416 551.952 187.52 569.345 z"/>
<path transform="translate(0,0)" fill="rgb(253,253,254)" d="M 603.223 557.001 C 612.015 552.799 728.51 542.694 743.012 541.989 C 750.617 546.914 757.296 551.803 764.584 557.147 C 761.005 560.693 758.9 562.589 754.932 565.729 C 750.579 562.648 745.017 558.479 740.6 555.743 C 691.499 559.798 642.502 565.025 593.651 571.42 C 594.963 560.112 593.662 562.065 603.223 557.001 z"/>
<path transform="translate(0,0)" fill="rgb(253,253,254)" d="M 129.823 694.151 C 133.952 693.7 134.122 692.969 137.126 694.539 C 137.074 698.297 135.437 699.377 134.246 702.832 C 133.907 703.206 98.0313 732.18 97.7823 732.324 C 95.4979 733.26 93.1902 734.137 90.8614 734.957 C 87.6736 733.813 88.6205 733.983 86.4624 730.048 C 95.1613 720.815 119.114 699.699 129.823 694.151 z"/>
<path transform="translate(0,0)" fill="rgb(253,253,254)" d="M 1050.19 1019.85 C 1070.72 1019.57 1088.51 1021.18 1099.9 1041.58 C 1100.42 1055.75 1100.29 1071.52 1101.15 1085.43 C 1102.09 1100.56 1106.94 1116.08 1104.47 1132.41 C 1104 1135.47 1099.37 1142.6 1097.66 1145.76 C 1102.67 1161.44 1108.82 1177.55 1113.59 1192.83 C 1108.91 1194.17 1103.93 1195.93 1099.14 1196.13 C 1093.98 1181.83 1086.16 1165.04 1082.97 1150.52 C 1080.77 1140.48 1084.23 1135.24 1089.62 1127.74 L 1089.73 1108.73 C 1085.65 1102.46 1082.11 1100.4 1075.99 1096.54 C 1048.14 1096.11 1017.12 1097.02 989.07 1097.33 C 925.981 1097.91 862.897 1099.01 799.826 1100.64 C 706.83 1102.67 613.881 1106.51 521.035 1112.16 C 411.904 1117.57 303.096 1128.22 194.989 1144.08 C 190.408 1141.97 185.816 1141.17 185.856 1135.68 C 190.188 1131.08 209.923 1128.85 216.679 1127.75 C 248.222 1122.63 279.919 1118.51 311.722 1115.38 C 532.822 1092.18 751.28 1085.82 973.257 1082.72 C 998.752 1082.34 1024.25 1082.1 1049.75 1082.02 C 1058.92 1081.97 1068.08 1081.49 1077.21 1081.69 C 1080.83 1081.77 1082 1084.62 1085.5 1083.47 C 1087.22 1075.55 1085.87 1049.35 1081.44 1041.73 C 1070.94 1034.45 1060.37 1035.73 1048.08 1035.93 C 1050.51 1029.26 1050.23 1026.84 1050.19 1019.85 z"/>
<path transform="translate(0,0)" fill="rgb(253,253,254)" d="M 590.08 816.48 C 617.087 812.858 647.101 810.998 674.506 809.372 C 751.027 804.83 830.154 797.261 906.727 796.946 C 917.763 804.199 933.403 812.479 940.005 823.111 C 940.688 841.654 942.308 851.435 934.844 868.622 C 942.347 885.023 959.09 928.373 963.552 946.057 C 957.977 948.296 953.777 948.874 949.204 952.462 C 945.581 945.12 938.703 919.957 934.796 910.073 C 930.978 897.715 924.665 884.805 920.668 872.653 C 917.609 863.355 917.468 859.864 924.103 854.099 C 927.263 851.354 926.083 832.166 925.996 827.282 C 920.234 821.61 912.34 816.297 905.636 811.668 C 801.84 812.848 686.217 822.559 582.61 830.875 C 586.481 823.643 586.243 826.4 590.08 816.48 z"/>
<path transform="translate(0,0)" fill="rgb(253,253,254)" d="M 1103.34 746.09 L 1123.21 745.997 C 1122.81 760.033 1122.72 774.076 1122.93 788.116 C 1134.41 786.617 1154.63 787.912 1168.5 786.657 C 1176.84 787.561 1188.1 787.026 1196.81 787.161 C 1220.08 787.521 1244.18 786.479 1267.35 788.656 C 1273.85 808.932 1281.36 873.129 1273.8 891.744 C 1268.51 887.339 1264.42 884.905 1261.34 878.849 C 1263.67 869.313 1257.12 813.939 1254.78 802.206 C 1192.65 800.47 1129.82 802.163 1067.63 802.045 C 1056.83 802.024 1044.87 802.827 1034.21 801.764 C 1034.67 799.789 1044.23 793.234 1047.25 789.242 C 1045.3 785.815 1045.97 766.213 1045.96 761.01 C 1059.54 760.849 1073.25 761.365 1086.85 761.195 C 1101.24 761.016 1102 759.9 1103.34 746.09 z"/>
<path transform="translate(0,0)" fill="rgb(0,0,0)" d="M 1103.34 746.09 L 1123.21 745.997 C 1122.81 760.033 1122.72 774.076 1122.93 788.116 C 1112.34 788.083 1053.44 787.219 1047.25 789.242 C 1045.3 785.815 1045.97 766.213 1045.96 761.01 C 1059.54 760.849 1073.25 761.365 1086.85 761.195 C 1101.24 761.016 1102 759.9 1103.34 746.09 z"/>
<path transform="translate(0,0)" fill="rgb(253,253,254)" d="M 67.7596 1167.99 C 93.2081 1154.09 118.429 1147.09 146.653 1140.48 C 160.096 1137.32 161.877 1136.82 169.338 1147.92 C 141.865 1154.97 89.5321 1163.8 69.2004 1183.58 C 66.5108 1176.91 65.9162 1175.04 67.7596 1167.99 z"/>
<path transform="translate(0,0)" fill="rgb(253,253,254)" d="M 1446.47 1262.14 C 1448.27 1258.76 1448.31 1258.54 1451.23 1256.21 C 1454.44 1256.13 1453.24 1255.91 1456.32 1258.67 C 1460.41 1267.97 1456.11 1277.55 1464.86 1279.43 C 1469.95 1286.11 1463.31 1295.75 1473.31 1295.04 C 1476.41 1303.12 1484.89 1326.44 1486.91 1334.59 C 1481.98 1332.47 1475.71 1332.96 1470.29 1332.96 C 1462.35 1309.67 1453.78 1285.56 1446.47 1262.14 z"/>
<path transform="translate(0,0)" fill="rgb(253,253,254)" d="M 115.335 918.112 C 119.627 920.038 118.895 918.96 121.013 922.354 L 121.17 928.028 C 107.956 935.013 94.1087 943.053 83.1209 953.27 C 80.7749 949.565 80.6627 946.755 79.9192 942.428 C 91.7213 932.364 102 925.599 115.335 918.112 z"/>
</svg>