<svg version="1.1" xmlns="http://www.w3.org/2000/svg" style="display: block;" viewBox="0 0 2048 1638" width="1920" height="1536" preserveAspectRatio="none">
<path transform="translate(0,0)" fill="rgb(0,0,0)" d="M 1114.39 130.331 L 1116.15 130.38 C 1113.95 132.845 1100.98 142.005 1095.8 147.363 C 1073.24 170.675 1068.06 191.166 1068.02 222.356 C 1070.98 218.217 1074.05 213.934 1077.25 209.987 C 1104.38 176.577 1155.75 163.271 1196.96 171.378 C 1194.62 172.23 1192.29 173.095 1189.96 173.971 C 1163.62 183.902 1144.13 195.591 1132.12 222.097 C 1174.41 187.399 1225.97 188.576 1270.75 218.114 C 1243.9 217.528 1220.51 217.081 1204.5 242.04 C 1248.88 254.16 1282.92 239.653 1311.31 205.193 C 1303.14 234.765 1297.78 242.739 1274.74 262.575 C 1285.59 260.113 1296.73 259.209 1307.83 259.889 C 1357.1 262.703 1397.27 289.707 1429.16 325.408 C 1388.93 306.956 1359.1 299.905 1318.95 324.003 C 1373.77 318.923 1412.73 340.243 1445.81 382.942 C 1424.52 373.366 1410.91 365.603 1387.52 372.107 C 1413.27 378.51 1430.87 383.969 1453.46 399.939 C 1477.92 417.236 1494.35 449.825 1525.94 454.895 C 1545.21 457.988 1560.02 450.944 1575.04 440.072 C 1561.98 462.684 1543.04 479.277 1515.88 479.443 C 1487.49 479.617 1465.17 460.337 1439.82 451.854 L 1438.5 451.424 C 1461.77 470.212 1463.76 474.751 1479.13 498.969 C 1493.73 521.98 1535.12 527.008 1557.42 513.621 C 1563.21 510.151 1567.02 507.758 1572.7 503.218 C 1555.21 537.889 1531.48 547.895 1494.41 549.209 C 1563.11 571.901 1593.76 616.474 1591.07 689.148 C 1572.83 646.916 1549.47 633.951 1504.81 630.789 C 1557.1 655.782 1543.39 688.62 1572.98 727.775 C 1584.75 743.346 1605.89 746.162 1624.24 747.517 C 1600.05 764.931 1581.27 766.876 1552.75 758.977 C 1596.64 802.94 1603.89 839.35 1572.12 893.28 C 1572.51 858.211 1560.06 832.627 1528.88 815.151 C 1549.06 847.731 1547.65 876.992 1524.6 907.864 C 1522.34 887.027 1519.99 872.625 1504.8 857.754 C 1505.17 868.845 1506.84 879.854 1509.76 890.557 C 1517.9 920.191 1534.06 939.404 1560.4 954.429 C 1533.53 957.224 1506.5 950.956 1483.6 936.623 C 1497.71 967.833 1494.27 993.32 1473.49 1020.29 C 1475.98 988.76 1471.06 969.856 1442.91 953.404 C 1440.7 998.656 1447.81 1046.07 1499.64 1055.61 C 1472.58 1071.28 1451.25 1065.1 1426.45 1048.95 C 1434.69 1096.41 1411.63 1129.9 1368.87 1148.95 C 1370.39 1133.13 1370.42 1124.58 1363.03 1110.63 C 1351.03 1126.73 1347.54 1140.75 1355.71 1159.17 C 1333.1 1155.42 1323.72 1148.12 1305.65 1134.78 C 1302.17 1157.09 1292.98 1175.23 1282.41 1194.75 C 1313.93 1223.28 1330.7 1247.51 1353.14 1282.91 C 1372.44 1292.58 1394.71 1299.06 1415.04 1306.71 C 1481.95 1331.88 1621.17 1380.01 1672.54 1423.36 C 1698.72 1445.46 1713.46 1473.21 1716.31 1507.41 C 1630.71 1508.41 1542.96 1507.35 1457.22 1507.36 L 930.5 1507.39 L 331.661 1507.43 C 340.675 1425.47 407.829 1399.75 473.741 1369.72 C 545.745 1336.91 622.696 1313.58 695.408 1283.03 C 701.517 1274.44 707.068 1264.61 713.196 1255.88 C 730.288 1231.52 744.606 1214.09 766.901 1194.81 C 760.558 1183.49 754.526 1169.81 749.667 1157.77 C 725.498 1151.53 715.58 1141.93 702.81 1120.92 C 699.84 1133.48 700.304 1137.79 702.69 1150.49 C 663.338 1136.86 646.152 1101.82 650.884 1061.55 C 628.153 1075.04 610.456 1077.03 586.671 1064.17 C 619.195 1050.76 634.579 1030.48 617.041 996.509 C 607.889 978.782 606.09 954.823 608.823 935.278 C 584.773 961.744 587.281 995.591 597.071 1027.53 C 596.639 1027.08 596.212 1026.63 595.791 1026.17 C 572.624 1000.96 565.031 982.041 566.338 948.192 C 563.569 950.05 560.68 951.723 557.69 953.199 C 534.349 964.804 509.092 959.493 485.666 951.607 C 526.041 942.817 556.887 917.647 543.67 873.13 C 534.924 883.827 531.635 893.441 526.779 906.109 C 520.588 897.915 516.728 888.2 515.607 877.992 C 513.171 855.131 523.403 837.002 537.043 820.025 C 536.491 820.33 535.941 820.64 535.394 820.956 C 507 837.358 491.499 850.389 482.899 882.123 C 469.842 847.259 475.816 815.886 503.663 790.821 C 468.833 798.246 446.71 785.936 423.693 761.012 C 442.14 766.731 458.883 768.897 476.652 760.113 C 502.113 747.527 507.809 724.804 516.377 700.163 C 494.256 707.542 487.149 716.883 474.783 735.987 C 475.453 697.534 487.386 670.815 523.015 654.366 C 479.045 659.631 464.126 677.011 447.299 715.972 C 446.619 665.9 456.982 631.632 502.9 606.225 C 531.829 590.219 544.795 580.051 561.447 551.21 C 532.281 556.439 512.749 548.971 493.143 526.743 C 535.83 533.984 537.995 515.176 568.149 491.699 C 575.839 485.712 592.656 479.833 602.442 475.711 C 576.245 477.97 565.518 481.862 538.422 473.889 C 530.14 487.794 523.215 500.671 515.669 514.938 C 519.135 499.863 523.371 484.85 526.89 469.696 C 505.381 458.361 499.312 447.348 488.883 426.813 C 505.266 438.531 517.485 443.638 537.749 443.02 C 541.756 437.663 546.328 429.596 550.03 423.772 C 584.38 369.718 627.744 343.591 692.536 348.423 C 660.265 323.35 625.521 324.674 589.558 341.261 C 628.778 295.379 699.289 286.681 754.071 305.717 C 729.191 276.107 704.609 269.841 668.153 280.468 C 694.277 257.927 727.644 249.82 761.228 256.938 C 731.64 237.584 726.621 218.904 734.309 185.842 C 737.263 194.943 741.149 206.01 748.187 212.746 C 784.225 247.239 823.4 209.657 859.494 249.19 C 853.909 199.477 820.974 181.773 773.995 181.959 C 814.831 166.257 841.494 165.468 883.377 177.393 C 920.166 187.868 942.805 198.442 965.855 230.158 C 966.382 187.862 948.965 164.591 906.215 160.112 L 907.063 159.887 C 956.19 147.208 989.542 167.843 1007.58 213.509 C 1012.36 200.02 1019.32 187.407 1028.18 176.173 C 1048.83 150.317 1081.84 134.102 1114.39 130.331 z M 682.48 956.135 C 683.832 944.553 685.718 943.487 696.868 944.839 C 688.612 930.93 687.735 921.566 688.211 905.858 C 676.43 910.265 674.438 895.447 661.345 895.765 C 665.061 920.227 672.183 934.062 682.48 956.135 z M 563.249 437.462 C 584.063 429.038 605.781 414.037 625.644 402.599 C 623.63 401.497 621.015 402.069 618.572 402.254 C 599.963 405.147 565.422 421.849 557.217 438.934 C 560.303 438.795 560.46 438.566 563.249 437.462 z M 657.037 873.422 C 657.329 877.741 657.615 879.871 658.476 884.114 C 662.105 880.61 660.204 868.957 659.825 863.938 C 660.053 862.047 660.046 843.552 659.67 841.674 C 654.43 849.932 654.857 864.218 657.037 873.422 z"/>
<path transform="translate(0,0)" fill="rgb(254,254,254)" d="M 937.509 455.463 C 954.101 460.532 970.197 467.097 985.601 475.078 L 979.242 460.247 C 982.679 461.971 1003.83 475.489 1004.22 475.503 C 1005.62 473.445 1004.99 469.494 1004.86 466.781 L 1006.02 466.575 C 1012.53 471.523 1020.79 482.18 1024.81 483.464 C 1030.61 481.873 1038.83 469.497 1042.85 464.231 L 1044.14 476.771 C 1053.04 469.987 1059.94 464.717 1070.11 459.658 C 1067.66 464.925 1064.98 470.448 1062.78 475.787 C 1080.04 467.296 1091.54 461.329 1110.16 455.76 C 1105.22 462.549 1104.17 464.543 1101.13 472.458 C 1128.63 470.24 1156.22 461.195 1183.93 464.403 C 1197.54 465.979 1218.04 471.424 1228.76 480.402 C 1230.01 481.451 1231.22 482.537 1232.4 483.659 C 1228.42 486.428 1228.29 483.806 1227.62 486.582 L 1227.68 486.498 C 1251.02 498.994 1278.01 519.486 1296.22 538.776 L 1278.47 533.616 C 1299.99 564.837 1304.73 578.758 1314.72 614.977 C 1310.48 612.16 1306.41 609.345 1301.91 606.951 C 1307.44 622.402 1311.58 633.246 1312.32 649.899 L 1303.11 641.449 C 1309.93 663.256 1312.11 669.444 1312.61 692.209 C 1308.91 688.545 1305.24 684.858 1301.58 681.15 C 1304.98 693.953 1307.86 701.905 1312.97 714.308 C 1308.35 711.148 1303.29 707.859 1299.07 704.244 C 1301.71 719.018 1305.54 733.556 1310.51 747.717 C 1313.06 754.899 1321.71 776.329 1322.77 782.685 C 1327.97 813.614 1323.6 858.951 1321.85 890.577 C 1353.45 916.726 1325.76 948.379 1329.94 964.004 C 1331.14 964.633 1331.53 965.329 1332.9 964.55 C 1359.64 949.301 1373.7 905.726 1349.29 881.608 C 1353.01 869.982 1363.27 843.658 1375.6 839.184 C 1403.83 828.936 1391.25 877.123 1389.52 889.188 C 1385.11 919.816 1370.06 943.712 1361.53 972.676 C 1356.43 989.96 1359.32 1009.74 1352.3 1026.37 C 1348.04 1038.94 1322.15 1061.17 1318.3 1040.97 C 1315.04 1023.93 1325.41 989.361 1320.65 972.034 L 1319.2 971.328 C 1312.73 976.934 1291.22 1103.81 1286.52 1123.59 C 1283.19 1137.6 1278.67 1151.3 1273 1164.55 C 1256.77 1201.63 1211.18 1255.3 1177.77 1277.93 C 1181.88 1265.51 1185.19 1255.05 1187.92 1242.18 C 1151.22 1285.47 1119.35 1328.96 1058.34 1331.75 C 1006.72 1334.12 958.754 1337.03 916.626 1301.63 C 892.787 1281.6 881.169 1262.22 861.928 1243.32 C 864.826 1255.53 867.486 1265.72 871.367 1277.68 C 846.8 1260.75 834.9 1246.79 816.051 1225.25 C 766.08 1168.13 760.165 1115.9 746.718 1043.93 C 744.74 1033.35 735.995 976.591 730.38 971.32 C 722.009 976.18 735.354 1031.53 729.471 1042.47 C 726.503 1044.37 728.07 1044.05 724.618 1043.47 C 717.984 1036.09 705.099 1038.82 702.227 1033.75 C 688.359 1009.27 692.919 982.823 682.48 956.135 C 683.832 944.553 685.718 943.487 696.868 944.839 C 702.375 950.665 710.601 962.84 717.244 964.978 L 719.098 964.385 C 725.335 950.544 694.969 924.956 727.604 889.649 C 725.491 858.852 721.447 812.206 726.846 782.175 C 728.107 775.156 736.751 754.091 739.551 746.362 C 744.457 732.661 748.201 718.571 750.743 704.242 C 745.897 707.73 740.86 711.487 735.953 714.836 C 741.445 702.249 744.43 695.544 747.24 681.869 C 743.967 685.615 740.443 689.854 736.91 693.267 C 736.846 671.946 740.025 661.714 746.348 641.777 L 735.526 651.479 C 737.934 634.644 741.359 622.629 747.885 606.826 C 743.457 609.549 738.678 612.366 734.343 615.17 C 743.182 582.962 751.437 559.231 772.413 532.3 C 765.782 535.011 760.289 537.253 753.402 539.395 C 784.21 507.659 831.266 463.236 877.046 463.952 C 902.003 464.342 923.849 470.156 947.958 472.358 C 944.743 464.411 943.543 461.999 937.509 455.463 z"/>
<path transform="translate(0,0)" fill="rgb(0,0,0)" d="M 1136.7 724.352 C 1147.79 723.74 1162.48 727.3 1174.08 728.241 C 1182.12 728.893 1198.94 729.453 1206.23 732.052 C 1221.06 737.346 1236.18 755.813 1247.45 766.824 C 1258.92 778.538 1260.37 794.754 1259.08 810.459 C 1245.45 804.082 1232.21 786.262 1217.23 778.792 C 1201.66 771.027 1183.49 772.499 1167.43 777.84 C 1211.3 787.293 1222.41 815.003 1247.65 849.691 C 1238.47 845.246 1234.28 842.859 1225.75 837.483 C 1240.49 864.718 1248.19 863.424 1276.63 868.16 C 1251.48 875.387 1236.29 870.891 1217.83 851.929 C 1197.52 882.597 1161.38 874.514 1132.56 862.607 C 1159.9 866.777 1190.16 869.144 1212.57 849.372 C 1214.13 847.992 1213.66 848.249 1213.64 846.386 C 1210.61 843.744 1205.51 843.68 1205.34 843.448 C 1199.11 835.173 1198.13 831.61 1188.92 826.098 C 1179.18 863.149 1136.72 861.726 1132.53 821.262 C 1122.54 827.171 1117.54 831.217 1109.05 838.88 C 1111.58 841.057 1112.48 841.987 1114.63 844.551 C 1110.58 846.466 1097.96 844.097 1094.02 841.404 C 1094.5 838.903 1094.64 838.406 1096.67 836.492 C 1138.07 797.462 1173.05 790.796 1217.2 833.446 C 1216.62 831.445 1216.02 829.452 1215.4 827.465 C 1211.42 814.843 1203.56 805.192 1192.36 800.119 C 1155.85 783.571 1126.55 794.706 1100.32 822.093 C 1096.39 826.199 1076.56 829.96 1074.21 837.99 C 1060.85 883.649 1080.17 937.802 1103.04 977.548 C 1106.68 983.598 1120.19 993.326 1125.33 998.819 C 1148.74 1023.86 1160.24 1045.19 1171.72 1077.05 C 1151.59 1053.06 1135.73 1029.23 1113.99 1005.19 C 1117.79 1030.11 1115.34 1044.24 1090.72 1055.2 L 1080.81 1059.08 C 1104.24 1065.04 1104.88 1067.91 1124.96 1079.18 C 1163.26 1071.49 1204.64 1113.12 1206.51 1149.93 C 1207.45 1168.31 1185.1 1184.67 1172.95 1196.44 C 1164.11 1185.56 1158.46 1185.67 1149.48 1173.11 C 1135.1 1176.01 1133.13 1171.96 1124.29 1161.83 C 1089.73 1185.97 1065.79 1161.41 1026.03 1162.54 C 1005.42 1161.71 986.195 1168.41 966.18 1171.59 C 951.698 1173.89 937.808 1171.27 926.14 1162.34 C 915.588 1172.73 915.4 1175.83 900.178 1172.75 C 890.96 1188.71 886.884 1183.51 876.857 1196.19 C 865.351 1185.05 843.257 1168.23 843.8 1151.59 C 845.079 1112.44 886.326 1072.07 926.266 1079.2 C 948.952 1066.29 943.045 1065.26 972.254 1059.03 C 939.398 1048.35 930.26 1038.72 936.735 1003.32 C 925.953 1015.72 915.532 1028.43 905.484 1041.43 C 896.627 1053.01 886.643 1067.21 877.144 1077.93 C 879.641 1071.2 882.278 1064.53 885.051 1057.92 C 890.249 1045.82 896.973 1033.69 904.59 1022.95 C 911.725 1012.89 941.814 975.966 955.733 982.609 C 956.366 989.582 933.014 1010.09 951.254 1032.32 C 957.36 1034.23 970.143 1029.98 976.047 1032.78 C 994.254 1041.41 1001.72 1056.22 1023.89 1056.66 C 1037.97 1056.93 1051.18 1050.83 1061.36 1040.69 C 1099.46 1002.74 1068.58 964.989 1058.15 923.356 C 1051.86 898.28 1050.06 880.155 1050.75 855.059 C 1051.86 814.721 1063.06 798.047 1090.9 771.721 C 1084.26 763.162 1086.15 755.804 1092.84 747.319 C 1104.2 732.93 1118.68 726.409 1136.7 724.352 z"/>
<path transform="translate(0,0)" fill="rgb(254,254,254)" d="M 1094.23 993.652 C 1101.43 1000.32 1108.47 1033.5 1096.58 1032.51 C 1092.36 1031.74 1088.79 1031.63 1084.54 1031.39 C 1090.57 1017.79 1092 1008.03 1094.23 993.652 z"/>
<path transform="translate(0,0)" fill="rgb(0,0,0)" d="M 905.72 723.395 C 924.347 722.12 950.521 733.61 959.81 750.64 C 964.44 759.127 963.203 764.239 960.554 772.795 C 972.712 788.643 980.159 789.58 990.044 811.608 L 966.69 799.378 C 968.889 803.372 981.115 826.419 972.075 828.577 C 954.608 832.748 937.84 810.172 925.511 801.348 C 906.013 787.393 877.094 789.673 856.81 800.621 C 842.29 808.54 837.845 818.247 833.536 833.38 C 867.413 798.455 905.018 793.563 942.194 826.726 C 947.385 831.357 953.185 834.448 956.47 841.112 C 952.948 844.532 939.439 845.286 933.853 845.935 L 941.308 838.74 C 932.666 830.625 927.701 826.871 917.514 820.837 L 917.085 824.02 C 914.251 845.47 903.897 853.965 882.163 851.483 C 868.377 844.937 864.935 840.847 861.652 825.771 C 859.681 827.032 855.858 829.458 853.99 831.412 C 851.06 834.477 848.689 840.562 845.206 843.484 C 845.206 843.484 839.681 844.217 839.681 844.217 C 828.852 853.929 821.045 864.661 806.738 869.669 C 799.064 872.356 784.709 872.408 777.423 868.85 L 777.152 867.477 C 804.799 864.979 811.113 861.255 825.687 836.492 C 817.401 842.295 812.773 845.168 803.404 848.879 C 808.014 840.677 826.07 817.085 832.309 808.354 C 847.653 786.879 871.804 779.11 897.273 776.151 C 892.733 775.204 888.178 774.33 883.609 773.529 C 827.757 764.177 829.119 783.013 792.329 808.624 L 791.026 809.52 C 788.624 772.489 801.971 765.363 827.882 741.373 C 832.842 737.208 839.526 731.675 846.132 730.673 C 865.71 727.705 886.039 726.208 905.72 723.395 z"/>
<path transform="translate(0,0)" fill="rgb(254,254,254)" d="M 936.497 785.82 C 944.763 787.755 965.5 796.035 965.57 806.057 C 957.369 811.529 941.881 791.532 936.497 785.82 z"/>
<path transform="translate(0,0)" fill="rgb(0,0,0)" d="M 966.992 1191.93 C 973.208 1191.82 983.02 1192.86 989.435 1193.71 C 1021.51 1197.99 1051.35 1194.6 1083.44 1191.6 C 1079.78 1195.79 1077.31 1197.92 1073.14 1201.56 C 1048.12 1219.63 986.651 1219.77 966.992 1191.93 z"/>
<path transform="translate(0,0)" fill="rgb(0,0,0)" d="M 836.019 850.552 C 852.654 855.623 861.933 865.594 884.433 866.032 C 891.199 866.164 910.195 864.066 913.002 864.473 L 911.115 866.014 C 908.959 866.943 906.767 867.786 904.543 868.54 C 882.9 875.865 844.533 877.628 836.019 850.552 z"/>
<path transform="translate(0,0)" fill="rgb(254,254,254)" d="M 1239.53 1249.71 C 1240.39 1254.64 1239.6 1260.94 1239.29 1266.03 C 1237.2 1299.28 1220.31 1328.47 1205.78 1357.71 C 1199.57 1370.19 1191.41 1386.7 1184.24 1398.39 C 1172.21 1404.62 1152.07 1411.71 1139.29 1416.26 L 1076.89 1438.09 C 1078.25 1429.63 1163.56 1347.48 1174.83 1337.04 C 1203.73 1310.28 1216.6 1280.06 1239.53 1249.71 z"/>
<path transform="translate(0,0)" fill="rgb(254,254,254)" d="M 809.148 1249.72 C 823.319 1261.37 842.883 1304.43 859.688 1321.83 C 888.384 1351.54 919.025 1378.03 946.712 1408.6 C 955.65 1418.47 964.981 1428.03 973.627 1438.16 C 954.919 1432.1 935.401 1424.93 916.747 1418.43 C 901.014 1412.94 879.312 1405.69 864.994 1398.14 C 858.5 1388.16 852.918 1376.08 847.352 1365.42 C 826.274 1325.01 809.906 1296.62 809.148 1249.72 z"/>
<path transform="translate(0,0)" fill="rgb(254,254,254)" d="M 659.67 841.674 C 662.628 836.011 669.04 835.459 673.95 838.583 C 687.618 847.277 695.64 867.419 700.217 881.827 C 692.834 889.662 690.888 895.441 688.211 905.858 C 676.43 910.265 674.438 895.447 661.345 895.765 C 660.245 893.158 659.14 887.145 658.476 884.114 C 662.105 880.61 660.204 868.957 659.825 863.938 C 660.053 862.047 660.046 843.552 659.67 841.674 z"/>
<path transform="translate(0,0)" fill="rgb(254,254,254)" fill-opacity="0.843137" d="M 659.67 841.674 C 660.046 843.552 660.053 862.047 659.825 863.938 C 658.249 867.699 657.92 869.484 657.037 873.422 C 654.857 864.218 654.43 849.932 659.67 841.674 z"/>
<path transform="translate(0,0)" fill="rgb(254,254,254)" fill-opacity="0.290196" d="M 659.825 863.938 C 660.204 868.957 662.105 880.61 658.476 884.114 C 657.615 879.871 657.329 877.741 657.037 873.422 C 657.92 869.484 658.249 867.699 659.825 863.938 z"/>
</svg>