<svg version="1.1" xmlns="http://www.w3.org/2000/svg" style="display: block;" viewBox="0 0 2048 1638" width="1920" height="1536" preserveAspectRatio="none">
<path transform="translate(0,0)" fill="rgb(0,0,0)" d="M 1227.93 94.0439 L 1316.2 94.0721 C 1315.49 302.057 1213.46 402.524 1050.72 517.202 C 1006.48 548.376 940.167 594.371 904.376 633.683 L 1144.16 633.692 C 1121.42 607.986 1082.72 578.511 1055.32 557.781 C 1077.73 540.075 1111.34 515.615 1134.94 499.076 C 1166.56 521.632 1207.15 562.611 1231.69 592.941 C 1293.04 668.772 1324.54 758.784 1314.68 856.47 C 1302.23 979.777 1227.39 1070.3 1132.96 1145.5 C 1106.73 1125.08 1080.06 1106.14 1053.9 1085.9 C 1087.79 1061.84 1119.27 1034.56 1147.92 1004.44 C 1120.66 1002.99 1083.9 1004.02 1056.19 1004.03 C 1004.2 1003.78 952.2 1003.83 900.206 1004.18 C 941.199 1049.02 1014.01 1099.09 1064.62 1136.69 C 1192.98 1232.03 1288.66 1323.35 1312.8 1488.01 C 1315.78 1504.05 1316.83 1527.65 1316.87 1543.94 L 1228.07 1544 C 1227.56 1521.1 1224.94 1500.38 1220.78 1477.91 C 1204.21 1477.23 1184.86 1477.75 1168 1477.75 L 1070.16 1477.74 C 989.91 1477.73 908.127 1476.86 828.031 1477.7 C 823.605 1499.55 821.086 1521.73 820.503 1544.02 L 731.518 1544 C 735.878 1390.29 799.917 1287.2 917.205 1190.49 L 996.408 1248.15 C 968.015 1269.95 940.41 1292.71 915.468 1318.44 C 925.961 1318.75 937.145 1318.84 947.656 1318.57 C 1009.14 1317.05 1072.2 1320.48 1133.49 1318.21 C 1100.13 1283.54 1061.75 1252.68 1022.61 1224.76 C 880.046 1123.05 731.439 1013.74 731.616 820.118 C 731.965 770.286 743.148 721.127 764.39 676.048 C 812.756 571.593 906.67 499.715 998.165 434.733 C 1048.7 398.842 1092.46 368.827 1136.71 324.594 C 1115.42 323.71 1090.97 324.51 1069.43 324.326 C 1016.83 323.876 963.796 324.932 911.236 324.312 C 935.731 350.088 965.78 372.452 993.546 394.573 C 970.562 413.238 938.127 434.931 913.36 453.686 C 894.845 439.407 874.919 420.743 858.466 404.111 C 769.38 314.054 731.334 219.845 731.928 94.0809 C 761.221 93.7687 790.857 94.0245 820.175 94.0559 C 819.81 117.418 822.948 141.639 826.64 164.639 L 1221.55 164.597 C 1225.68 138.859 1227.69 120.586 1227.93 94.0439 z M 822.43 850.156 L 1225.94 850.286 C 1228.01 825.053 1229.25 813.468 1224.68 787.797 L 985.929 787.743 C 932.762 787.718 876.303 786.712 823.41 787.727 C 819.039 815.916 820.51 822.874 822.43 850.156 z M 1188.22 257.733 C 1198.65 238.402 1202.97 227.901 1210.95 207.399 L 975.907 207.241 C 930.11 207.245 883.039 206.662 837.374 207.303 C 846.856 234.889 857.885 257.2 874.733 281.075 L 1173.77 281.093 C 1178.4 273.783 1184.13 265.212 1188.22 257.733 z M 840.043 1434.99 L 1169.5 1435.14 L 1208.89 1434.95 C 1197.6 1403.69 1188.75 1388.24 1168.77 1361.03 L 880.051 1360.98 C 862.842 1383.83 849.302 1407.88 840.043 1434.99 z M 868.551 676.25 C 853.387 697.176 841.598 720.35 833.611 744.928 L 1180.5 744.91 L 1214.25 744.944 C 1205.9 719.56 1195.7 698.089 1179.83 676.354 C 1090.26 674.366 999.776 677.318 910.124 676.113 C 896.411 675.929 882.252 675.977 868.551 676.25 z M 832.875 893.076 C 841.822 919.911 850.512 937.987 866.299 961.967 C 956.805 960.92 1047.55 962.405 1138.07 961.823 C 1152.71 961.729 1167.66 961.69 1182.3 961.966 C 1186.38 955.336 1191.4 947.58 1195.2 940.907 C 1204.16 924.177 1209.45 911.137 1215.78 893.066 L 982.34 893.001 C 933.699 892.993 881.21 892.001 832.875 893.076 z"/>
</svg>