<svg version="1.1" xmlns="http://www.w3.org/2000/svg" style="display: block;" viewBox="0 0 2048 1638" width="1920" height="1536" preserveAspectRatio="none">
<path transform="translate(0,0)" fill="rgb(0,0,0)" d="M 1371.83 97.3936 C 1401.92 93.6635 1435.5 109.192 1463.65 119.237 L 1570.13 157.363 C 1581.66 161.532 1604.92 171.604 1616.17 172.863 C 1603.81 164.694 1590.4 157.303 1577.64 149.672 L 1518.15 113.562 L 1574.78 109.267 C 1587.54 108.282 1601.42 106.223 1614.16 107.702 C 1649.62 111.82 1676.81 189.97 1706.54 209.385 C 1731.73 225.84 1791.03 242.45 1807.66 263.917 C 1826.67 288.458 1843 315.793 1860.77 341.313 C 1874.45 360.655 1887.9 380.165 1901.11 399.837 C 1906.54 407.856 1913.38 416.252 1917.71 424.862 C 1921.37 432.148 1935.71 518.102 1934.48 524.967 C 1932.81 534.234 1922.66 549.595 1914.87 554.904 C 1907.38 560.01 1872.17 547.778 1861.74 545.902 C 1857.73 547.826 1853.66 549.716 1850.5 552.932 C 1841.86 561.719 1836.13 605.8 1833.46 618.963 L 1817.65 694.996 C 1810.99 728.451 1807.08 727.487 1822.12 758.273 L 1852.69 819.835 C 1856.96 828.556 1864.25 842.602 1867.29 851.308 C 1869.34 857.075 1870.34 863.164 1870.24 869.285 C 1870.02 883.335 1861.66 891.331 1852.63 900.837 C 1842.42 911.579 1832.27 922.421 1821.69 932.794 C 1807.32 931.609 1769.96 925.439 1755.4 921.628 C 1748.05 909.837 1738.54 893.912 1726.68 886.478 C 1703.94 884.66 1676.14 884.092 1653.04 883.039 L 1492.47 876.209 L 1435.8 873.826 C 1418.08 873.081 1406.92 873.706 1389.88 867.576 C 1370.54 860.616 1350.67 853.909 1331.16 847.363 L 1160.31 788.98 C 1133.91 779.844 1095.19 764.818 1069.36 758.161 C 1081.24 765.924 1102.68 776.115 1115.64 782.658 C 1142.13 795.743 1168.33 809.407 1194.23 823.639 C 1134.37 830.147 1071.35 827.169 1011.26 843.552 C 945.772 858.323 882.792 877.78 816.175 888.873 C 734.079 902.544 658.2 905.963 575.238 899.082 C 542.95 896.594 509.138 895.411 477.336 889.13 C 374.162 868.753 272.362 841.283 169.611 818.758 C 152.588 815.026 126.731 808.997 110.89 802.557 C 96.7344 764.778 112.607 711.795 121.136 672.98 C 129.041 637.005 137.029 597.148 147.159 561.777 C 168.094 543.291 198.258 521.394 220.592 503.289 C 239.731 487.774 276.158 457.287 295.695 445.818 C 309.354 437.8 358.508 419.936 375.021 413.441 C 393.443 406.278 411.747 398.815 429.927 391.056 C 439.964 386.844 460.383 377.862 469.999 375.288 C 495.059 368.579 523.511 363.513 549.177 358.623 C 608.183 347.382 667.433 336.679 726.283 324.711 C 798.163 310.093 865.242 287.15 934.542 263.756 C 966.504 252.966 1000.37 242.749 1031.78 230.597 C 1044.17 225.801 1066.98 208.919 1078.64 201.308 C 1111.9 179.595 1142.82 155.43 1177.3 135.623 C 1200.55 137.786 1221.03 141.884 1243.97 146.195 C 1225.06 164.938 1200.76 181.637 1181.21 200.19 C 1219.29 181.632 1255.32 158.204 1292.27 137.579 C 1315.23 124.759 1345.74 100.202 1371.83 97.3936 z M 1028.57 704.606 C 1005.16 699.791 972.044 696.162 947.363 692.301 C 926.646 689.242 903.69 681.354 883.036 676.294 C 874.318 674.157 840.179 667.502 836.234 661.006 C 829.458 649.849 823.163 631.41 818.264 618.755 C 846.441 606.127 879.683 591.709 908.863 581.809 C 916.7 579.151 939.561 575.557 948.534 573.951 L 1014.43 562.203 C 1036.88 593.764 1060.33 631.762 1083.38 661.803 C 1087.44 659.748 1094.09 656.392 1097.06 653.112 C 1109.11 639.766 1130.92 604.43 1138.23 588.565 C 1124.33 545.646 1103.24 502.385 1087.61 459.774 C 1083.41 448.335 1079.96 442.26 1084.37 429.515 C 1090.9 405.234 1097.55 380.901 1103.33 356.42 C 1104.64 350.793 1108.04 341.207 1108.15 336.401 C 1106.21 335.818 1107.11 335.808 1105.44 336.19 C 1090.58 339.649 1073.99 345.286 1059.11 349.575 L 956.613 379.285 L 895.869 396.547 C 887.089 399.075 876.135 401.073 868.074 405.265 C 857.555 410.737 766.688 497.519 759.542 508.476 C 759.355 508.762 759.154 509.04 758.975 509.332 C 756.003 514.208 759.053 525.765 760.603 530.923 C 767.281 553.159 777.198 574.917 785.033 596.841 C 794.443 623.173 802.293 650.768 813.32 676.45 C 814.674 679.603 816.592 684.241 819.725 685.914 C 829.435 691.096 937.018 714.073 951.27 713.863 C 961.432 713.713 972.052 711.541 982.13 710.163 C 997.574 708.025 1013.06 706.173 1028.57 704.606 z M 1567.99 747.726 C 1577.82 749.531 1588.2 750.859 1598.14 752.047 C 1632.04 756.1 1666.16 761.127 1700.13 764.365 C 1688.2 777.909 1676.11 791.322 1663.89 804.602 C 1658.55 810.508 1651.46 819.293 1646.21 824.545 C 1628.18 827.139 1611.07 827.818 1593.36 829.929 C 1610.09 831.796 1636.8 835.124 1653.19 835.224 L 1690.56 801.853 C 1704.89 789.486 1719.62 776.436 1734.18 764.462 C 1731.51 751.652 1730.76 733.815 1727.08 722.752 C 1724.2 714.115 1712.81 696.533 1707.51 687.856 L 1664 616.647 C 1639.62 576.617 1639.68 579.081 1632.06 532.274 C 1628.17 507.408 1624.01 482.585 1619.58 457.809 C 1634.01 446.284 1666.9 421.214 1682.35 412.058 C 1707.62 411.035 1742.79 415.304 1769.36 416.169 C 1770.95 406.419 1772.32 401.963 1765.05 393.07 C 1744.59 368.304 1723.94 338.045 1701.88 315.336 C 1696.89 310.193 1652.38 294.283 1643.97 289.076 C 1639.19 286.114 1604.84 271.801 1600.86 271.952 C 1593.57 274.848 1567.78 283.801 1564.2 289.051 C 1560.69 308.978 1559.92 343.143 1558.31 364.523 L 1545.53 557.067 L 1539.94 640.997 C 1539.55 646.709 1536.96 679.706 1537.87 683.415 C 1541.5 698.237 1560.09 734.305 1567.99 747.726 z M 239.633 668.874 C 252.935 659.111 279.978 632.803 293.76 620.244 L 338.195 579.671 C 348.719 569.996 363.421 556.94 371.831 546.026 C 384.442 529.66 394.327 508.683 405.062 490.899 L 405.087 489.173 L 403.554 489.266 C 369.893 495.882 311.105 511.006 279.443 524.035 C 258.125 532.806 218.032 569.001 203.267 586.862 C 190.506 604.209 196.538 644.752 199.18 665.905 L 200.139 666.935 C 212.195 668.042 227.653 669.564 239.633 668.874 z M 254.461 794.251 C 272.248 749.591 289.262 703.612 310.837 660.715 C 313.343 655.732 327.623 633.033 327.195 630.066 C 316.59 640.301 277.901 680.397 272.693 690.804 C 269.942 696.302 253.655 789.531 254.461 794.251 z M 613.748 628.25 C 635.517 635.686 667.619 647.88 688.667 653.863 C 698.839 657.393 708.988 660.989 719.113 664.648 C 721.589 653.985 726.766 635.224 727.693 625.174 C 728.761 613.596 715.427 586.2 709.31 576.276 C 703.016 566.067 672.661 550.183 661.334 543.672 C 643.767 562.317 626.981 581.693 609.546 600.247 C 610.935 609.54 612.259 618.985 613.748 628.25 z M 401.556 551.975 C 448.616 524.468 493.942 492.01 541.163 465.18 C 553.642 458.09 598.259 446.65 614.574 441.415 L 777.52 388.748 C 786.836 385.765 867.843 360.483 869.176 358.106 L 866.654 358.179 L 626.198 415.192 L 558.63 431.123 C 555.008 431.984 532.73 436.763 530.617 438.405 C 492.567 467.971 457.176 501.721 420.245 532.845 C 416.542 535.965 401.218 549.043 399.892 552.499 L 401.556 551.975 z M 1398.7 612.539 C 1439.62 572.695 1517.34 501.326 1531.72 445.516 L 1531.02 443.059 L 1531.08 443.49 C 1523.91 428.212 1535.27 422.941 1533.43 414.75 L 1443.9 541.382 C 1436.91 551.275 1394.21 609.816 1394.89 614.369 C 1396.93 613.737 1397.06 613.847 1398.7 612.539 z M 1354.03 271.006 C 1329.37 280.016 1304.8 289.243 1280.3 298.685 C 1270.17 302.586 1257.83 305.928 1248.59 311.562 C 1245.52 313.436 1243.94 314.996 1242.49 318.363 C 1239.93 324.312 1208.98 471.484 1209.52 477.83 C 1210.42 488.559 1232.77 553.761 1238.32 566.886 C 1242.95 577.853 1250.35 587.799 1256.46 597.983 C 1267.33 616.112 1278.58 635.929 1286.6 655.509 C 1277.32 660.614 1265.49 666.357 1256.8 671.516 C 1272.86 670.015 1291.37 668.372 1307.26 665.737 C 1333.26 660.775 1354.75 654.851 1373.74 633.7 C 1368.73 607.604 1362.28 581.62 1356.83 555.602 C 1355.88 551.083 1354.88 546.286 1353.63 541.859 L 1352.21 541.271 C 1343.38 537.641 1312.65 530.195 1311.68 524.426 C 1308.46 505.48 1305.16 463.879 1304.9 445.092 C 1329.54 432.783 1368.54 420.231 1391.28 406.036 C 1395.83 403.196 1416.22 361.738 1419.17 354.108 C 1415.58 337.616 1409.61 318.941 1405.23 302.295 C 1396.02 296.228 1361.74 270.626 1354.03 271.006 z"/>
<path transform="translate(0,0)" fill="rgb(0,0,0)" d="M 1830.64 965.984 C 1841.89 954.423 1853.02 942.749 1864.03 930.965 C 1898.87 893.806 1899.43 895.545 1924.74 941.773 C 1931.22 953.605 1938.46 965.532 1944.61 977.704 C 1943.05 1008.72 1941.57 1042.77 1938.56 1073.6 C 1911.51 1089.03 1874.67 1104.29 1849.09 1120.71 C 1836.33 1128.9 1809.5 1160.48 1797.46 1173.22 L 1688.78 1288.23 C 1671.9 1306.17 1653.44 1326.85 1636.13 1343.97 C 1627.75 1352.26 1600.28 1368.08 1588.8 1375.02 L 1514.53 1419.6 L 1442.37 1462.85 C 1430.5 1470.01 1417.87 1478.02 1405.93 1484.91 C 1400.02 1488.33 1375.51 1487.28 1367.53 1487.28 L 1304.88 1487.22 L 1110.25 1487.17 C 1077.58 1487.16 1041.42 1486.01 1009.05 1487.6 C 970.68 1489.48 927.165 1501.43 889.738 1510.15 L 705.649 1553.01 L 650.116 1565.88 C 640.288 1568.16 623.427 1572.49 613.746 1573.44 C 592.322 1575.54 568.098 1574.03 546.366 1574.38 C 535.746 1574.56 510.883 1574.68 501.813 1572.08 C 490.736 1568.91 469.316 1554.41 458.558 1548.03 C 441.295 1537.79 414.38 1523.46 399.203 1511.7 C 391.978 1506.1 370.946 1474.63 364.834 1465.68 C 351.152 1445.63 335.689 1424.31 322.466 1404.01 C 325.77 1391.72 326.742 1383.22 338.204 1376.25 C 366.563 1374.07 391.917 1372.48 420.318 1371.19 C 418.318 1364.22 405.374 1360.45 407.082 1352.09 C 413.043 1352.19 422.566 1351.58 427.878 1352.25 C 431.423 1352.7 433.062 1356.6 439.791 1357.36 C 462.662 1361.34 467.275 1366.09 487.141 1351.02 C 493.931 1350.2 511.487 1350.14 518.575 1350.27 C 520.995 1351.17 524.528 1350.2 527.255 1349.74 C 541.148 1350.39 580.711 1346.88 596.496 1345.86 C 602.235 1347.25 602.784 1347.2 608.121 1344.51 C 617.257 1344.06 640.62 1340.67 647.66 1341.33 C 651.617 1341.92 667.643 1341.67 667.348 1341.5 C 684.088 1350.98 691.558 1342.81 708.859 1339.19 C 715.831 1337.73 749.238 1334.58 754.438 1340.33 L 754.857 1341.78 C 772.993 1337.74 788.965 1330.86 806.309 1324.65 C 847.223 1309.99 886.714 1294.57 925.947 1275.84 C 947.882 1265.37 971.792 1255.46 991.37 1240.67 C 1005.36 1230.1 1019.35 1217.7 1032.78 1206.28 C 1055.84 1186.65 1079.06 1167.22 1102.43 1147.96 C 1116.2 1136.56 1131.73 1123.37 1145.98 1112.86 C 1159.74 1102.71 1182.63 1092.3 1198.66 1084.6 L 1281.66 1045.61 C 1318.25 1028.33 1355.32 1009.79 1392.24 993.543 C 1401.13 989.632 1423.55 983.453 1433.44 980.466 L 1502.43 959.624 L 1577.02 936.711 C 1585 934.287 1615.87 924.126 1621.77 924.821 C 1643.09 927.332 1673.92 933.605 1695.36 938.345 C 1738.99 947.99 1787.85 955.297 1830.64 965.984 z M 1360.56 1414.9 C 1373.66 1407.5 1386.55 1399.74 1399.24 1391.65 C 1433.35 1371.63 1467.22 1351.2 1500.83 1330.35 L 1418.65 1308.64 C 1410.31 1306.46 1401.93 1304.34 1393.61 1302.1 C 1354.8 1291.68 1318.43 1272 1281.31 1256.76 C 1257.41 1246.94 1233.14 1237.91 1209.13 1228.35 C 1203.81 1226.24 1198.45 1223.97 1192.85 1222.78 C 1217.9 1240.26 1250.74 1258.53 1276.84 1275.44 C 1289.68 1283.77 1327.14 1307.03 1339.14 1311.45 C 1369.21 1322.53 1414.07 1329.46 1443.6 1340.59 C 1417.8 1363.46 1384.7 1391.21 1360.56 1414.9 z M 1550.41 1095.5 C 1563.18 1094.54 1601.76 1088.99 1615.16 1086.32 C 1662.32 1080.7 1709.44 1074.75 1756.51 1068.48 C 1775.53 1066.02 1807.8 1060.61 1826.01 1059.38 C 1810.49 1054.64 1795.04 1049.65 1779.68 1044.39 C 1776.18 1043.21 1756.13 1036.21 1753.5 1036.04 C 1707.08 1049.28 1660.74 1062.82 1614.5 1076.66 C 1597.24 1081.75 1566.19 1089.55 1550.41 1095.5 z M 1147.05 1213.88 C 1189.09 1191.45 1231.96 1169.65 1267.71 1137.98 C 1272.22 1133.98 1277.49 1130.11 1281.57 1125.7 L 1280.84 1125.06 C 1252.29 1141.74 1165.43 1192.74 1146.45 1213.34 L 1147.05 1213.88 z"/>
<path transform="translate(0,0)" fill="rgb(253,253,253)" d="M 647.66 1341.33 C 651.617 1341.92 667.643 1341.67 667.348 1341.5 C 684.088 1350.98 691.558 1342.81 708.859 1339.19 C 715.831 1337.73 749.238 1334.58 754.438 1340.33 L 754.857 1341.78 C 733.863 1348.8 707.575 1353.71 685.736 1357.4 C 609.68 1369.79 532.625 1374.98 455.594 1372.92 C 450.573 1372.75 424.029 1372.48 420.318 1371.19 C 418.318 1364.22 405.374 1360.45 407.082 1352.09 C 413.043 1352.19 422.566 1351.58 427.878 1352.25 C 431.423 1352.7 433.062 1356.6 439.791 1357.36 C 462.662 1361.34 467.275 1366.09 487.141 1351.02 C 493.931 1350.2 511.487 1350.14 518.575 1350.27 C 520.995 1351.17 524.528 1350.2 527.255 1349.74 C 541.148 1350.39 580.711 1346.88 596.496 1345.86 C 602.235 1347.25 602.784 1347.2 608.121 1344.51 C 617.257 1344.06 640.62 1340.67 647.66 1341.33 z"/>
<path transform="translate(0,0)" fill="rgb(0,0,0)" d="M 564.842 920.482 L 643.556 923.612 C 639.309 947.815 634.472 976.835 634.376 1001.52 C 634.265 1029.71 638.192 1062 641.099 1090.23 C 641.726 1094.37 642.029 1095.69 641.79 1099.8 C 638.423 1099.06 629.593 1089.81 626.299 1086.84 C 585.822 1050.35 565.545 974.257 564.842 920.482 z"/>
<path transform="translate(0,0)" fill="rgb(0,0,0)" d="M 410.259 1219.07 C 421.339 1274.09 428.982 1290.94 453.478 1340.81 C 450.914 1295.69 454.713 1261.11 475.421 1220.05 C 479.536 1239.55 483.693 1262.91 489.427 1281.62 C 496.369 1304.27 508.091 1329.03 518.575 1350.27 C 511.487 1350.14 493.931 1350.2 487.141 1351.02 C 471.5 1350.11 452.636 1350.09 437.05 1350.1 L 411.349 1349.19 C 405.774 1349.2 400.879 1349.14 395.322 1349.73 C 389.922 1301.94 391.268 1263.55 410.259 1219.07 z"/>
<path transform="translate(0,0)" fill="rgb(0,0,0)" d="M 384.545 892.222 C 408.973 897.409 435.563 902.643 459.661 908.594 C 458.646 920.837 451.881 944.414 449.596 959.277 C 443.53 998.746 444.678 1030.06 447.284 1069.24 C 447.712 1073.6 447.895 1078.8 448.168 1083.23 C 404.989 1049.46 387.61 976.596 385.549 924.48 C 385.155 914.532 383.633 901.961 384.545 892.222 z"/>
<path transform="translate(0,0)" fill="rgb(0,0,0)" d="M 127.616 831.481 C 161.517 839.978 196.511 847.851 230.62 855.956 C 228.28 870.292 224.015 884.368 221.87 899.21 C 217.644 928.444 220.056 956.408 221.742 985.684 C 211.076 974.138 198.619 953.944 192.975 939.5 C 181.403 913.471 180.1 895.149 177.055 867.788 C 169.871 891.376 169.288 931.261 169.846 956.2 C 137.566 922.419 128.436 876.708 127.616 831.481 z"/>
<path transform="translate(0,0)" fill="rgb(0,0,0)" d="M 475.324 911.52 C 499.697 913.149 528.629 917.142 553.067 920.281 C 539.229 980.649 536.485 1003.15 542.721 1064.9 L 544.401 1080.97 C 543.731 1080.41 543.065 1079.83 542.402 1079.26 C 494.198 1037.36 479.668 972.44 475.324 911.52 z"/>
<path transform="translate(0,0)" fill="rgb(0,0,0)" d="M 527.255 1349.74 C 521.417 1285.09 521.18 1228.14 559 1172.23 C 566.121 1244.48 572.153 1276.93 596.496 1345.86 C 580.711 1346.88 541.148 1350.39 527.255 1349.74 z"/>
<path transform="translate(0,0)" fill="rgb(0,0,0)" d="M 303.973 872.592 C 326.685 877.706 349.332 883.104 371.909 888.783 C 356.411 948.864 354.707 967.274 355.056 1028.75 L 355.459 1046.35 C 330.184 1019.97 320.205 996.073 312.751 960.984 C 306.048 929.429 303.888 904.72 303.973 872.592 z"/>
<path transform="translate(0,0)" fill="rgb(0,0,0)" d="M 786.295 1155.67 C 789.066 1165.77 791.14 1189.69 793.679 1201.74 C 801.045 1236.7 811.222 1261.83 826.15 1293.59 C 816.137 1298.11 802.358 1302.62 791.763 1306.4 L 762.387 1315.88 C 755.005 1261.92 757.711 1203.54 786.295 1155.67 z"/>
<path transform="translate(0,0)" fill="rgb(0,0,0)" d="M 631.525 1205.64 C 634.632 1219.23 636.535 1234.96 639.739 1249.47 C 646.753 1279.86 656.875 1309.46 669.943 1337.78 C 663.164 1339.18 655.156 1339.87 647.66 1341.33 C 640.62 1340.67 617.257 1344.06 608.121 1344.51 C 600.79 1297.39 607.887 1247.37 631.525 1205.64 z"/>
<path transform="translate(0,0)" fill="rgb(0,0,0)" d="M 800.351 912.373 C 804.05 912.071 804.93 911.334 807.593 912.786 C 807.472 928.504 802.656 948.014 802.073 963.529 C 801.12 988.891 805.504 1018.09 808.424 1043.57 C 798.553 1035.2 793.257 1029.45 785.403 1019.38 C 763.508 993.499 752.247 952.464 744.336 919.918 C 762.941 916.931 781.619 914.415 800.351 912.373 z"/>
<path transform="translate(0,0)" fill="rgb(0,0,0)" d="M 711.788 922.433 C 715.023 922.041 721.709 921.982 725.213 921.856 C 715.463 968.396 718.153 1002.51 721.914 1048.69 C 713.343 1041.64 707.699 1035.51 700.713 1026.95 C 677.439 995.77 667.589 961.77 661.513 923.924 C 678.139 923.051 694.899 923.544 711.788 922.433 z"/>
<path transform="translate(0,0)" fill="rgb(0,0,0)" d="M 235.178 857.601 C 248.399 859.351 278.927 867.076 292.688 870.485 C 279.693 919.814 278.417 928.151 281.144 980.098 C 281.71 984.281 282.072 989.337 282.495 993.61 C 280.879 992.091 279.291 990.542 277.73 988.966 C 245.423 956.615 235.042 901.985 235.178 857.601 z"/>
<path transform="translate(0,0)" fill="rgb(0,0,0)" d="M 712.666 1214.88 C 714.45 1217.61 717.726 1236.84 718.558 1241.46 C 723.765 1270.37 733.133 1294.53 748.085 1319.78 C 738.236 1323.72 729.458 1325.88 719.247 1328.37 C 710.269 1330.83 700.337 1332.66 691.163 1334.55 C 685.37 1297.32 691.92 1246.71 712.666 1214.88 z"/>
<path transform="translate(0,0)" fill="rgb(0,0,0)" d="M 879.58 897.248 L 881.195 897.995 C 881.704 903.562 879.765 912.602 879.184 918.474 C 876.123 949.382 879.177 979.238 882.483 1009.97 C 872.24 1000.78 866.832 994.495 858.855 983.728 C 841.019 958.144 833.652 937.725 826.505 907.906 C 844.154 904.14 861.846 900.587 879.58 897.248 z"/>
<path transform="translate(0,0)" fill="rgb(0,0,0)" d="M 348.348 1237.69 C 350.54 1240 358.29 1271.03 360.111 1276.73 C 368.053 1301.62 381.523 1327.41 394.926 1349.67 L 381.248 1350.77 C 369.038 1351.42 353.738 1352.63 341.71 1354.02 C 332.734 1312.85 332.886 1277.66 348.348 1237.69 z"/>
<path transform="translate(0,0)" fill="rgb(0,0,0)" d="M 923.302 1146.66 C 927.014 1157.48 929.248 1168.21 933.634 1179.63 C 941.493 1200.09 951.392 1215.95 963.119 1234.32 C 954.254 1237.8 947.152 1241.16 938.587 1245.27 L 913.199 1258.82 C 905.173 1220.64 909.698 1182.94 923.302 1146.66 z"/>
<path transform="translate(0,0)" fill="rgb(0,0,0)" d="M 854.384 1180.66 C 864.514 1222.3 868.688 1231.95 890.282 1268.7 C 882.946 1272.19 871.116 1276.46 863.243 1279.54 C 855.074 1282.88 846.819 1286 838.487 1288.9 C 835.623 1250.34 836.863 1216.24 854.384 1180.66 z"/>
<path transform="translate(0,0)" fill="rgb(0,0,0)" d="M 947.594 878.085 L 950.48 878.151 C 951.596 880.154 949.583 893.287 949.201 896.56 C 946.331 921.117 948.087 945.596 949.684 970.196 C 941.818 963.98 935.549 956.864 929.162 949.245 C 913.326 930.26 906.369 914.819 899.403 891.558 C 914.186 886.821 932.617 882.075 947.594 878.085 z"/>
<path transform="translate(0,0)" fill="rgb(0,0,0)" d="M 1012.5 862.161 C 1015.15 861.818 1015.04 861.856 1017.68 862.364 C 1018.42 868.78 1014.38 881.328 1014.06 889.355 C 1013.4 905.924 1013.71 922.48 1013.84 939.043 C 1006.6 933.083 1001.99 928.457 996.191 921.182 C 982.045 904.152 976.763 893.441 969.868 872.443 C 984.018 868.534 998.196 865.41 1012.5 862.161 z"/>
<path transform="translate(0,0)" fill="rgb(0,0,0)" d="M 984.325 1138.43 C 987.46 1140.61 991.801 1149.98 993.746 1153.83 C 1000.49 1167.18 1008.21 1178.55 1016.56 1190.9 C 1012.03 1195.58 1003.32 1202.37 998.056 1206.74 C 991.837 1211.87 985.538 1216.91 979.162 1221.85 C 977.524 1195.27 977.578 1164.32 984.325 1138.43 z"/>
<path transform="translate(0,0)" fill="rgb(253,253,253)" fill-opacity="0.854902" d="M 411.349 1349.19 L 437.05 1350.1 C 437.891 1352.83 438.372 1354.85 439.791 1357.36 C 433.062 1356.6 431.423 1352.7 427.878 1352.25 C 422.566 1351.58 413.043 1352.19 407.082 1352.09 C 408.85 1351.54 410.626 1351.02 412.409 1350.52 L 411.349 1349.19 z"/>
</svg>