<svg version="1.1" xmlns="http://www.w3.org/2000/svg" style="display: block;" viewBox="0 0 2048 1638" width="1920" height="1536" preserveAspectRatio="none">
<path transform="translate(0,0)" fill="rgb(0,0,0)" d="M 631.595 633.569 C 627.817 632.682 627.187 633.244 625.137 630.918 C 622.961 619.454 622.526 606.785 621.623 595.123 C 614.365 501.411 624.634 403.833 679.364 324.609 C 739.786 237.145 839.84 184.084 942.696 164.792 C 1054.42 144.535 1169.62 169.568 1262.86 234.367 C 1349.88 294.079 1422.53 383.533 1442.09 489.339 C 1447.64 519.349 1448.7 548.549 1453.26 578.13 C 1458.09 609.496 1470.1 624.349 1463.42 659.058 L 1462.01 660.473 C 1459.18 660.273 1459.1 660.185 1456.54 659.344 C 1458.35 663.274 1458.86 662.61 1457.96 665.76 L 1454.84 668.588 C 1493.51 685.396 1507.84 710.272 1514.34 750.762 C 1520.65 750.959 1534.05 751.533 1533.56 762.422 C 1533.11 772.317 1521.82 772.569 1514.03 772.801 C 1507.58 815.031 1487.27 844.041 1447.17 860.744 C 1450.38 864.32 1450.82 865.002 1452.94 869.322 C 1455.44 926.427 1436.96 950.185 1414.25 999.113 C 1398.99 1032 1388.42 1070.86 1373.82 1104.26 C 1359.99 1136.42 1340.05 1175.98 1318.73 1203.84 C 1308.48 1217.24 1285.51 1230.23 1270.13 1236.26 C 1275.02 1238.28 1286.35 1243.64 1290 1247.29 C 1291.86 1246.26 1294.48 1244.28 1296.68 1245.77 C 1326.28 1265.81 1352.31 1291.36 1378.45 1315.7 C 1383.72 1320.61 1396.61 1325.22 1403.18 1329 C 1427.01 1341.26 1463.98 1355.51 1481.31 1375.39 C 1501.23 1398.24 1516.74 1439.29 1528.08 1468.03 C 1529.38 1471.35 1530.59 1474.71 1531.7 1478.11 L 1378.53 1478.26 C 1371.43 1480.1 1362.94 1479.82 1355.76 1478.5 C 1329.79 1476.78 1287.45 1478.07 1260.48 1478.06 L 1076.95 1478.09 C 1065.89 1478.11 995.685 1479.28 992.149 1476.77 C 986.141 1478.9 964.372 1479.48 958.276 1478.3 C 909.83 1476.89 855.017 1478.06 806.128 1478.06 L 516.798 1478.11 C 515.496 1448.3 516.605 1409.55 516.621 1378.77 L 516.725 1187.45 C 539.657 1168.34 565.437 1156.38 587.99 1137.6 C 593.338 1133.14 606.888 1113.26 612.145 1106.58 C 648.632 1060.21 674.569 1051.77 728.94 1038.62 C 736.299 1035.45 739.828 1033.75 747.76 1032.19 C 746.6 1013.72 744.001 994.541 742.192 975.968 C 760.659 965.675 763.079 958.569 766.671 938.189 C 723.645 989.612 668.851 967.948 633.15 920.602 C 615.854 897.664 601.06 873.46 585.965 849.096 C 571.843 826.303 555.472 805.164 545.994 779.725 C 530.338 739.259 533.95 685.183 570.768 657.144 C 587.891 644.103 608.178 641.068 628.93 643.99 C 627.098 637.591 627.084 637.978 631.595 633.569 z M 1453.42 842.34 C 1463.64 836.509 1470.66 830.989 1478.57 822.128 C 1493.47 804.301 1500.07 785.706 1501.19 762.441 C 1482.32 753.565 1462.82 745.097 1444.14 736.122 C 1430.86 778.576 1451.73 802.136 1453.42 842.34 z M 1448.53 725.772 C 1462.83 731.485 1477.07 737.363 1491.25 743.405 L 1500.3 747.071 C 1494.96 722.688 1485.41 702.644 1463.7 688.627 C 1462.54 687.88 1461.36 687.161 1460.16 686.471 C 1456.45 699.694 1452.22 712.662 1448.53 725.772 z"/>
<path transform="translate(0,0)" fill="rgb(0,0,0)" d="M 631.595 633.569 C 627.817 632.682 627.187 633.244 625.137 630.918 C 622.961 619.454 622.526 606.785 621.623 595.123 C 614.365 501.411 624.634 403.833 679.364 324.609 C 739.786 237.145 839.84 184.084 942.696 164.792 C 1054.42 144.535 1169.62 169.568 1262.86 234.367 C 1349.88 294.079 1422.53 383.533 1442.09 489.339 C 1447.64 519.349 1448.7 548.549 1453.26 578.13 C 1458.09 609.496 1470.1 624.349 1463.42 659.058 L 1462.01 660.473 C 1459.18 660.273 1459.1 660.185 1456.54 659.344 C 1435.36 648.567 1396.01 653.23 1375.12 663.508 C 1349.37 676.31 1329.82 698.887 1320.83 726.201 C 1288.54 710.12 1262.23 713.72 1230.2 728.331 C 1227.85 719.517 1224.43 711.023 1220.01 703.039 C 1205.14 675.792 1183.38 658.473 1153.49 649.949 C 1124.37 641.757 1093.19 645.425 1066.76 660.15 C 1035.19 678.065 1019.44 704.01 1010.32 737.893 C 1002.83 738.247 995.319 738.828 988.069 736.804 C 963.775 730.025 938.528 721.499 914.521 713.835 L 768.826 667.71 C 762.4 665.678 755.918 663.469 749.458 661.542 C 722.609 653.534 709.026 644.652 682.518 658.163 C 668.575 646.645 649.895 635.588 631.595 633.569 z"/>
<path transform="translate(0,0)" fill="rgb(0,0,0)" d="M 516.725 1187.45 C 539.657 1168.34 565.437 1156.38 587.99 1137.6 C 593.338 1133.14 606.888 1113.26 612.145 1106.58 C 648.632 1060.21 674.569 1051.77 728.94 1038.62 C 730.9 1065.46 729.015 1096.38 715.596 1120.14 C 707.537 1134.41 699.238 1145.82 692.777 1161.13 C 714.575 1205.45 767.411 1259.8 801.152 1298.06 L 903.989 1415.92 C 921.422 1435.95 941.666 1458.08 958.276 1478.3 C 909.83 1476.89 855.017 1478.06 806.128 1478.06 L 516.798 1478.11 C 515.496 1448.3 516.605 1409.55 516.621 1378.77 L 516.725 1187.45 z"/>
<path transform="translate(0,0)" fill="rgb(0,0,0)" d="M 1290 1247.29 C 1291.86 1246.26 1294.48 1244.28 1296.68 1245.77 C 1326.28 1265.81 1352.31 1291.36 1378.45 1315.7 C 1383.72 1320.61 1396.61 1325.22 1403.18 1329 C 1427.01 1341.26 1463.98 1355.51 1481.31 1375.39 C 1501.23 1398.24 1516.74 1439.29 1528.08 1468.03 C 1529.38 1471.35 1530.59 1474.71 1531.7 1478.11 L 1378.53 1478.26 C 1359.34 1400.99 1319.5 1321.17 1279.93 1252.57 L 1290 1247.29 z"/>
<path transform="translate(0,0)" fill="rgb(254,254,254)" d="M 1008.78 776.092 C 1005.23 775.962 991.991 775.571 989.471 774.822 C 966.121 767.883 941.624 758.576 918.663 750.404 L 773.423 698.741 C 755.748 692.47 732.652 683.437 714.144 680.176 C 712.661 679.915 701.501 682.486 698.713 682.906 C 695.958 681.058 696.093 681.109 694.162 678.364 L 694.472 676.665 C 709.798 664.909 763.866 687.968 781.855 694.056 L 920.133 741.378 C 942.46 749.138 965.428 757.797 987.968 764.848 C 995.094 767.077 1009.76 766.856 1017.73 766.993 C 1018.78 789.436 1027.97 813.396 1042.41 830.657 C 1059.47 851.084 1083.98 863.855 1110.49 866.135 C 1137.97 868.61 1165.29 859.906 1186.27 841.992 C 1213.11 819.334 1222.06 792.919 1224.99 759.312 C 1255.53 738.143 1295.66 731.391 1324.97 758.236 C 1324.7 772.389 1325.74 781.365 1329.74 795.093 C 1346.02 851.019 1389.82 878.941 1447.17 860.744 C 1450.38 864.32 1450.82 865.002 1452.94 869.322 C 1448.99 870.642 1445 871.847 1440.98 872.936 C 1409.83 881.191 1384.2 874.942 1357.1 859.281 C 1363.63 885.399 1371.11 909.812 1365.49 937.289 C 1357.03 978.634 1314.61 994.02 1278.53 976.131 C 1266.35 970.093 1255.71 962.052 1243.11 956.036 C 1220.08 944.19 1180.45 948.943 1166.18 923.19 C 1154.2 901.579 1162.55 884.591 1182.58 873.964 C 1167.22 890.582 1161.63 909.911 1183.71 925.638 C 1199.26 936.718 1227.28 935.617 1245.85 944.26 C 1262.05 949.415 1275.88 964.333 1292.39 968.351 C 1348.47 982 1362.19 935.542 1352.15 890.099 C 1345.5 860.003 1342.16 839.216 1331.3 810.784 C 1325.88 796.601 1315.9 776.105 1313.65 763.212 L 1313.4 761.751 C 1287.9 744.504 1260.27 750.016 1235 764.682 C 1232.19 787.819 1226.82 807.011 1213.37 826.503 C 1195.92 852.028 1168.87 869.389 1138.39 874.618 C 1109.54 879.792 1079.83 873.095 1055.98 856.047 C 1027.72 835.892 1014.28 809.506 1008.78 776.092 z"/>
<path transform="translate(0,0)" fill="rgb(254,254,254)" d="M 747.76 1032.19 C 751.321 1090.25 745.583 1105.85 716.117 1154.4 C 739.627 1194.11 766.613 1223.85 796.468 1258.64 C 834.111 1302.8 872.645 1346.2 912.045 1388.8 C 936.931 1415.92 968.871 1449 992.149 1476.77 C 986.141 1478.9 964.372 1479.48 958.276 1478.3 C 941.666 1458.08 921.422 1435.95 903.989 1415.92 L 801.152 1298.06 C 767.411 1259.8 714.575 1205.45 692.777 1161.13 C 699.238 1145.82 707.537 1134.41 715.596 1120.14 C 729.015 1096.38 730.9 1065.46 728.94 1038.62 C 736.299 1035.45 739.828 1033.75 747.76 1032.19 z"/>
<path transform="translate(0,0)" fill="rgb(254,254,254)" d="M 631.595 633.569 C 649.895 635.588 668.575 646.645 682.518 658.163 C 709.026 644.652 722.609 653.534 749.458 661.542 C 755.918 663.469 762.4 665.678 768.826 667.71 L 914.521 713.835 C 938.528 721.499 963.775 730.025 988.069 736.804 C 995.319 738.828 1002.83 738.247 1010.32 737.893 C 1019.44 704.01 1035.19 678.065 1066.76 660.15 C 1093.19 645.425 1124.37 641.757 1153.49 649.949 C 1183.38 658.473 1205.14 675.792 1220.01 703.039 C 1224.43 711.023 1227.85 719.517 1230.2 728.331 C 1262.23 713.72 1288.54 710.12 1320.83 726.201 C 1329.82 698.887 1349.37 676.31 1375.12 663.508 C 1396.01 653.23 1435.36 648.567 1456.54 659.344 C 1458.35 663.274 1458.86 662.61 1457.96 665.76 L 1454.84 668.588 C 1450.87 667.256 1446.85 666.1 1442.78 665.124 C 1418.42 659.574 1392.85 663.829 1371.6 676.971 C 1346.71 692.679 1334.07 712.987 1327.59 741.122 C 1292.54 715.801 1258.87 724.242 1223.56 742.738 C 1221.27 727.87 1215.9 713.646 1207.78 700.979 C 1193.5 678.7 1170.86 663.102 1144.96 657.7 C 1081.56 644.24 1030.98 685.795 1018.58 746.931 C 998.513 748.428 992.495 749.447 973.41 742.966 C 955.658 736.938 937.367 731.157 919.515 725.321 L 773.785 677.941 C 766.881 675.705 759.719 673.016 752.752 671.106 C 727.058 664.062 706.628 650.498 683.326 670.206 C 667.118 656.857 649.248 648.667 628.93 643.99 C 627.098 637.591 627.084 637.978 631.595 633.569 z"/>
<path transform="translate(0,0)" fill="rgb(254,254,254)" d="M 1067.89 1206.92 C 1131.18 1235.82 1200.89 1258.22 1270.13 1236.26 C 1275.02 1238.28 1286.35 1243.64 1290 1247.29 L 1279.93 1252.57 C 1319.5 1321.17 1359.34 1400.99 1378.53 1478.26 C 1371.43 1480.1 1362.94 1479.82 1355.76 1478.5 C 1333.02 1400.1 1299.38 1325.29 1255.83 1256.26 C 1188.17 1270.52 1121.78 1248.16 1067.89 1206.92 z"/>
<path transform="translate(0,0)" fill="rgb(254,254,254)" d="M 1111.49 671.293 C 1161.04 665.81 1205.61 701.672 1210.85 751.25 C 1216.09 800.829 1180.01 845.214 1130.4 850.212 C 1081.14 855.176 1037.13 819.399 1031.92 770.162 C 1026.72 720.925 1062.28 676.738 1111.49 671.293 z"/>
</svg>