<svg version="1.1" xmlns="http://www.w3.org/2000/svg" style="display: block;" viewBox="0 0 2048 1638" width="1920" height="1536" preserveAspectRatio="none">
<path transform="translate(0,0)" fill="rgb(0,0,0)" d="M 1035.47 150.566 C 1097.26 147.746 1186.62 147.47 1243.57 175.027 C 1261.66 183.779 1257.23 228.162 1257.94 247.589 C 1259.06 282.901 1261.11 318.177 1264.08 353.382 C 1270.01 423.421 1278.66 493.205 1289.99 562.576 C 1296.77 602.04 1303.97 641.432 1311.59 680.745 C 1328.15 680.867 1526.65 684.701 1455.97 729.487 C 1429.61 746.186 1358.53 764.154 1325.33 771.96 C 1330.39 786.553 1335.45 815.053 1342.41 826.794 C 1346 832.852 1354.38 835.175 1358.11 841.66 C 1369.14 860.872 1338.1 871.628 1332.93 890.039 C 1331.38 895.569 1331.06 902.987 1333.21 908.433 C 1339.13 923.479 1354.18 937.115 1363.55 950.354 C 1373.21 963.984 1381.45 978.504 1389.27 993.242 C 1397.71 1009.16 1412.68 1034.39 1406.44 1052.87 C 1397.07 1080.63 1348.32 1066.6 1334.06 1075.05 C 1321.12 1082.72 1334.5 1116.23 1331.82 1127.15 C 1329.83 1135.24 1323.55 1138.76 1316.96 1142.78 C 1343.63 1171.31 1319.2 1171.28 1303.24 1188.32 C 1293.71 1198.47 1314.6 1210.49 1322.18 1215.58 C 1334.83 1224.07 1341.87 1236.48 1344.58 1251.79 C 1345.5 1256.44 1347.56 1265.24 1344.76 1269.59 C 1343.04 1268.56 1342.47 1268.14 1340.6 1267.48 C 1341.24 1280.58 1333.5 1321.19 1317.03 1322.03 C 1317.01 1319.37 1317.17 1317.46 1316.43 1314.88 C 1295.19 1336.97 1290.74 1340.53 1258.64 1341.24 C 1261.69 1336.4 1262.15 1334.68 1263.97 1329.31 C 1235.15 1343.32 1217.09 1337.23 1187.61 1328.54 C 1153.92 1339.69 1167.36 1366.21 1154.9 1391.76 C 1149.31 1403.23 1139.11 1411.85 1131.34 1422.01 C 1115.89 1442.2 1109.48 1465.53 1102.67 1489.49 C 1100.88 1489.75 1054.52 1453.82 1048.67 1449.54 C 967.52 1390.13 882.95 1338.69 786.961 1306.96 C 810.568 1260.49 829.227 1209.41 830.352 1156.83 C 777.322 1138.22 780.489 1105.96 764.391 1059.96 C 760.12 1047.76 747.111 1036.11 740.091 1025.05 C 729.308 1008.07 724.109 988.83 719.857 969.38 C 716.046 952.37 715.154 936.316 715.113 918.993 C 712.471 923.123 709.831 927.712 707.292 931.945 C 699.453 901.294 705.383 867.342 713.824 837.142 C 679.089 836.045 621.336 834.764 589.899 820.899 C 584.996 818.737 578.985 815.485 577.171 810.087 C 576.154 807.061 576.796 804.027 578.366 801.315 C 592.858 776.266 695.341 752.995 725.843 745.416 C 724.13 709.462 723.653 673.444 721.83 637.25 C 718.444 574.019 712.858 510.926 705.082 448.085 C 699.593 406.779 693.418 365.568 686.56 324.467 C 682.786 302.725 677.59 280.265 674.752 258.473 C 673.563 249.347 675.258 244.047 681.447 237.411 C 694.739 223.159 720.22 212.355 738.641 205.672 C 831.86 171.85 936.828 155.274 1035.47 150.566 z"/>
</svg>