<svg version="1.1" xmlns="http://www.w3.org/2000/svg" style="display: block;" viewBox="0 0 2048 1638" width="1920" height="1536" preserveAspectRatio="none">
<path transform="translate(0,0)" fill="rgb(0,0,0)" d="M 1200.08 93.4967 C 1255.52 48.0418 1324.37 48.2469 1374.98 100.646 C 1407.69 56.1869 1478.64 45.5954 1516.14 89.894 C 1520.97 95.6026 1523.99 100.295 1527.74 106.78 C 1535.92 102.712 1544.91 100.57 1554.05 100.52 C 1567.65 100.492 1580.69 105.949 1590.23 115.659 C 1603.68 129.17 1606.88 144.71 1607 163.001 C 1620.46 165.975 1630.03 169.214 1641.21 177.775 C 1656.36 189.237 1666.22 206.34 1668.56 225.191 C 1671.48 248.475 1664.65 265.422 1650.63 283.327 C 1667.38 295.694 1677.36 310.936 1675.59 332.526 C 1674.46 346.435 1667.72 359.287 1656.93 368.132 C 1642.65 379.83 1628.96 380.608 1611.58 378.723 C 1614.33 390.889 1621.58 419.339 1626.32 430.572 C 1637.47 457.015 1644.69 460.704 1647.29 491.108 C 1649.66 518.766 1622.84 523.703 1629.58 542.712 C 1634.48 556.536 1655.37 576.599 1664.16 590.963 C 1675.08 609.339 1683.69 627.83 1693.13 647.181 C 1700.61 662.532 1716.97 685.526 1719.05 701.78 C 1721.17 718.319 1702.37 729.5 1687.93 729.481 C 1680.08 729.47 1671.01 729.26 1663.01 728.662 C 1632.98 730.106 1649.45 758.685 1650.86 775.375 C 1651.54 783.38 1644.67 789.038 1639.61 793.807 C 1672.63 823.021 1637.17 821.246 1637.9 850.943 C 1638.06 857.275 1647.42 867.604 1650.29 873.893 C 1659.6 894.341 1653.29 921.285 1636.9 936.416 C 1619.09 953.003 1601.87 950.487 1579.83 949.529 C 1565.58 958.138 1553.92 967.059 1538.01 973.462 C 1519.7 980.829 1494.71 979.677 1478.73 989.612 C 1468.46 995.996 1466.74 1009.09 1464.69 1019.91 L 1463.76 1023.99 C 1462.99 1027.7 1461.04 1035.8 1461.3 1039.1 C 1459.44 1044.46 1457.21 1054.05 1456.62 1059.78 L 1455.76 1062.7 C 1450.61 1058.68 1440.22 1047.78 1435.08 1042.86 C 1425.29 1033.62 1414.97 1024.96 1404.16 1016.93 C 1386.13 1003.54 1366.35 992.02 1346.63 981.325 C 1336.97 976.199 1328.77 971.461 1322.28 962.406 C 1307.63 941.937 1307.58 922.887 1311.52 899.175 C 1317.89 896.168 1321.74 894.068 1327.77 890.399 C 1312.25 878.086 1323.25 878.469 1326.67 868.27 C 1286.57 898.03 1237.01 883.88 1243.99 828.31 C 1242.06 832.932 1240.46 836.816 1239.19 841.68 C 1232.98 865.608 1245.15 887.057 1267.74 896.201 C 1277.64 900.209 1283.81 900.141 1294.23 900.816 C 1288.57 926.946 1290.25 947.633 1304.72 970.669 C 1315.13 987.262 1332.79 998.391 1347.69 1010.69 C 1399.58 1053.53 1408.39 1116.16 1368.44 1170.39 C 1402.83 1198.64 1422.94 1220.3 1417.75 1267.66 L 1415.51 1277.09 C 1386.56 1252.18 1375.87 1250.28 1339.84 1240.35 C 1313.53 1233.09 1297.44 1218.07 1284.64 1194.65 C 1291.58 1245.11 1338.25 1251.39 1376.5 1271.02 C 1434.65 1300.87 1457.2 1378.26 1411.89 1429.37 C 1393.61 1448.94 1363.41 1457.12 1356.2 1485.41 C 1349.78 1510.64 1380.88 1535.63 1400.77 1518.39 C 1405.84 1513.99 1408.8 1507.64 1408.92 1500.93 C 1409.11 1482.91 1395.24 1482.67 1382.22 1483.29 L 1381.46 1482.46 C 1384.12 1478.87 1389.56 1473.13 1393.71 1472.31 C 1435.23 1464.2 1448.44 1509.49 1432.07 1538.96 C 1408.66 1581.09 1357.38 1589 1318.24 1568.3 C 1270.85 1543.24 1261.71 1479.73 1297.14 1440.88 C 1323.48 1411.65 1343.7 1392.34 1331.96 1350.09 C 1325.12 1424.44 1278.79 1412.15 1259.17 1477.5 C 1247.74 1484.1 1234.56 1486.95 1221.51 1486.4 C 1172.43 1484.3 1144.74 1449.25 1146.27 1402.49 C 1209.19 1444.01 1282.14 1389.89 1266.43 1317.78 C 1259.12 1351.54 1242.76 1384.89 1207.14 1394.16 C 1170.27 1403.76 1141.85 1383.14 1133.14 1348.32 C 1199.87 1333.26 1229.6 1274.41 1212.29 1209.34 C 1203.16 1175.45 1180.2 1144.41 1155.71 1119.62 C 1114.73 1078.12 1096.88 1027.63 1110.41 969.923 C 1091.42 1011.57 1093.74 1056.78 1115.46 1097.33 C 1122.25 1109.98 1133.45 1123.33 1142.61 1134.45 C 1171.43 1169.41 1200.38 1209.19 1194.44 1257.24 C 1191.78 1280.58 1182.99 1300.09 1163.98 1314.83 C 1149.1 1326.38 1130.2 1331.47 1111.53 1328.94 C 1096.36 1326.92 1081.94 1319.11 1072.8 1306.7 C 1064.47 1295.26 1061.01 1280.98 1063.2 1266.99 C 1065.31 1254.19 1070.47 1248.31 1080.5 1241.12 C 1064.52 1283.23 1118.13 1294.34 1134.42 1250.47 C 1139.86 1235.93 1139.26 1219.83 1132.75 1205.74 C 1123.79 1186.51 1108.89 1179.35 1090.27 1172.75 C 1117.82 1192.85 1132.46 1218.13 1118.76 1251.64 C 1112.88 1225.11 1094.88 1216.81 1071.5 1207.06 C 995.369 1175.3 979.294 1076.88 1012.83 1008.52 C 1028.81 975.922 1064.52 944.537 1055.91 903.472 C 1052.52 887.249 1044.03 877.348 1030.48 868.301 C 1049.91 894.426 1051.83 913.787 1035.58 942.466 C 1011.56 939.227 995.181 928.908 984.205 906.684 C 978.086 894.036 975.25 880.051 975.959 866.018 C 978.373 808.967 1021.39 799.727 1036.94 749.479 C 1050.18 706.649 1040.57 671.903 1021.23 633.98 C 1032 680.289 1042.38 722.802 1012.36 765.018 C 991.397 794.504 969.155 808.931 959.566 846.721 C 953.06 872.448 957.133 899.71 970.876 922.411 C 983.318 942.755 999.882 952.709 1022.46 958.227 C 1014.05 972.219 1004.69 984.196 996.818 999.2 C 975.888 1039.09 971.62 1094.04 985.379 1136.93 C 1000.43 1183.84 1025.02 1204.76 1066.29 1226.56 C 1047.57 1241.12 1042.54 1257.01 1043.58 1280.56 C 970.257 1222.26 878.879 1181.44 783.477 1187.07 C 763.464 1188.25 745.102 1191.97 725.517 1196.1 C 727.124 1192.24 728.435 1188.45 729.824 1184.51 C 709.339 1171.18 723.387 1160.88 720.557 1151.9 C 718.625 1155.34 714.551 1165.26 713.682 1169.02 C 700.711 1225.06 648.982 1255.59 596.532 1225.98 C 586.707 1220.43 580.427 1212.13 573.152 1203.16 C 577.997 1228.7 585.754 1239.42 608.679 1251.69 C 568.825 1290.28 544.554 1324.6 524.237 1377.24 C 516.642 1393.69 514.736 1426.5 501.309 1439.11 C 452.762 1484.69 373.195 1456.2 370.509 1389.16 C 407.289 1399.23 443.837 1390.08 459.882 1352.92 C 458.248 1354.64 456.514 1356.27 454.689 1357.79 C 417.871 1388.58 361.751 1379.67 332.234 1342.87 C 317.767 1325.07 311.059 1302.2 313.617 1279.4 C 317.075 1250.51 332.879 1231.21 354.988 1214.06 C 330.557 1181.88 332.675 1141.84 365.733 1115.83 C 368.83 1113.39 373.448 1110.58 377.188 1109.42 C 383.612 1106.77 381.787 1102 391.249 1100 L 391.389 1099.68 C 390.934 1096.82 390.59 1093.94 390.356 1091.05 C 386.666 1045.11 410.294 1009.95 457.988 1005.93 C 461.698 1005.58 468.056 1004.46 470.863 1006.59 C 472.586 1011.04 475.85 1020.66 475.383 1025.22 C 472.226 1027.32 467.987 1027.79 464.165 1028.33 C 470.265 1035.59 486.723 1047.76 496.486 1043.46 C 493.826 1040.12 484.242 1028.48 482.507 1025.46 C 472.037 1007.25 468.855 984.846 473.488 964.571 C 478.638 942.958 492.014 924.205 510.772 912.299 C 533.058 898.379 553.055 897.394 577.983 903.098 C 567.922 871.566 566.682 843.954 582.108 813.566 C 600.342 777.647 635.408 757.694 674.598 752.954 C 694.633 750.531 711.502 752.053 731.387 745.139 C 764.983 733.456 781.696 714.281 796.977 683.884 C 765.81 723.414 741.035 731.224 693.045 733.9 C 674.573 665.041 696.273 632.242 750.956 596.669 C 781.541 576.773 775.719 538.112 773.321 506.797 C 772.302 493.91 772.452 480.957 773.77 468.096 C 778.43 426.078 797.316 387.805 830.576 361.266 C 827.998 325.96 840.865 277.973 860.369 248.621 C 889 205.53 924.639 185.05 973.805 174.51 C 988.373 146.457 1017.98 116.877 1045.9 102.65 C 1097.67 76.2716 1146.57 77.3654 1200.08 93.4967 z M 596.615 1113.51 C 604.678 1112.54 608.884 1113.25 615.551 1117.69 C 629.473 1061.36 679.744 1057.54 727.654 1077.02 C 743.661 1083.53 758.74 1092.08 775.039 1098.09 C 767.491 1101.49 758.661 1104.84 753.137 1111 C 758.021 1108.47 763.393 1106.19 769.096 1108.11 C 771.282 1108.83 773.066 1110.44 774.015 1112.54 C 774.931 1114.53 774.646 1117.34 774.423 1119.46 C 800.192 1107.73 808.364 1112.79 834.412 1111.83 C 870.214 1110.51 911.112 1098.09 935.829 1071.17 C 965.635 1038.71 968.889 1005.43 967.89 964.2 C 960.572 1003.36 946.113 1035.59 914.349 1061.36 C 870.871 1096.64 809.737 1099.19 760.34 1075.28 C 737.31 1064.13 715.417 1048.17 689.282 1045.67 C 644.259 1041.72 601.385 1065.94 596.615 1113.51 z M 601.602 1151.43 C 599.455 1148.96 599.495 1148.67 598.603 1145.42 C 550.601 1140.98 511.532 1183.53 508.231 1229 C 506.244 1256.38 514.393 1282.69 530.815 1304.44 C 523.694 1264.49 517.35 1222.33 542.56 1186.27 C 555.158 1168.28 574.414 1156.05 596.057 1152.31 C 597.902 1152 599.75 1151.7 601.602 1151.43 z M 453.54 1048.42 C 444.06 1047.26 443.973 1044.59 434.495 1046.1 C 435.144 1083.13 460.397 1106.39 497.305 1105.65 C 517.96 1105.37 537.604 1096.66 551.676 1081.54 C 562.87 1069.71 567.505 1059.87 573.444 1045.31 C 557.529 1066.12 539.637 1083.15 512.676 1086.73 C 485.033 1090.4 454.857 1080.15 453.54 1048.42 z M 1290.84 761.04 C 1299.18 763.496 1306.86 765.475 1314.17 770.326 C 1347.53 792.442 1348.65 822.353 1336.46 855.905 C 1339.3 854.06 1341.4 851.199 1343.65 848.588 C 1351.82 845.699 1352.76 843.643 1360.02 848.455 C 1368.58 821.26 1362.11 793.148 1344.32 771.122 C 1341.31 767.398 1333.76 760.995 1333.41 757.927 C 1332.88 757.294 1332.37 756.653 1331.86 756.004 C 1326.35 748.911 1325.79 745.648 1326.84 737.377 C 1313.1 751.178 1307.87 753.173 1290.84 761.04 z M 1327.35 537.57 C 1322.17 544.318 1317.07 551.333 1308.05 552.158 C 1286.7 554.111 1277.5 526.081 1291.02 511.704 C 1299.96 502.2 1309.97 501.421 1321.75 501.966 C 1319.91 497.427 1324.64 485.57 1327 481.347 C 1308.33 484.719 1285.44 486.668 1273.73 503.532 C 1262.35 519.916 1265.66 547.892 1283.47 558.397 C 1305.74 571.54 1321.94 560.887 1327.35 537.57 z M 487.44 1157.41 C 458.565 1163.82 442.606 1158.74 418.043 1143.08 C 419.181 1147.42 419.79 1148.25 418.291 1152.2 C 415.672 1155.28 413.382 1156.06 409.336 1156.72 C 432.784 1174.08 463.349 1172.29 487.44 1157.41 z M 676.211 1170.26 C 649.38 1175.62 636.335 1173.12 620.352 1149.68 C 618.787 1153.79 618.811 1154.51 615.509 1157.09 C 611.238 1158.28 609.122 1157.13 604.8 1155.62 C 619.872 1184.66 650.559 1186.1 676.211 1170.26 z M 1285.61 616.125 C 1297.92 621.902 1304.69 624.995 1315.82 633.135 C 1318.56 621.806 1325.62 625.443 1333.83 621.255 C 1339.24 618.492 1336.24 612.038 1337.19 606.605 C 1339.43 603.71 1339.88 603.398 1340.85 599.977 C 1321.21 612.781 1309.14 616.355 1285.61 616.125 z M 1449.15 305.881 C 1451.86 298.209 1452.74 298.689 1460.09 296.086 C 1443.19 288.107 1428.31 279.288 1414.92 265.884 C 1421.4 281.491 1434.42 297.473 1449.15 305.881 z M 1533.01 297.207 C 1541.37 283.943 1537.49 271.08 1532.39 257.644 C 1529.28 271.404 1528.59 276.391 1520.71 287.846 C 1524.54 287.513 1526.41 286.917 1529.58 288.806 C 1531.97 291.931 1532.01 293.269 1533.01 297.207 z M 723.215 986.104 C 732.979 987.77 745.89 989.905 755.108 993.493 C 796.676 1009.67 845.875 1027.73 882.586 989.914 C 857.347 1002.93 837.452 1005.5 809.482 996.674 C 800.333 993.865 791.648 989.721 783.708 984.377 C 866.306 976.772 900.906 909.386 899.526 833.922 C 899.515 833.325 898.935 832.313 898.505 831.857 C 882.096 911.159 837.137 972.723 748.668 968.224 C 738.124 967.688 727.325 966.761 716.762 966.884 C 673.029 968.606 642.862 989.124 623.626 1027.74 C 653.803 995.552 678.35 983.832 723.215 986.104 z M 1330 1163.49 C 1331.28 1166.4 1331.89 1169.16 1334.15 1170.71 C 1335.16 1165.89 1332.69 1157.22 1331 1152.6 C 1320.6 1124.23 1290.94 1110.6 1267.78 1094.23 C 1210.17 1053.54 1194.81 978.567 1208.27 912.901 C 1208.7 910.756 1209.17 909.927 1208.62 907.743 C 1188.32 949.675 1185.32 997.91 1200.29 1042.03 C 1231.97 1132.76 1307.91 1113.75 1330 1163.49 z M 759.29 848.781 C 761.581 846.593 763.882 844.545 765.863 842.078 C 734.411 857.524 700.109 872.608 663.766 861.672 C 653.374 858.544 642.857 850.725 637.965 840.767 C 634.12 832.977 633.585 823.965 636.481 815.775 C 639.391 807.453 645.618 800.708 653.681 797.143 C 661.468 793.641 667.274 793.866 675.68 793.843 C 664.076 790.269 661.828 789.483 649.968 790.182 C 607.362 799.611 605.269 853.166 639.228 873.618 C 677.258 896.522 728.644 874.295 759.29 848.781 z M 1309.68 244.311 C 1286.21 247.74 1267.06 254.99 1252.46 274.655 C 1236.69 295.894 1229.57 330.159 1199.22 335.068 C 1183.78 337.564 1170.51 328.464 1159.8 318.549 C 1165.98 331.69 1173.77 341.002 1187.99 346.031 C 1199.93 350.289 1213.09 349.455 1224.39 343.724 C 1225.19 343.289 1225.99 342.854 1226.79 342.419 L 1227.88 341.634 C 1258.43 319.521 1259.78 278.038 1307.83 263.123 C 1322.38 258.643 1337.76 257.533 1352.8 259.877 C 1365.44 261.79 1374.29 265.32 1385.44 271.006 C 1364.27 251.478 1339.21 239.965 1309.68 244.311 z M 688.857 911.15 C 757.768 891.067 815.705 844.109 849.622 780.85 C 863.578 755.249 872.238 727.677 879.262 699.42 C 880.118 695.98 882.418 687.872 881.389 684.679 C 851.471 760.962 826.622 803.54 763.917 858.858 C 745.233 875.342 726.722 889.587 704.734 901.753 C 701.063 903.784 689.888 908.24 688.857 911.15 z M 1066.72 841.069 C 1079.59 851.716 1093.62 858.856 1110.34 856.59 C 1164.86 849.2 1203.49 790.419 1195.72 737.201 C 1193.44 721.557 1189.49 704.995 1179.82 692.673 C 1186.75 733.78 1185.46 773.309 1160.49 809.289 C 1148.84 826.087 1129.83 841.968 1109.07 845.283 C 1094.44 847.623 1079.49 843.983 1067.58 835.182 C 1063.22 831.992 1059.25 827.764 1055.61 823.784 C 1059.6 831.552 1061.42 834.158 1066.72 841.069 z M 1205.16 608.016 L 1214.66 615.225 C 1189.7 574.433 1172.7 543.426 1184.02 492.512 C 1190.17 464.883 1202.27 449.052 1220.7 428.762 C 1219.9 427.831 1220.35 427.964 1219.58 427.899 C 1167.17 456.255 1145.95 519.511 1173.62 573.602 C 1180.71 587.46 1192.85 598.612 1205.16 608.016 z M 1441.42 177.412 C 1445.54 183.388 1452.33 189.498 1455.86 196.35 C 1472.12 227.842 1473.2 247.47 1508.06 263.174 C 1472.4 225.883 1486.34 202.834 1461.05 172.687 C 1460.04 176.798 1459.98 178.443 1457.18 181.671 C 1450.5 184.602 1447.98 178.671 1441.42 177.412 z M 1382.38 1400.4 C 1403.22 1375.07 1403.65 1342.93 1377.46 1321.13 C 1369.33 1314.37 1359.65 1309.72 1349.28 1307.61 C 1383.46 1335.93 1392.59 1370.39 1371.48 1410.49 C 1374.99 1407.47 1379.5 1403.89 1382.38 1400.4 z M 713.442 704.773 C 716.23 682.961 721.339 669.779 739.309 656.113 C 753.453 645.357 787.205 628.792 787.818 607.845 C 760.061 644.289 704.407 629.045 713.442 704.773 z M 1361.85 184.476 C 1382.55 160.247 1402.64 159.079 1431.29 171.172 C 1430.59 163.435 1428.41 158.458 1435.36 154.082 C 1402.12 142.386 1375.2 151.034 1361.85 184.476 z M 1626.56 356.029 C 1653.45 346.174 1653.19 312.481 1628.84 305.596 C 1637.9 324.432 1637.75 347.121 1614.27 354.559 C 1617.26 356.481 1622.92 356.199 1626.56 356.029 z M 1544.63 179.931 C 1560.01 165.858 1572.08 161.976 1592.72 161.746 C 1582.45 155.686 1578.14 153.575 1566.04 153.336 C 1543.92 157.235 1535.32 174.542 1531.82 195.076 C 1536.26 189.358 1539.5 185.141 1544.63 179.931 z M 1060.22 211.443 C 1067.66 199.857 1071.2 195.68 1081.32 185.978 C 1108.55 162.19 1140.1 151.485 1175.96 152.014 C 1161.54 147.332 1151.43 145.497 1136.23 145.419 C 1093.31 149.384 1072.4 171.816 1060.22 211.443 z M 1344.79 166.696 C 1325.49 173.222 1310.12 175.281 1290.85 166.136 C 1271.25 156.829 1258.36 135.475 1268.12 114.263 C 1268.63 113.158 1268.51 113.313 1268.37 112.072 C 1262.44 117.285 1258.61 121.456 1255.8 128.853 C 1245.08 157.123 1269.34 185.136 1297.91 185.863 C 1311.33 186.204 1319.91 183.296 1331.76 177.685 C 1337.87 174.046 1339.94 171.996 1344.79 166.696 z M 1284.22 858.184 C 1293.27 857.801 1300.17 856.605 1306.8 849.336 C 1311.91 843.672 1314.47 836.164 1313.9 828.561 C 1313 815.602 1305.38 806.703 1294.34 800.9 C 1311.33 826.838 1302.8 850.729 1271.63 856.209 C 1275.38 856.922 1280.51 858.104 1284.22 858.184 z M 1271.71 721.523 C 1278.06 704.46 1278.13 694.549 1274.45 676.854 C 1298.24 688.873 1301.73 701.448 1297.43 726.822 C 1304.32 715.171 1309.56 702.731 1304.63 688.715 C 1296.69 666.115 1269.36 659.682 1249.85 650.791 C 1244.04 648.141 1235.37 640.257 1230.11 638.618 C 1235.67 645.934 1242.66 652.54 1247.93 660.03 C 1269.23 690.297 1260.79 738.326 1221.84 748.6 C 1217.51 749.74 1213.07 750.742 1208.75 752.052 C 1210.64 753.96 1217.4 754.534 1220.16 754.522 C 1235.38 754.455 1249.95 748.083 1260.59 737.291 C 1265.13 732.673 1268.88 727.348 1271.71 721.523 z M 1250.72 181.428 C 1202.67 184.371 1171.73 213.954 1175.31 263.423 C 1179.84 241.113 1185.6 224.91 1205.65 211.589 C 1207.71 210.197 1209.83 208.882 1211.99 207.646 C 1249.95 189.428 1286.34 196.303 1323.22 213.058 C 1306.53 194.895 1286.08 182.838 1260.94 181.752 C 1257.54 181.611 1254.13 181.503 1250.72 181.428 z M 1442.36 103.546 C 1471.17 99.2723 1488.52 116.655 1489.82 144.7 C 1489.8 147.181 1489.25 152.415 1490.41 153.926 C 1503.31 138.807 1502.02 116.182 1486.55 103.495 C 1479.75 97.964 1471.18 95.0793 1462.41 95.373 C 1454 97.0141 1449.79 99.2163 1442.36 103.546 z M 1611.67 267.892 C 1618.82 256.105 1623.04 246.036 1619.47 231.878 C 1617.14 222.328 1610.96 214.168 1602.4 209.329 C 1595.5 205.407 1587.01 203.674 1579.13 204.185 C 1564.51 207.248 1559.01 210.758 1550.34 223.084 C 1571.07 213.959 1598.74 213.012 1609.34 237.377 C 1610.16 239.302 1610.89 241.26 1611.55 243.246 C 1613.75 252.907 1613.06 258.016 1611.67 267.892 z M 422.445 1423.13 C 455.282 1438.4 480.92 1430.21 495.988 1396.03 C 496.971 1393.79 498.169 1391.24 497.519 1388.81 C 474.678 1416.57 448.838 1425.26 413.386 1417.4 C 416.286 1419.28 419.458 1421.47 422.445 1423.13 z M 1295.31 441.059 C 1359.41 409.341 1300.16 356.353 1375.44 327.885 C 1368.86 326.406 1368.08 326.924 1365.8 320.884 C 1352.59 321.705 1337.42 331.214 1329.36 341.032 C 1299.76 377.084 1333.99 405.651 1295.31 441.059 z M 544.517 933.785 C 524.204 942.222 512.921 959.255 522.983 980.75 C 527.803 990.807 536.482 998.49 547.05 1002.05 C 570.189 1010.03 594.19 997.368 610.403 981.225 C 615.229 976.478 619.986 971.929 624.399 966.776 C 598.72 981.14 559.842 1004.27 536.794 971.25 C 525.532 955.117 546.492 937.353 546.199 934.206 L 544.517 933.785 z M 1118.5 520.892 C 1102.48 540.358 1098.4 558.089 1100.31 582.489 C 1103.87 627.955 1131.13 641.785 1149.95 678.049 C 1158.56 694.646 1160.1 712.434 1161.99 730.89 L 1162.61 732.48 C 1169.44 713.416 1167.64 681.097 1157.97 663.906 C 1134.61 622.386 1095.58 584.274 1115.05 532.035 C 1115.89 529.761 1118.89 523.097 1118.5 520.892 z M 453.409 1224.69 C 448.089 1243.6 438.026 1275.73 419.539 1284.07 C 385.066 1299.61 357.361 1275.88 363.569 1239.91 C 359.389 1247.71 357.574 1251.86 356.073 1260.68 C 355.774 1287.33 373.376 1305.43 400.309 1305.81 C 430.488 1306.24 449.622 1274.99 452.522 1248.16 C 453.353 1241.05 455.163 1231.75 453.409 1224.69 z M 1256.47 940.604 C 1251.35 964.401 1257.04 990.605 1270.12 1011.05 C 1292.28 1045.7 1332 1046.6 1354.19 1083.76 C 1362.84 1098.24 1361.68 1104.04 1366.48 1115.03 C 1368.72 1092.87 1364.27 1069.01 1349.33 1052.22 C 1322.02 1021.52 1290.12 1023.47 1268.61 981.058 C 1259.94 963.96 1260.83 951.225 1256.47 940.604 z"/>
<path transform="translate(0,0)" fill="rgb(254,254,254)" d="M 1520.71 287.846 C 1524.54 287.513 1526.41 286.917 1529.58 288.806 C 1531.97 291.931 1532.01 293.269 1533.01 297.207 C 1521.74 319.361 1495.46 320.463 1473.78 317.559 C 1466.1 333.702 1458.11 345.511 1440.48 352.034 C 1422.95 358.521 1404.58 355.006 1394.57 374.967 C 1387.51 389.065 1392.35 408.12 1392.91 423.563 C 1394.07 455.943 1377.79 479.253 1349.35 493.287 C 1395.88 529.685 1386.77 597.024 1336.23 625.442 C 1354.11 646.715 1365.17 671.243 1362.79 699.623 C 1360.97 722.144 1350.42 743.063 1333.41 757.927 C 1332.88 757.294 1332.37 756.653 1331.86 756.004 C 1326.35 748.911 1325.79 745.648 1326.84 737.377 C 1353.46 703.92 1347.06 660.976 1315.82 633.135 C 1318.56 621.806 1325.62 625.443 1333.83 621.255 C 1339.24 618.492 1336.24 612.038 1337.19 606.605 C 1339.43 603.71 1339.88 603.398 1340.85 599.977 C 1344.63 593.352 1351.7 589.589 1355.07 580.226 C 1367.63 545.298 1358.87 514.007 1321.75 501.966 C 1319.91 497.427 1324.64 485.57 1327 481.347 C 1363.73 467.822 1379.84 446.305 1373.48 406.614 C 1369.21 382.385 1373.59 356.482 1397.85 344.62 C 1420.1 333.742 1444.91 340.6 1455.24 311.398 C 1454.08 308.079 1452.71 308.127 1449.15 305.881 C 1451.86 298.209 1452.74 298.689 1460.09 296.086 C 1466.58 298.453 1473.35 299.977 1480.23 300.622 C 1496.79 302.081 1508.2 298.18 1520.71 287.846 z"/>
<path transform="translate(0,0)" fill="rgb(254,254,254)" d="M 753.137 1111 C 758.021 1108.47 763.393 1106.19 769.096 1108.11 C 771.282 1108.83 773.066 1110.44 774.015 1112.54 C 774.931 1114.53 774.646 1117.34 774.423 1119.46 C 745.244 1136.69 740.344 1154.87 729.824 1184.51 C 709.339 1171.18 723.387 1160.88 720.557 1151.9 C 721.832 1143.31 744.481 1109.8 753.137 1111 z"/>
<path transform="translate(0,0)" fill="rgb(254,254,254)" d="M 377.188 1109.42 C 383.612 1106.77 381.787 1102 391.249 1100 C 395.695 1112.93 399.377 1123.32 408.782 1133.86 C 410.306 1135.56 417.547 1142.23 418.043 1143.08 C 419.181 1147.42 419.79 1148.25 418.291 1152.2 C 415.672 1155.28 413.382 1156.06 409.336 1156.72 C 391.82 1143.72 383.112 1130.34 377.188 1109.42 z"/>
<path transform="translate(0,0)" fill="rgb(254,254,254)" d="M 457.988 1005.93 C 461.698 1005.58 468.056 1004.46 470.863 1006.59 C 472.586 1011.04 475.85 1020.66 475.383 1025.22 C 472.226 1027.32 467.987 1027.79 464.165 1028.33 C 457.709 1034.74 454.496 1038.76 453.54 1048.42 C 444.06 1047.26 443.973 1044.59 434.495 1046.1 C 435.881 1026.99 444.255 1017.96 457.988 1005.93 z"/>
<path transform="translate(0,0)" fill="rgb(254,254,254)" d="M 1343.65 848.588 C 1351.82 845.699 1352.76 843.643 1360.02 848.455 C 1354.55 866.039 1343.81 880.971 1327.77 890.399 C 1312.25 878.086 1323.25 878.469 1326.67 868.27 C 1325.9 869.791 1337.58 854.887 1336.46 855.905 C 1339.3 854.06 1341.4 851.199 1343.65 848.588 z"/>
<path transform="translate(0,0)" fill="rgb(254,254,254)" d="M 596.615 1113.51 C 604.678 1112.54 608.884 1113.25 615.551 1117.69 C 615.001 1130.46 615.552 1137.66 620.352 1149.68 C 618.787 1153.79 618.811 1154.51 615.509 1157.09 C 611.238 1158.28 609.122 1157.13 604.8 1155.62 L 601.602 1151.43 C 599.455 1148.96 599.495 1148.67 598.603 1145.42 C 598.779 1134.96 595.166 1130.01 596.615 1113.51 z"/>
<path transform="translate(0,0)" fill="rgb(254,254,254)" d="M 1435.36 154.082 C 1446.62 159.039 1453.09 163.08 1461.05 172.687 C 1460.04 176.798 1459.98 178.443 1457.18 181.671 C 1450.5 184.602 1447.98 178.671 1441.42 177.412 C 1438.94 176.758 1433.68 172.81 1431.29 171.172 C 1430.59 163.435 1428.41 158.458 1435.36 154.082 z"/>
<path transform="translate(0,0)" fill="rgb(254,254,254)" d="M 1365.8 320.884 C 1380.55 318.004 1395.67 321.242 1409.85 325.427 C 1396.05 325.05 1388.81 324.967 1375.44 327.885 C 1368.86 326.406 1368.08 326.924 1365.8 320.884 z"/>
<path transform="translate(0,0)" fill="rgb(0,0,0)" d="M 1485.46 1013.03 C 1485.9 1010.88 1486.2 1007.21 1488.3 1006.38 C 1501.88 1000.96 1522.61 998.938 1537.1 995.454 C 1543.64 1050.29 1556.45 1059.47 1601.88 1085.44 C 1633.9 1103.74 1641.99 1148.34 1623.21 1180.76 C 1674.03 1195.27 1713.88 1234.19 1697.42 1290.39 C 1696.61 1293.15 1695.67 1295.88 1694.6 1298.55 C 1685.35 1294.6 1677.9 1291.61 1668.4 1288.34 C 1676.31 1258.94 1666.39 1239.99 1642.38 1222.7 C 1653.11 1241.15 1662.25 1256.38 1656.3 1278.73 C 1655.78 1280.66 1655.2 1282.57 1654.58 1284.46 C 1629.82 1272.66 1631.45 1269.6 1615.09 1251.35 C 1625.92 1288.58 1649.19 1295.04 1682.07 1309.68 C 1704.43 1319.63 1725.04 1339.75 1731.77 1363.82 C 1742.79 1405.9 1726.81 1435.06 1688.95 1452.65 C 1699.59 1453.24 1706.42 1454.21 1713.59 1463.06 C 1715.07 1466.39 1716.79 1471.3 1717.49 1474.9 C 1719.64 1486.63 1717.02 1498.74 1710.21 1508.53 C 1701.96 1520.43 1689.28 1528.53 1675.02 1531 C 1657.57 1534.11 1643.48 1529.21 1629.32 1519.45 C 1625.87 1501.43 1622.48 1467.57 1618.55 1444.05 C 1599.76 1331.75 1571.69 1215.67 1505.19 1121.13 C 1496.67 1109.01 1472.7 1080.34 1471.79 1076.44 C 1461.46 1071.99 1462.66 1068.68 1455.76 1062.7 L 1456.62 1059.78 C 1458.74 1057.62 1461.65 1055.27 1463.99 1053.25 C 1463.15 1048.11 1463.54 1043.81 1461.3 1039.1 C 1461.04 1035.8 1462.99 1027.7 1463.76 1023.99 C 1467.38 1021.22 1466.76 1018.88 1471.46 1016.58 L 1473.42 1017.41 C 1476.32 1022.73 1474.85 1026.94 1477.16 1032.9 C 1483.93 1030.91 1477.38 1020.59 1482.03 1015.34 L 1484.64 1015.82 L 1485.46 1013.03 z M 1682.85 1425.17 C 1685.09 1423.05 1687.59 1420.79 1689.7 1418.58 C 1694.48 1412.55 1699.89 1404.9 1700.76 1397.11 C 1705.49 1354.64 1666.37 1339.55 1632.89 1337.09 C 1667.91 1351.24 1702.8 1378.16 1685.08 1420.29 C 1684.39 1421.94 1683.64 1423.57 1682.85 1425.17 z M 1604.12 1165.09 C 1608.29 1152.84 1609.92 1139.28 1604.18 1127.33 C 1593.86 1105.84 1570.55 1104.34 1552.2 1093.7 C 1545.9 1090.05 1541.36 1082.49 1536.33 1078.54 C 1546.71 1117.5 1589.97 1109.61 1600.2 1148.02 C 1601.25 1151.96 1601.91 1166.81 1602.63 1167.29 L 1604.12 1165.09 z"/>
<path transform="translate(0,0)" fill="rgb(254,254,254)" d="M 1713.59 1463.06 C 1713.15 1465 1712.68 1466.93 1712.18 1468.86 C 1710.46 1475.29 1706.52 1482.01 1700.51 1485.22 C 1696.61 1487.29 1692.05 1487.69 1687.85 1486.35 C 1672.43 1481.49 1669.11 1460.16 1688.95 1452.65 C 1699.59 1453.24 1706.42 1454.21 1713.59 1463.06 z"/>
<path transform="translate(0,0)" fill="rgb(254,254,254)" d="M 1463.76 1023.99 C 1467.38 1021.22 1466.76 1018.88 1471.46 1016.58 L 1473.42 1017.41 C 1476.32 1022.73 1474.85 1026.94 1477.16 1032.9 C 1483.93 1030.91 1477.38 1020.59 1482.03 1015.34 L 1484.64 1015.82 C 1481.16 1032.42 1476.14 1061.04 1471.79 1076.44 C 1461.46 1071.99 1462.66 1068.68 1455.76 1062.7 L 1456.62 1059.78 C 1458.74 1057.62 1461.65 1055.27 1463.99 1053.25 C 1463.15 1048.11 1463.54 1043.81 1461.3 1039.1 C 1461.04 1035.8 1462.99 1027.7 1463.76 1023.99 z"/>
<path transform="translate(0,0)" fill="rgb(0,0,0)" d="M 1437.84 1242.99 C 1498.01 1313.2 1548.18 1400.01 1588.37 1482.91 C 1596.65 1499.98 1607.35 1520.43 1614.55 1537.69 C 1567.12 1542.83 1503.12 1540.21 1457.49 1526.11 C 1460.37 1490.32 1451.18 1466.18 1416.56 1451.61 C 1464.45 1408.42 1467.76 1344.91 1430.29 1293.62 C 1431.16 1291.13 1434.81 1277.71 1434.69 1277.99 C 1435.32 1275.73 1435.91 1272.37 1436.41 1269.99 C 1438.01 1259.87 1438.4 1253.27 1437.84 1242.99 z"/>
<path transform="translate(0,0)" fill="rgb(254,254,254)" d="M 1417.75 1267.66 C 1428.51 1266.15 1426.65 1273.08 1436.41 1269.99 C 1435.91 1272.37 1435.32 1275.73 1434.69 1277.99 C 1428.54 1277.18 1435.23 1276.31 1429.83 1275.06 L 1427.91 1276.67 C 1427.74 1278.98 1427.79 1279.01 1427 1281.17 C 1422.48 1282.04 1419.05 1279.55 1415.51 1277.09 L 1417.75 1267.66 z"/>
<path transform="translate(0,0)" fill="rgb(254,254,254)" fill-opacity="0.552941" d="M 1470.6 1009.8 C 1475.85 1010.77 1480.32 1011.54 1485.46 1013.03 L 1484.64 1015.82 L 1482.03 1015.34 C 1477.38 1020.59 1483.93 1030.91 1477.16 1032.9 C 1474.85 1026.94 1476.32 1022.73 1473.42 1017.41 L 1471.46 1016.58 C 1466.76 1018.88 1467.38 1021.22 1463.76 1023.99 L 1464.69 1019.91 C 1467.25 1018.36 1469.02 1013.07 1470.6 1009.8 z"/>
<path transform="translate(0,0)" fill="rgb(254,254,254)" fill-opacity="0.0117647" d="M 1461.3 1039.1 C 1463.54 1043.81 1463.15 1048.11 1463.99 1053.25 C 1461.65 1055.27 1458.74 1057.62 1456.62 1059.78 C 1457.21 1054.05 1459.44 1044.46 1461.3 1039.1 z"/>
</svg>