<svg version="1.1" xmlns="http://www.w3.org/2000/svg" style="display: block;" viewBox="0 0 2048 1638" width="1920" height="1536" preserveAspectRatio="none">
<path transform="translate(0,0)" fill="rgb(0,0,0)" d="M 1122.94 526.025 L 1124.15 525.845 C 1136.54 542.295 1153.73 569.863 1165.96 587.992 L 1254.38 719.02 L 1369.33 889.13 C 1389.67 919.152 1413.27 952.422 1432.54 982.824 C 1382.72 988.237 1331.65 991.256 1281.73 996.242 C 1260.81 998.33 1236.07 999.316 1215.69 1002.46 C 1219.86 1002.85 1231.01 1003.62 1234.52 1004.56 C 1243.29 1006.9 1249.18 1011.92 1258.97 1012.83 C 1292.88 1015.99 1323.54 1011.7 1357.39 1016.5 C 1359.44 1017.02 1363.04 1017.76 1364.75 1018.65 C 1372.99 1018.32 1388.28 1017.53 1396.08 1015.66 C 1402.83 1016.34 1465.48 1010.77 1472.44 1008.93 C 1478.82 1007.2 1484.76 1004.15 1489.87 999.962 C 1513.85 980.371 1504.59 958.885 1496.57 933.81 C 1493.75 924.99 1492.33 921.258 1484.73 915.267 C 1479.48 899.214 1481.82 890.261 1489.11 875.302 C 1509.67 833.151 1535.62 783.075 1585.08 768.447 C 1619.64 758.227 1697.03 753.361 1732.26 767.561 C 1745.16 772.76 1761.84 810.106 1766.52 823.741 C 1770.44 835.165 1766.72 842.457 1765.51 853.905 C 1778.73 875.864 1793.38 899.18 1786.43 925.773 C 1786.04 934.466 1788.11 944.056 1777.68 948.381 C 1760.35 955.567 1728.92 945.108 1721.14 968.124 C 1704.53 1017.3 1715.86 1018.19 1747.24 1044.17 C 1752.79 1056.7 1751.45 1061.77 1754.61 1073.22 C 1780.81 1091.26 1766.98 1104.27 1780.91 1124.74 C 1798.24 1131.76 1814.97 1132.35 1808.4 1155.61 C 1830.91 1182.2 1841.35 1181.14 1833.28 1218.91 C 1851.44 1235.91 1854.16 1233.53 1863.58 1256.76 C 1904.93 1258.35 1946.27 1260.21 1987.6 1262.33 C 2007.58 1263.32 2028.17 1263.45 2048 1265.12 L 2048 1374.99 C 1969.81 1376.46 1887.16 1374.94 1808.72 1375.08 L 1679.13 1375.21 C 1655.27 1375.23 1628.87 1375.77 1605.18 1374.92 C 1598.52 1370.1 1592.24 1362.65 1583.94 1356.48 C 1581.6 1329.24 1586.3 1318.68 1567.89 1297.08 C 1565.38 1294.14 1563.32 1276.04 1562.71 1271.5 C 1504.66 1270.24 1442.54 1271.29 1384.23 1271.2 C 1383.19 1277.27 1382.05 1301.7 1380.88 1304.43 C 1371.94 1325.33 1372.2 1336.18 1372.15 1359 C 1320.88 1359.05 1268.79 1359.45 1217.58 1358.81 C 1213.4 1320.17 1203.29 1305.74 1168.65 1285.64 C 1165.76 1283.96 1139.08 1282.27 1133.95 1281.72 C 1091.94 1277.3 1050.1 1270.76 1007.75 1274.57 C 997.471 1275.49 976.793 1284.31 967.044 1288.94 C 997.081 1289.06 1027.87 1286.46 1057.95 1288.22 C 1082.88 1289.69 1108.22 1294 1133.12 1296.77 C 1143.22 1297.9 1155.63 1297.61 1165.37 1300.81 C 1176.04 1305.8 1195.29 1323.04 1198.9 1334.42 C 1202.91 1347.07 1203.23 1362.41 1203.93 1375.18 L 862.941 1375.12 L 760.056 1375.23 C 742.884 1375.25 724.707 1375.64 707.591 1374.69 C 702.683 1374.42 695.351 1368.97 691.663 1365.59 C 685.52 1370.79 667.676 1373.54 659.207 1374.68 C 653.05 1375.8 628.08 1375.26 620.492 1375.25 L 531.458 1375.18 C 520.984 1375.96 505.661 1375.49 494.981 1374.99 C 507.72 1353.69 529.532 1323.51 543.93 1302.13 L 642.92 1155.12 L 699.821 1070.52 C 706.553 1060.63 714.066 1049.08 721.446 1039.63 C 722.888 1037.78 722.515 1039.1 724.161 1035.94 C 731.292 1030.72 731.973 1029.25 740.29 1026 C 746.157 1017.37 746.044 1017.52 756.34 1017.04 C 762.413 997.941 775.81 987.198 773.323 966.518 C 776.827 962.26 791.554 944 793.43 944.271 C 806.7 946.188 808.629 940.628 820.573 935.072 C 823.882 935.359 822.332 934.778 825.071 937.551 C 830.022 935.777 1073.17 568.103 1101.48 533.271 C 1106.5 527.913 1115.82 525.714 1122.94 526.025 z"/>
<path transform="translate(0,0)" fill="rgb(0,0,0)" d="M 1122.94 526.025 L 1124.15 525.845 C 1136.54 542.295 1153.73 569.863 1165.96 587.992 L 1254.38 719.02 L 1369.33 889.13 C 1389.67 919.152 1413.27 952.422 1432.54 982.824 C 1382.72 988.237 1331.65 991.256 1281.73 996.242 C 1260.81 998.33 1236.07 999.316 1215.69 1002.46 C 1219.86 1002.85 1231.01 1003.62 1234.52 1004.56 C 1243.29 1006.9 1249.18 1011.92 1258.97 1012.83 C 1292.88 1015.99 1323.54 1011.7 1357.39 1016.5 C 1359.44 1017.02 1363.04 1017.76 1364.75 1018.65 C 1313.34 1025.25 1252.37 1029.11 1200.22 1033.59 L 1129.57 1039.85 C 1116.72 1040.99 1101.65 1042.97 1088.89 1043.11 C 1030.77 1043.67 972.503 1042.11 914.416 1043.64 C 910.215 1043.75 903.037 1045.91 898.814 1047.24 C 885.458 1051.42 878.196 1054.72 878.617 1069.21 C 844.372 1075.83 830.954 1070.24 828.764 1113.19 C 824.777 1114.3 809.505 1118.3 806.391 1119.95 C 790.793 1128.24 777.067 1151.51 768.436 1166.78 C 754.045 1192.24 745.377 1224.25 738.76 1252.62 C 735.844 1265.13 733.31 1282.23 729.006 1293.95 C 717.989 1300.5 709.065 1306.51 702.096 1317.71 C 693.412 1331.66 687.121 1349.22 691.663 1365.59 C 685.52 1370.79 667.676 1373.54 659.207 1374.68 C 653.05 1375.8 628.08 1375.26 620.492 1375.25 L 531.458 1375.18 C 520.984 1375.96 505.661 1375.49 494.981 1374.99 C 507.72 1353.69 529.532 1323.51 543.93 1302.13 L 642.92 1155.12 L 699.821 1070.52 C 706.553 1060.63 714.066 1049.08 721.446 1039.63 C 722.888 1037.78 722.515 1039.1 724.161 1035.94 C 731.292 1030.72 731.973 1029.25 740.29 1026 C 746.157 1017.37 746.044 1017.52 756.34 1017.04 C 762.413 997.941 775.81 987.198 773.323 966.518 C 776.827 962.26 791.554 944 793.43 944.271 C 806.7 946.188 808.629 940.628 820.573 935.072 C 823.882 935.359 822.332 934.778 825.071 937.551 C 830.022 935.777 1073.17 568.103 1101.48 533.271 C 1106.5 527.913 1115.82 525.714 1122.94 526.025 z"/>
<path transform="translate(0,0)" fill="rgb(0,0,0)" d="M 1122.94 526.025 L 1124.15 525.845 C 1136.54 542.295 1153.73 569.863 1165.96 587.992 L 1254.38 719.02 L 1369.33 889.13 C 1389.67 919.152 1413.27 952.422 1432.54 982.824 C 1382.72 988.237 1331.65 991.256 1281.73 996.242 C 1260.81 998.33 1236.07 999.316 1215.69 1002.46 C 1210.89 1001.98 1184.75 1004.78 1178.27 1005.39 C 1151.06 1008.01 1123.83 1010.44 1096.58 1012.7 C 1069.62 1014.73 1025.6 1013.39 997.471 1013.41 L 1122.94 526.025 z"/>
<path transform="translate(0,0)" fill="rgb(254,254,255)" d="M 1101.48 533.271 C 1106.5 527.913 1115.82 525.714 1122.94 526.025 L 997.471 1013.41 C 1025.6 1013.39 1069.62 1014.73 1096.58 1012.7 C 1123.83 1010.44 1151.06 1008.01 1178.27 1005.39 C 1184.75 1004.78 1210.89 1001.98 1215.69 1002.46 C 1219.86 1002.85 1231.01 1003.62 1234.52 1004.56 C 1243.29 1006.9 1249.18 1011.92 1258.97 1012.83 C 1292.88 1015.99 1323.54 1011.7 1357.39 1016.5 C 1359.44 1017.02 1363.04 1017.76 1364.75 1018.65 C 1313.34 1025.25 1252.37 1029.11 1200.22 1033.59 L 1129.57 1039.85 C 1116.72 1040.99 1101.65 1042.97 1088.89 1043.11 C 1030.77 1043.67 972.503 1042.11 914.416 1043.64 C 910.215 1043.75 903.037 1045.91 898.814 1047.24 C 885.458 1051.42 878.196 1054.72 878.617 1069.21 C 844.372 1075.83 830.954 1070.24 828.764 1113.19 C 824.777 1114.3 809.505 1118.3 806.391 1119.95 C 790.793 1128.24 777.067 1151.51 768.436 1166.78 C 754.045 1192.24 745.377 1224.25 738.76 1252.62 C 735.844 1265.13 733.31 1282.23 729.006 1293.95 C 717.989 1300.5 709.065 1306.51 702.096 1317.71 C 693.412 1331.66 687.121 1349.22 691.663 1365.59 C 685.52 1370.79 667.676 1373.54 659.207 1374.68 C 660.01 1330.4 667.906 1301.78 704.45 1274.09 C 714.055 1218.85 741.434 1111.21 801.7 1090.78 C 809.117 1060.25 823.435 1047.29 854.599 1042.91 C 886.784 1006.87 925.059 1013.21 969.285 1013.51 L 1057.92 694.316 L 1086.28 591.837 C 1090.67 575.917 1098.91 548.666 1101.48 533.271 z"/>
<path transform="translate(0,0)" fill="rgb(254,254,255)" d="M 773.323 966.518 C 776.827 962.26 791.554 944 793.43 944.271 C 806.7 946.188 808.629 940.628 820.573 935.072 C 823.882 935.359 822.332 934.778 825.071 937.551 C 821.833 947.865 776.473 1011.43 767.707 1024.47 L 610.242 1258.16 L 557.615 1336.06 C 549.748 1347.73 538.338 1363.6 531.458 1375.18 C 520.984 1375.96 505.661 1375.49 494.981 1374.99 C 507.72 1353.69 529.532 1323.51 543.93 1302.13 L 642.92 1155.12 L 699.821 1070.52 C 706.553 1060.63 714.066 1049.08 721.446 1039.63 C 722.888 1037.78 722.515 1039.1 724.161 1035.94 C 731.292 1030.72 731.973 1029.25 740.29 1026 C 746.157 1017.37 746.044 1017.52 756.34 1017.04 C 762.413 997.941 775.81 987.198 773.323 966.518 z"/>
<path transform="translate(0,0)" fill="rgb(0,0,0)" d="M 539.654 268.911 L 540.777 266.867 C 545.021 269.689 595.692 343.948 601.437 352.143 L 741.5 551.821 L 845.278 699.772 C 862.344 724.094 882.609 751.454 898.676 775.906 L 770.739 965.021 L 741.874 1007.48 C 737.212 1014.36 727.103 1028.84 724.161 1035.94 C 722.515 1039.1 722.888 1037.78 721.446 1039.63 C 714.066 1049.08 706.553 1060.63 699.821 1070.52 L 642.92 1155.12 L 543.93 1302.13 C 529.532 1323.51 507.72 1353.69 494.981 1374.99 C 476.729 1376.56 439.209 1374.82 419.254 1375.12 C 359.066 1376.01 297.401 1373.99 237.24 1375.36 C 226.587 1376.43 212.06 1375.41 200.885 1375.19 C 191.497 1375.58 181.126 1375.34 171.699 1375.24 C 114.566 1374.63 57.0982 1376.06 0 1374.86 L 0 1012.9 C 38.5026 956.476 80.1171 899.262 119.602 843.335 L 334.593 538.256 L 460.714 359.44 L 496.655 308.507 C 503.417 298.874 512.188 285.679 519.494 276.955 C 524.594 272.763 532.982 271.088 539.654 268.911 z"/>
<path transform="translate(0,0)" fill="rgb(0,0,0)" d="M 0 1012.9 C 38.5026 956.476 80.1171 899.262 119.602 843.335 L 334.593 538.256 L 460.714 359.44 L 496.655 308.507 C 503.417 298.874 512.188 285.679 519.494 276.955 C 517.168 289.491 510.961 308.8 507.201 321.572 L 485.696 394.674 L 414.945 636.91 L 200.885 1375.19 C 191.497 1375.58 181.126 1375.34 171.699 1375.24 C 114.566 1374.63 57.0982 1376.06 0 1374.86 L 0 1012.9 z"/>
<path transform="translate(0,0)" fill="rgb(254,254,255)" d="M 519.494 276.955 C 524.594 272.763 532.982 271.088 539.654 268.911 L 237.24 1375.36 C 226.587 1376.43 212.06 1375.41 200.885 1375.19 L 414.945 636.91 L 485.696 394.674 L 507.201 321.572 C 510.961 308.8 517.168 289.491 519.494 276.955 z"/>
<path transform="translate(0,0)" fill="rgb(0,0,0)" d="M 1400.39 1285.34 C 1415.96 1286.08 1435.32 1285.33 1451.24 1285.29 L 1550.36 1285.4 C 1553.67 1308.37 1560.08 1306.85 1566.55 1323.58 C 1569.85 1332.1 1569.78 1363.63 1570.34 1375.2 L 1556.5 1375.23 L 1449.39 1375.07 C 1429.57 1375.03 1406.58 1374.45 1386.97 1375.42 C 1386.95 1365.58 1387.12 1355.6 1387.05 1345.84 C 1386.94 1331.06 1391.71 1319.29 1394.85 1305.18 C 1396.23 1298.99 1396.1 1292.35 1397.87 1286.29 L 1400.39 1285.34 z"/>
<path transform="translate(0,0)" fill="rgb(254,254,255)" fill-opacity="0.988235" d="M 1357.39 1016.5 C 1367.09 1016.25 1387.6 1006.12 1396.08 1015.66 C 1388.28 1017.53 1372.99 1018.32 1364.75 1018.65 C 1363.04 1017.76 1359.44 1017.02 1357.39 1016.5 z"/>
</svg>