<svg version="1.1" xmlns="http://www.w3.org/2000/svg" style="display: block;" viewBox="0 0 2048 1638" width="1920" height="1536" preserveAspectRatio="none">
<path transform="translate(0,0)" fill="rgb(0,0,0)" d="M 990.887 110.565 C 1002.92 109.297 1024.7 109.854 1036.86 110.441 C 1110.15 113.424 1181.4 135.528 1243.51 174.558 C 1322.57 224.935 1380.48 303.158 1406.25 392.842 C 1416.05 426.929 1420.18 454.583 1439.04 485.484 C 1470.73 537.396 1534.65 545.836 1548.11 611.256 C 1555.09 645.19 1545.73 671.612 1527.79 699.461 C 1543.66 741.592 1528.06 786.959 1479.15 794.293 C 1472.93 795.226 1465.57 795.01 1459.21 795.095 C 1488.21 804.077 1516.57 797.778 1534.33 771.93 C 1549.12 750.386 1549.27 722.085 1544.5 697.368 C 1545.72 698.53 1546.92 699.704 1548.11 700.89 C 1569.39 722.105 1580.02 746.398 1580.15 776.51 C 1580.58 819.519 1552.03 861.053 1509.36 871.216 C 1497.95 873.933 1488.72 874.015 1477.14 873.879 C 1507.92 897.479 1534.9 896.775 1563.68 870.854 C 1553.91 907.985 1528.72 923.451 1491.27 923.115 C 1500.89 947.783 1496.67 966.361 1483.08 988.168 C 1506.68 972.211 1513.88 953.671 1512.42 925.616 C 1546.97 953.446 1543.42 1001.57 1516.72 1033.4 C 1500.25 1053.04 1477.73 1058.29 1453.49 1059.96 C 1473.29 1066.46 1488.48 1066.31 1508.41 1061.28 C 1481.6 1080.77 1464.69 1085.43 1432.21 1083.99 C 1432.84 1089.23 1432.95 1096.89 1433.2 1102.33 C 1438.02 1105.89 1448.73 1111.95 1454.32 1115.34 C 1466.23 1122.47 1477.95 1129.92 1489.47 1137.66 C 1527.49 1163.14 1563.68 1195.04 1595.74 1227.59 C 1570.11 1266.36 1540.62 1302.44 1507.72 1335.26 C 1369.58 1473.69 1187.97 1545.49 992.852 1545.52 C 823.457 1544.55 658.946 1488.66 524.016 1386.25 C 501.733 1369.43 472.041 1345 452.35 1325.34 C 499.781 1279.36 604.643 1212.08 663.873 1183.39 C 658.501 1199.37 650.074 1216.96 644.976 1233.02 C 632.71 1271.64 616.718 1324.77 611.298 1364.84 C 617.187 1363.09 623.124 1361.41 629.058 1359.82 C 689.643 1343.58 749.755 1326.2 810.497 1310.53 C 821.177 1323.43 833.543 1340.63 844.2 1354.31 C 883.726 1404.25 922.682 1437.27 971.944 1476.44 C 996.143 1452.27 1021.87 1429.18 1046.1 1404.95 C 1053.37 1397.69 1061.29 1390.13 1069.06 1383.44 C 1090.67 1393.6 1136.64 1423 1156.22 1436.02 C 1239.76 1354.78 1328.35 1282.01 1376.11 1172.56 C 1389.09 1142.8 1399.98 1112.1 1405.6 1080.05 C 1390.81 1053.73 1375.69 1027.6 1360.23 1001.67 C 1353.81 1033.48 1347.03 1065.21 1339.89 1096.87 C 1323.73 1170.89 1313.74 1216.28 1263.5 1274.98 C 1268.37 1263.59 1286.59 1217.55 1281 1207.4 L 1279 1207.06 C 1277.41 1209.19 1271.14 1232.68 1269.41 1237.45 C 1256.58 1272.71 1238.67 1295.94 1213.32 1322.58 C 1181.22 1302.63 1158.73 1284.92 1134.14 1255.28 C 1126.02 1245.5 1118.02 1232.12 1109.9 1223.03 L 1109.14 1222.2 C 1115.94 1244.55 1128.06 1262.57 1141.67 1281.2 C 1095.52 1258.5 1049.19 1220.95 1009.44 1188.6 C 951.014 1141.07 891.851 1095.22 855.995 1027.66 C 845.055 1006.94 836.572 985.016 830.72 962.328 C 828.624 954.213 821.844 920.337 816.112 917.842 C 810.36 920.46 808.15 932.129 804.724 937.824 C 793.395 956.657 766.814 968.902 746.552 974.776 C 733.023 978.698 702.728 985.409 690.438 978.523 C 681.496 973.512 678.165 956.757 676.182 947.522 C 665.249 968.319 664.892 984.294 670.728 1006.5 C 647.423 987.397 642.549 973.119 639.034 943.959 C 635.889 953.799 635.338 959.799 634.975 970.103 C 602.907 943.793 601.605 914.382 617.251 878.208 C 589.698 903.612 587.047 934.4 605.914 966.137 C 569.363 940.959 560.075 904.109 583.281 865.999 C 574.095 865.964 568.16 865.454 559.522 861.798 C 546.77 856.251 536.788 845.803 531.829 832.81 C 525.641 817.009 526.958 802.663 533.535 787.418 C 501.132 763.976 496.057 724.945 526.536 696.781 C 537.229 686.9 549.742 683.219 563.293 678.961 C 514.115 677.203 480.961 712.846 493.648 762.032 C 498.08 779.213 505.585 792.018 515.431 806.513 C 503.687 798.225 493.777 789.565 485.58 777.676 C 455.065 733.416 473.917 677.097 516.021 648.427 C 505.387 633.973 499.377 619.993 498.353 601.792 C 497.795 590.096 499.646 578.411 503.792 567.46 C 522.058 518.798 571.647 511.648 598.842 472.434 C 614.703 448.579 621.222 419.154 629.108 391.95 C 677.278 225.776 818.756 120.34 990.887 110.565 z M 706.936 946.795 C 718.617 942.545 721.932 940.859 732.622 934.182 C 748.028 924.56 765.758 906.63 783.204 902.049 C 795.279 900.341 806.48 910.313 818.572 908.488 C 825.797 907.325 832.195 903.499 839.037 901.09 C 847.79 898.009 858.559 901.062 867.008 904.016 C 895.1 913.834 921.326 929.638 947.762 943.225 C 970.664 954.996 983.049 967.497 1010.42 963.411 C 985.678 987.074 954.351 983.548 923.899 973.804 C 953.204 1041.52 1019.51 1095.41 1086.7 1123.14 C 1107.92 1131.9 1146.47 1142.9 1167.74 1133.4 C 1191.63 1122.72 1199.95 1087.9 1188.13 1065.56 C 1181.06 1052.21 1173.88 1043.92 1163.31 1033.33 C 1195 1041.21 1221.84 1041.4 1253.59 1034.79 C 1256.1 1034.17 1260.59 1032.6 1262.7 1033.51 C 1249.09 1051.44 1239.18 1070.25 1243.4 1093.46 C 1245.38 1104.34 1251.83 1131.02 1267.19 1129.2 C 1277.63 1127.97 1288.82 1112.23 1294.35 1104.38 C 1317.13 1070.35 1333.86 1024.07 1342.64 984.339 C 1322.38 978.862 1303.89 973.564 1283.26 966.336 C 1264.22 959.663 1232.2 950.299 1239.27 922.425 C 1240.53 917.474 1243.02 914.575 1246.42 910.92 C 1247.57 895.604 1249.23 880.332 1251.43 865.131 C 1257.88 868.563 1263.46 871.764 1271.09 869.758 C 1287.06 864.363 1300.09 843.753 1307.13 828.937 C 1316.87 808.436 1333.82 778.083 1328.79 755.19 C 1327.71 750.27 1324.54 742.996 1318.77 743.888 C 1316.63 745.652 1314.72 754.447 1313.75 757.575 C 1309.33 771.89 1302.16 784.439 1290.98 794.642 C 1296.32 781.076 1304.8 757.183 1291.92 745.3 C 1288.36 744.399 1289.93 744.14 1287.01 745.551 C 1283.15 752.665 1280.83 760.307 1277.12 767.348 C 1268.48 783.77 1254 804.365 1235.41 810.196 C 1216 816.285 1203.61 804.45 1200.09 786.113 C 1197.27 771.412 1197.76 758.063 1199.41 743.28 C 1210.72 761.977 1222.2 769.389 1243.92 772.057 C 1214.51 749.806 1203.87 720.243 1212.85 684.219 C 1220.71 704.213 1231.31 719.778 1250.77 730.118 C 1230.52 701.557 1219.11 673.876 1224.51 637.984 C 1226.63 623.946 1233.87 609.188 1234.64 595.493 C 1236.06 570.224 1226.42 547.764 1218.2 524.242 C 1209.18 496.309 1218.96 460.291 1223.47 431.502 C 1234.17 363.173 1222.37 296.861 1182.32 239.78 C 1131.96 168.009 1052.44 141.022 967.529 144.414 C 882.024 150.902 805.556 188.009 749.184 252.954 C 700.331 309.236 676.057 378.749 670.324 452.245 C 668.307 478.109 667.404 503.561 665.019 529.559 C 662.738 554.428 650.938 583.022 652.164 607.228 C 653.112 625.938 666.637 654.664 667.268 672.881 C 668.218 700.311 661.047 730.468 660.81 758.374 C 660.433 802.757 675.562 842.458 687.626 884.401 C 694.015 906.61 697.887 925.307 706.936 946.795 z M 1423.1 577.13 C 1453.31 591.727 1480.53 604.988 1492.49 639.421 C 1495.7 648.601 1497.29 658.271 1497.17 667.997 C 1497.13 671.363 1495.75 683.874 1496.63 685.28 C 1497.91 683.014 1498.46 682.072 1499.4 679.559 C 1518.06 619.415 1482.99 581.895 1423.1 577.13 z M 1394.45 884.527 L 1395.22 885.603 C 1413.31 910.599 1461.63 923.813 1455.75 968.143 C 1454.47 977.776 1450.33 985.25 1445.88 993.774 C 1447.91 992.015 1450.81 989.66 1452.67 987.862 C 1486.21 943.585 1452.31 906.953 1410.48 892.041 C 1405.34 890.21 1399.6 886.287 1394.45 884.527 z M 1281.46 909.685 C 1301.79 923.28 1321.25 938.557 1341.12 952.817 C 1344.37 955.087 1344.62 956.224 1347.42 955.768 C 1348.88 952.907 1348.64 948.744 1348.75 945.392 C 1339.44 935.792 1305.91 902.009 1293.74 901.919 C 1289.29 904.503 1285.57 906.567 1281.46 909.685 z M 608.132 619.323 C 595.009 624.398 582.336 628.198 568.904 622.143 C 544.496 611.138 542.422 581.832 552.514 560.502 C 556.263 552.682 561.482 545.655 567.885 539.806 C 571.39 536.624 580.27 531.994 581.089 530.271 L 579.542 530.037 C 562.661 533.786 549.952 540.614 540.448 555.648 C 532.372 568.425 529.705 583.887 533.033 598.63 C 539.611 626.906 566.223 641.603 593.259 629.546 C 599.018 625.974 602.753 623.429 608.132 619.323 z M 1381.7 691.667 C 1394.06 702.417 1401.64 717.638 1402.78 733.979 C 1403.34 742.69 1401.85 749.299 1399.96 757.73 C 1402.08 757.013 1401.08 757.534 1402.67 755.611 C 1413.75 732.044 1412.22 697.915 1381.7 691.667 z M 1508.28 617.548 C 1514.88 589.336 1507.09 565.8 1477.3 556.777 C 1492.94 569.575 1501.78 582.372 1505.63 603.186 C 1506.42 607.428 1504.67 615.237 1506.73 618.718 L 1508.28 617.548 z M 1354.61 651.843 C 1365.19 652.753 1375.18 653.103 1385.26 656.597 C 1434.5 673.662 1445.15 712.243 1429.47 757.41 C 1441.07 746.019 1448.12 728.672 1448.13 712.405 C 1448.11 695.527 1441.33 679.361 1429.31 667.512 C 1415.86 654.254 1397.03 647.366 1378.24 647.772 C 1375.19 647.828 1372.13 648.011 1369.09 648.32 C 1364.04 649.403 1359.55 650.32 1354.61 651.843 z M 614.719 708.014 C 593.189 717.185 569.871 731.765 560.899 754.325 C 548.616 785.214 565.933 814.238 591.368 831.125 L 600.559 836.517 C 562.788 795.502 560.346 759.677 602.997 719.795 C 605.076 717.851 614.93 710.199 615.262 708.369 L 614.719 708.014 z"/>
<path transform="translate(0,0)" fill="rgb(0,0,0)" d="M 1194.52 905.198 C 1232.28 900.134 1234.31 944.059 1206.25 955.325 C 1189.26 962.144 1165.31 966.936 1147.18 971.712 C 1121.62 978.446 1094.19 986.038 1068.17 989.74 C 1055.94 991.667 1046.94 991.658 1034.8 990.957 C 1078.56 955.447 1138.76 916.978 1194.52 905.198 z"/>
</svg>