<svg version="1.1" xmlns="http://www.w3.org/2000/svg" style="display: block;" viewBox="0 0 2048 1638" width="1920" height="1536" preserveAspectRatio="none">
<path transform="translate(0,0)" fill="rgb(0,0,0)" d="M 1022.76 0 L 1025.19 0 C 1029.14 32.7492 1029.67 62.4252 1032.82 93.7823 C 1050.63 107.195 1050.42 120.911 1033.25 134.718 C 1038.71 148.476 1039.83 151.401 1037.77 166.028 C 1057.14 198.647 1107.87 240.289 1139.33 263.305 C 1145.14 267.557 1161.88 270.484 1167.6 276.183 C 1171.03 279.605 1169.8 287.517 1169.46 292.213 C 1188.92 306.117 1208.13 318.08 1227.35 333.01 C 1279.59 373.244 1321.63 423.125 1343.51 485.897 C 1363.5 543.241 1364.84 610.716 1342.8 667.634 C 1333.64 691.272 1336.7 701.238 1337.05 726.251 C 1352.35 702.051 1370.32 687.429 1392.33 668.804 C 1403.21 659.593 1427.3 652.847 1432.58 635.694 C 1436.8 617.431 1438.51 592.447 1441.44 573.32 C 1445.96 594.09 1445.62 622.032 1452.78 639.717 C 1457.5 651.358 1486.37 664.641 1498.25 674.614 C 1543.49 712.583 1558.43 728.512 1558.38 793.2 C 1565.87 795.64 1578.64 798.717 1583.46 804.398 C 1584.17 813 1562.84 816.885 1555.88 818.656 L 1555.93 918.261 L 1593.13 918.189 C 1593.2 890.811 1594.53 854.741 1592.02 827.118 C 1591.86 825.423 1588.5 820.323 1587.36 818.626 C 1591.82 812.984 1595.79 808.19 1600.58 802.825 C 1601.63 793.179 1602.61 782.114 1604.14 772.664 C 1606.07 783.145 1607.13 791.84 1608.29 802.453 L 1621.62 818.635 C 1619.99 820.837 1616.91 824.952 1616.68 827.48 C 1614.53 851.849 1613.84 895.84 1615.5 919.699 C 1626.64 921.019 1635.69 922.618 1646.73 924.732 C 1646.52 922.449 1645.99 916.916 1646.7 915.022 C 1651.08 903.268 1666.08 885.917 1674.3 876.085 C 1676.81 873.086 1679.36 870.122 1681.95 867.192 C 1682.58 848.636 1688.52 849.038 1706.13 849.668 C 1711.38 849.855 1716.74 850.1 1722 850.082 C 1722.02 834.228 1722.21 818.336 1722.06 802.487 C 1721.93 788.007 1723.95 775.164 1716.13 762.399 C 1733.48 741.063 1728.02 744.493 1733 719.813 C 1734.58 729.118 1735.58 736.036 1736.42 745.466 C 1741 751.427 1745.12 756.416 1750.05 762.096 C 1746.88 766.767 1745.25 769.597 1744.8 775.446 C 1743.4 793.587 1743.95 813.312 1743.95 831.578 L 1743.96 939.202 C 1749.29 940.205 1754.67 941.109 1759.89 942.557 C 1760 918.457 1760.18 894.353 1760.06 870.254 C 1760.01 859.977 1759.42 853.922 1754.29 845.058 C 1769.74 827.228 1767.35 825.947 1771.06 802.754 C 1772.34 810.19 1774.02 824.36 1775.49 830.549 C 1779.56 835.271 1783.8 840.067 1787.79 844.847 C 1784.52 850.836 1782.69 854.673 1782.46 861.691 C 1781.69 885.661 1782.05 910.185 1782.11 934.151 L 1782.24 1065.04 L 1782.07 1492.63 C 1814.21 1493.43 1861.34 1493.99 1893.09 1492.5 C 1894.99 1456.06 1896.61 1419.6 1897.96 1383.13 C 1898.95 1359.6 1900.67 1334.83 1901.15 1311.45 C 1896.48 1310.01 1889.65 1308.1 1885.35 1306.21 C 1884.88 1287.47 1881.71 1283.77 1902.07 1282.39 L 1907.27 1157.88 C 1908.1 1138.4 1909.52 1117.06 1909.74 1097.66 C 1905.23 1096.67 1899.24 1095.52 1894.96 1094.14 C 1894.53 1086.17 1894.27 1080.66 1894.68 1072.63 C 1900 1071.87 1905.24 1070.97 1910.61 1070.85 C 1912.61 1028.04 1914.35 985.22 1915.82 942.39 C 1916.32 929.955 1920.07 866.989 1917.18 862.684 C 1913.53 859.86 1908.86 859.492 1904.19 858.536 L 1904.11 840.385 C 1909.11 839.028 1914.13 837.613 1919.17 836.434 L 1919.22 781.044 C 1912.95 778.833 1906.24 776.661 1900.31 773.735 C 1906.13 771.008 1912.04 768.453 1918.01 766.073 C 1918.6 748.6 1920.27 738.341 1933.52 725.564 C 1939.25 720.032 1950.56 713.005 1955.1 707.794 C 1957.36 693.147 1959.36 678.461 1961.09 663.741 C 1962.85 676.521 1964.95 696.711 1967.63 708.666 C 1986.74 727.16 2002.84 728.383 2004.02 760.637 C 2004.09 762.375 2004.13 764.114 2004.15 765.853 C 2009.27 767.978 2018 771.301 2022.54 773.934 L 2003.15 781.178 C 2003.16 797.847 2002.59 819.902 2003.4 836.183 L 2017.87 840.295 L 2017.89 858.32 C 2013.42 859.532 2008.36 860.773 2003.97 862.105 C 2004.05 880.647 2004.67 899.527 2005.49 918.055 C 2007.74 968.913 2008.41 1020.1 2011.13 1070.92 C 2031.44 1071.06 2027.78 1076.24 2027.15 1094.24 L 2011.91 1097.37 C 2012.95 1152.32 2016.58 1207.54 2018.15 1262.5 C 2018.34 1269.22 2018.68 1275.92 2019.27 1282.61 C 2039.74 1283.95 2036.71 1287.81 2035.87 1306.84 C 2030.85 1308.54 2025.91 1310.24 2020.82 1311.72 C 2020.77 1370.54 2025.82 1433.59 2027.34 1492.75 L 2048 1492.96 L 2048 1638 L 0 1638 L 0 1492.89 L 20.828 1492.6 C 21.4341 1434.41 26.6145 1371.07 28.0073 1311.92 C 23.7781 1310.23 17.3196 1308.35 12.827 1306.9 C 12.3181 1299.72 12.8624 1291.65 13.1549 1284.39 C 18.028 1283.47 24.0917 1283.18 29.1324 1282.8 C 32.4249 1221.98 33.9895 1158.69 36.3777 1097.55 C 30.2865 1096.66 26.9018 1095.68 20.9608 1093.96 C 20.731 1087.3 18.9425 1077.41 23.6487 1072.65 C 27.8049 1070.49 32.1892 1071.03 37.0312 1071.01 C 38.8759 1044.71 39.3484 1015.3 40.3319 988.724 C 42.0794 946.695 43.483 904.653 44.5427 862.602 C 38.3801 860.147 36.7701 859.677 30.2396 858.543 L 30.284 840.309 C 35.7484 839.121 39.8966 837.855 45.2397 836.184 L 45.1451 780.898 C 37.5852 778.375 33.1866 776.859 26.0732 773.417 C 31.1983 770.961 38.3437 768.486 43.8095 766.426 C 44.1513 756.705 44.4593 750.676 47.9126 741.557 C 54.2381 724.853 70.2329 719.376 81.4227 707.431 C 83.5334 693.33 85.5655 679.218 87.5188 665.095 C 89.3245 679.311 90.9737 695.539 93.551 709.418 C 120.347 727.577 128.023 733.443 130.602 765.941 C 137.119 768.618 142.446 770.752 148.679 774.135 C 141.796 776.76 136.215 778.536 129.138 780.64 C 128.774 799.22 128.831 817.806 129.308 836.384 C 134.184 837.242 139.45 838.746 144.294 840.008 L 144.329 858.48 C 139.239 859.781 134.928 860.933 129.935 862.57 C 130.037 928.461 134.657 1004.39 137.368 1070.85 C 144.189 1070.96 146.662 1071.3 153.402 1072.55 C 154.726 1090.53 157.916 1094.19 138.69 1097.37 C 138.116 1113.57 140.438 1144.15 141.141 1161.38 C 142.52 1201.85 144.19 1242.3 146.149 1282.73 C 167.001 1283.28 163.495 1288.09 162.981 1306.97 C 158.284 1308.82 152.045 1310.13 147.029 1311.33 L 151.895 1424.11 C 152.748 1445.18 153.065 1472.05 155.151 1492.63 C 189.863 1493.77 231.055 1493.08 266.055 1492.75 L 265.917 1047.41 L 265.983 924.795 C 266.031 903.162 266.095 881.416 266.079 859.775 C 266.076 855.543 261.373 848.925 261.541 845.832 C 261.736 842.266 270.763 832.699 273.396 829.692 C 274.404 820.642 275.069 811.228 277.712 802.553 C 282.099 826.667 277.774 826.077 293.979 844.897 C 284.697 863.42 288.484 919.285 288.735 942.284 C 294.558 940.858 298.418 940.289 304.392 939.515 C 304.318 884.403 305.361 825.5 303.894 770.741 C 302.11 767.958 299.876 765.048 297.91 762.351 C 302.525 757.096 307.067 751.779 311.535 746.399 C 312.589 736.165 313.335 728.932 315.479 718.855 C 317.248 726.395 318.343 738.403 319.336 746.433 C 323.644 751.499 327.919 756.969 332.107 762.164 L 331.712 762.839 C 325.771 773.316 326.194 779.084 326.238 790.943 C 326.311 810.612 326.357 830.277 326.239 849.947 C 331.279 849.974 336.335 849.733 341.365 849.6 C 358.779 849.138 365.923 847.383 366.39 866.527 C 376.787 878.801 394.578 899.412 401.294 913.937 C 402.154 915.797 402.092 922.227 402.085 924.608 C 412.171 922.63 422.688 920.274 432.897 919.485 L 433.151 866.607 C 433.219 850.244 435.848 832.19 426.465 818.366 C 429.845 813.758 436.018 807.334 440.031 802.796 C 441.162 792.471 442.283 783.822 444.064 773.595 C 445.922 782.213 447.054 794.028 448.161 803.038 L 461.356 818.265 C 461.228 818.462 461.099 818.659 460.971 818.856 L 460.354 819.855 C 452.647 832.154 454.871 851.134 454.909 865.505 L 455.04 918.504 C 467.356 918.088 480.248 918.261 492.616 918.254 L 492.69 818.848 C 485.608 817.06 464.542 812.973 464.506 804.641 C 468.615 799.008 482.8 795.549 489.925 793.223 C 489.183 744.911 501.272 710.573 541.987 682.996 C 547.65 679.16 550.952 676.064 554.12 669.951 C 563.279 665.354 572.14 660.678 580.502 654.693 C 586.816 650.173 592.818 645.022 596.409 637.998 C 600.971 629.075 604.837 586.172 607.094 572.438 C 609.069 585.6 610.758 598.804 612.158 612.039 C 615.584 642.498 618.324 646.865 646.449 663.068 C 652.783 666.717 658.475 668.687 662.789 674.589 C 668.262 682.075 680.785 689.155 688.444 696.584 C 700.258 708.045 703.839 713.725 711.952 727.318 C 712.022 719.906 712.943 686.773 711.188 682.571 C 677.281 601.358 682.693 517.591 726.225 439.029 C 760.206 377.702 816.912 333.449 879.001 292.446 C 878.597 287.522 877.147 279.884 880.76 276.341 C 886.798 270.418 902.488 267.75 908.965 263.17 C 936.889 243.425 996.18 195.731 1010.52 166.216 C 1008.49 151.094 1009.66 149.146 1014.73 134.829 C 999.556 121.461 996.879 105.351 1015.9 94.2274 C 1015.8 67.4213 1020.07 26.7774 1022.76 0 z M 851.881 1492.7 C 909.942 1493.56 969.34 1492.91 1027.5 1492.89 L 1137.22 1492.91 C 1154.11 1492.9 1180.3 1493.66 1196.59 1492.41 C 1194.68 1405.87 1197.94 1318.51 1196.49 1231.91 C 1196.03 1204.69 1198.44 1173.65 1193.75 1147.07 C 1179.37 1065.61 1091.42 1027.81 1024.42 998.192 C 952.063 1030.88 861.151 1068.25 852.707 1160.23 C 851.395 1174.51 851.858 1189.2 851.868 1203.56 L 851.934 1269.79 L 851.881 1492.7 z M 356.916 1492.93 C 372.437 1492.87 390.072 1493.21 405.419 1492.61 L 405.453 1422.83 C 405.55 1401.87 407.018 1368.16 401.89 1348.63 C 398.362 1334.93 391.132 1322.46 380.993 1312.58 C 374.948 1306.6 363.97 1298.23 356.486 1293.8 C 305.551 1334.24 307.742 1365.4 308.435 1426.5 C 308.682 1448.28 308.109 1470.77 308.834 1492.66 C 324.86 1492.9 340.888 1492.99 356.916 1492.93 z M 1414.01 918.28 L 1444.5 918.241 L 1471.1 918.294 C 1471.18 888.949 1479.37 844.663 1441.88 835.857 C 1423.37 844.548 1414.23 853.644 1413.78 875.14 C 1413.47 889.49 1414.05 903.937 1414.01 918.28 z M 1543.84 1492.7 L 1543.96 1422.89 C 1544.02 1403.79 1545.59 1374.29 1540.8 1356.95 C 1537.24 1344.41 1530.5 1333 1521.23 1323.82 C 1513.34 1315.9 1473.8 1290.19 1464.68 1289.89 C 1388.04 1328.45 1384.59 1347.49 1387.7 1430.55 C 1388.43 1449.83 1387.57 1473.23 1387.92 1492.77 L 1468.5 1492.87 C 1493.61 1492.94 1518.73 1492.89 1543.84 1492.7 z M 610.5 918.25 L 634.474 918.21 C 635.555 890.925 642.087 840.603 604.255 835.714 C 577.801 850.897 576.815 861.63 577.631 890.907 C 577.875 899.649 577.798 909.488 577.872 918.334 L 610.5 918.25 z M 660.561 1492.66 L 660.5 1422.49 C 660.509 1406.51 660.721 1390.67 660.149 1374.66 C 658.48 1328.03 621.067 1308.46 583.333 1289.08 C 549.654 1304.54 505.596 1329.86 504.915 1371.09 C 504.263 1410.53 503.148 1453.44 504.708 1492.75 L 586.345 1492.88 C 610.595 1492.88 636.438 1493.32 660.561 1492.66 z M 663.031 918.408 L 684.25 918.223 L 698.919 918.178 C 699.108 902.029 705.145 840.384 679.323 839.8 C 656.963 855.683 663.398 874.649 662.531 898.526 C 662.303 904.805 662.546 912.175 663.031 918.408 z M 1691.18 1293.65 C 1667.89 1310.05 1648.29 1328.32 1644.65 1358.13 C 1639.87 1397.32 1643.03 1438.39 1642.34 1477.88 C 1642.25 1482.64 1642.2 1488.14 1642.53 1492.81 L 1694.21 1492.92 C 1708.02 1492.89 1726.18 1493.38 1739.64 1492.53 C 1739.51 1458.14 1743.08 1377.13 1734.15 1348.53 C 1729.35 1333.14 1720.31 1319.5 1709 1308.12 C 1704.12 1303.22 1697.3 1296.83 1691.18 1293.65 z M 1515.11 839.813 C 1507.22 845.215 1500.3 853.561 1499.4 863.018 C 1497.79 879.81 1498.79 901.407 1499 918.432 L 1519.5 918.246 L 1534.09 918.221 C 1534.23 903.699 1540.37 839.085 1515.11 839.813 z M 531.047 839.156 C 515.629 849.522 513.828 863.53 513.909 880.883 C 513.968 893.357 514.04 905.902 514.146 918.383 L 535.25 918.23 L 550.142 918.338 C 550.388 897.842 555.159 859.619 540.802 845.381 C 538.054 842.607 534.721 840.48 531.047 839.156 z M 1349.57 918.367 L 1365.75 918.242 L 1385.76 918.254 C 1386.02 892.988 1393.37 852.123 1367.43 838.84 C 1352.42 848.95 1349.19 861.885 1349.23 879.382 C 1349.26 892.355 1349.42 905.388 1349.57 918.367 z M 1690.91 1032.77 C 1637.11 1070.35 1642.68 1093.05 1642.79 1154.23 L 1642.97 1230 C 1661.5 1231.93 1680.14 1232.99 1698.66 1234.85 C 1712.24 1235.88 1725.81 1237.01 1739.38 1238.23 L 1739.34 1168.54 C 1739.28 1125.31 1744.57 1082.95 1710.58 1049.7 C 1706.49 1045.7 1695.89 1034.22 1690.91 1032.77 z M 356.239 1032.72 C 328.173 1057.81 310.165 1078.59 309.085 1118.44 C 308.02 1157.79 308.802 1198.69 308.919 1238.15 C 321.923 1237.08 342.163 1236.07 354.51 1234.24 C 368.294 1233.39 392.259 1231.92 405.61 1229.92 L 405.697 1162.56 C 405.781 1139.31 407.432 1105.37 401.378 1083.9 C 397.831 1071.63 391.189 1060.48 382.09 1051.52 C 376.642 1046.06 363.356 1035.78 356.239 1032.72 z M 581.962 1023.79 C 552.954 1038.88 518.1 1055.69 507.819 1089.47 C 503.776 1102.75 504.185 1118.03 504.318 1131.86 C 504.623 1163.56 504.137 1195.35 504.581 1227.04 L 584.5 1227.16 C 609.474 1227.16 635.324 1227.5 660.227 1227.03 L 660.238 1153.81 C 660.36 1118.42 665.982 1084.73 638.417 1058.58 C 628.602 1049.27 594.425 1026.28 581.962 1023.79 z M 1464.93 1023.84 C 1426.6 1043.6 1388.12 1062.67 1387.86 1111.55 C 1387.77 1127.27 1387.89 1143.07 1387.92 1158.78 L 1388.05 1227.21 L 1468.5 1227.16 C 1493.4 1227.16 1519.1 1227.49 1543.93 1227.02 L 1544.07 1155.48 C 1544.12 1137.88 1545.46 1108.81 1541.33 1092.64 C 1538.19 1080.08 1531.69 1068.61 1522.52 1059.46 C 1511.94 1048.73 1479.01 1028.05 1464.93 1023.84 z"/>
</svg>