<svg version="1.1" xmlns="http://www.w3.org/2000/svg" style="display: block;" viewBox="0 0 2048 1638" width="1920" height="1536" preserveAspectRatio="none">
<path transform="translate(0,0)" fill="rgb(254,254,254)" d="M 1609.31 65.1054 L 1604.98 95.9067 C 1611.1 93.1421 1614.01 93.6413 1620.48 96.0515 C 1621.79 96.5466 1623.07 97.1071 1624.32 97.7309 C 1646.34 105.546 1673.15 117.735 1690.18 133.811 C 1678.32 150.709 1662.02 172.224 1649.13 188.626 C 1643.26 182.967 1634.78 174.365 1628.11 170.194 C 1628.69 175.936 1628.96 174.117 1632.91 179.641 C 1628.21 182.385 1623.53 185.544 1618.28 186.792 C 1640.46 204.7 1661.3 236.427 1678.37 259.523 C 1684.18 267.386 1680.48 283.906 1683.31 291.71 C 1687.87 304.304 1695.66 317.556 1701.96 329.607 L 1741.19 404.431 C 1747.38 416.13 1758.58 435.819 1763.26 447.409 C 1760.82 460.553 1752.47 490.087 1747.56 503.517 C 1742.81 507.265 1720.55 523.434 1715.66 523.109 C 1713.49 521.124 1712.74 520.396 1710.9 518.111 C 1706.66 522.74 1704.96 523.579 1699.56 526.884 C 1680.84 529.6 1659.75 528.886 1645.24 514.758 C 1632.78 502.623 1631.98 489.416 1631.57 473.113 C 1612.3 457.426 1592.01 433.525 1571.27 419.48 C 1566.51 416.26 1551.17 412.301 1544.95 410.062 C 1536.69 407.09 1532.59 404.86 1524.91 400.652 C 1524.65 408.387 1524.66 413.288 1520.93 420.296 C 1521.43 421.073 1521.92 421.85 1522.41 422.627 C 1521.81 432.051 1519.33 446.883 1518.3 455.705 C 1515.15 482.766 1511.97 508.949 1509.15 535.965 C 1506.9 557.538 1502.65 582.456 1504.16 603.827 C 1504.92 614.626 1510.09 625.739 1515.5 634.883 C 1519.87 642.988 1519.67 645.941 1519.67 655.115 C 1518.09 678.013 1516.65 700.921 1515.36 723.838 C 1514.56 737.546 1514.04 757.09 1512.21 770.222 C 1506.08 811.662 1488.66 850.614 1461.85 882.801 C 1466.77 891.656 1464.37 899.377 1465.23 908.737 C 1458.28 949.459 1451.7 990.243 1445.49 1031.08 C 1444.29 1039.07 1437.95 1084.94 1436.26 1089.74 L 1435.08 1090.4 C 1434.97 1094.67 1434.82 1105.45 1435.51 1109.3 C 1436.58 1114.72 1436.04 1120.63 1436.05 1126.18 C 1436.13 1165.47 1435.27 1204.79 1437.04 1244.05 C 1437.77 1260.07 1441.6 1276.06 1452.53 1288.36 C 1460.64 1295.03 1462.26 1295.82 1467.36 1304.82 C 1483.47 1308.42 1502.23 1372.32 1504.74 1388.93 L 1418.93 1388.81 C 1411.49 1389.74 1406.43 1390.21 1399.05 1388.96 C 1355.24 1388.32 1310.02 1388.84 1266.1 1388.95 L 1266.14 1330.73 C 1276.02 1328.18 1286.3 1325.13 1296.16 1322.37 C 1299.1 1311.24 1295.05 1308.08 1301.19 1301.33 L 1265.62 1310.91 C 1259.75 1295.26 1257.23 1293.43 1243.77 1283.05 C 1240.47 1280.26 1237.12 1278.1 1236.62 1273.37 C 1235.2 1259.77 1236.79 1244.8 1237.48 1231.13 C 1238.66 1207.74 1239.63 1184.35 1240.4 1160.94 C 1240.94 1145.52 1242.17 1124.38 1240.32 1109.34 C 1237.99 1105.23 1239.16 1094.78 1239.61 1089.99 C 1237.06 1063.89 1230.41 1031.44 1226.1 1005.35 L 1205.28 876.949 C 1204.4 876.727 1201.41 875.879 1200.96 875.151 C 1196.64 868.262 1181.07 857.633 1180.24 850.352 C 1173.63 848.629 1157.17 847.916 1149.41 847.324 C 1130.25 845.769 1111.08 844.358 1091.9 843.093 C 1030.29 836.951 964.341 827.754 903.448 822.613 C 886.182 819.536 868.974 817.549 851.579 815.398 C 856.25 801.813 855.441 761.109 853.78 745.874 C 848.541 749.487 849.509 752.393 842.403 753.278 C 839.122 753.687 837.181 752.697 835.186 752.831 C 833.793 747.979 834.571 699.423 834.549 691.151 L 834.376 492.34 C 840.873 492.014 848.501 492.182 854.657 494.447 C 885.95 499.045 917.079 501.684 947.989 505.529 C 1014.4 513.789 1060.2 519.243 1125.57 496.644 C 1128.84 493.611 1139.52 491.481 1144.3 490.296 L 1165.44 480.662 C 1166.3 469.184 1168.63 466.25 1173.58 456.086 C 1183.62 412.276 1204.89 337.104 1225.58 297.506 C 1225.72 296.759 1225.89 296.016 1226.07 295.277 C 1227.78 288.349 1231.76 284.636 1237.71 281.093 C 1235.85 279.313 1235.78 279.501 1235.32 277.011 C 1239.99 255.902 1280.83 200.578 1295.99 182.375 C 1304.33 187.467 1334.63 212.874 1342.51 210.619 C 1343.78 202.211 1320.67 173.699 1314.71 165.523 C 1340.14 138.57 1380.24 114.54 1414.53 101.029 C 1419.95 111.397 1425.22 121.885 1430.79 132.169 C 1433.08 136.388 1436.03 142.191 1441.37 141.009 C 1443.9 136.308 1438.23 102.364 1437.63 93.448 C 1469.8 80.5205 1518.64 77.0519 1552.95 81.2322 C 1547.88 87.2366 1544.65 91.076 1540.32 97.7581 C 1548.59 95.1246 1553.48 96.7126 1559.84 103.187 C 1574.36 85.967 1588.22 73.3912 1609.31 65.1054 z M 1157.05 735.958 C 1156.43 728.107 1153.78 729.255 1157.22 723.565 C 1130.49 720.707 1087.23 721.153 1059.3 720.722 L 990.766 719.944 C 982.365 719.779 959.588 717.409 953.397 719.864 C 951.348 723.215 951.703 721.504 951.747 725.022 C 954.868 728.476 956.754 728.372 961.54 728.606 L 1085.01 733.826 C 1102.14 734.557 1140.86 737.083 1157.05 735.958 z M 1730.57 471.206 C 1739.05 461.16 1735.47 440.5 1721.77 438.601 C 1713.38 450.018 1716.48 466.773 1730.57 471.206 z"/>
<path transform="translate(0,0)" fill="rgb(0,0,0)" d="M 1609.31 65.1054 L 1604.98 95.9067 C 1611.1 93.1421 1614.01 93.6413 1620.48 96.0515 C 1621.79 96.5466 1623.07 97.1071 1624.32 97.7309 C 1646.34 105.546 1673.15 117.735 1690.18 133.811 C 1678.32 150.709 1662.02 172.224 1649.13 188.626 C 1643.26 182.967 1634.78 174.365 1628.11 170.194 C 1628.69 175.936 1628.96 174.117 1632.91 179.641 C 1628.21 182.385 1623.53 185.544 1618.28 186.792 C 1640.46 204.7 1661.3 236.427 1678.37 259.523 C 1684.18 267.386 1680.48 283.906 1683.31 291.71 C 1687.87 304.304 1695.66 317.556 1701.96 329.607 L 1741.19 404.431 C 1747.38 416.13 1758.58 435.819 1763.26 447.409 C 1760.82 460.553 1752.47 490.087 1747.56 503.517 C 1742.81 507.265 1720.55 523.434 1715.66 523.109 C 1713.49 521.124 1712.74 520.396 1710.9 518.111 C 1706.66 522.74 1704.96 523.579 1699.56 526.884 C 1680.84 529.6 1659.75 528.886 1645.24 514.758 C 1632.78 502.623 1631.98 489.416 1631.57 473.113 C 1612.3 457.426 1592.01 433.525 1571.27 419.48 C 1566.51 416.26 1551.17 412.301 1544.95 410.062 C 1536.69 407.09 1532.59 404.86 1524.91 400.652 C 1491.28 374.409 1480.62 346.463 1482.58 303.455 C 1482.89 296.741 1473.45 295.654 1470.37 298.086 C 1459.98 306.305 1466.64 326.6 1463.91 338.104 C 1455.48 366.956 1445.94 396.298 1436.8 424.903 L 1385.62 589.035 C 1356.71 562.955 1328.15 536.483 1299.96 509.626 C 1307.94 491.637 1376.85 346.668 1377.57 337.182 C 1376.15 333.553 1376.99 334.103 1374.29 332.33 C 1365.86 333.074 1344.66 383.68 1339.97 393.615 L 1289.89 500.298 C 1271.31 484.29 1250.27 463.547 1232.12 446.463 C 1264.99 388.108 1297.61 326.938 1336.18 272.137 C 1376.69 214.566 1444.23 165.584 1516.72 161.434 C 1516.53 163.95 1510.86 200.299 1528.51 189.208 C 1531.56 187.295 1534.27 162.714 1535.64 156.19 C 1539.99 135.623 1547.74 120.743 1559.84 103.187 C 1574.36 85.967 1588.22 73.3912 1609.31 65.1054 z M 1730.57 471.206 C 1739.05 461.16 1735.47 440.5 1721.77 438.601 C 1713.38 450.018 1716.48 466.773 1730.57 471.206 z"/>
<path transform="translate(0,0)" fill="rgb(0,0,0)" d="M 1624.32 97.7309 C 1646.34 105.546 1673.15 117.735 1690.18 133.811 C 1678.32 150.709 1662.02 172.224 1649.13 188.626 C 1643.26 182.967 1634.78 174.365 1628.11 170.194 C 1626.65 168.117 1616.78 162.217 1614.09 160.545 L 1624.32 97.7309 z"/>
<path transform="translate(0,0)" fill="rgb(254,254,254)" d="M 1604.98 95.9067 C 1611.1 93.1421 1614.01 93.6413 1620.48 96.0515 C 1621.79 96.5466 1623.07 97.1071 1624.32 97.7309 L 1614.09 160.545 C 1616.78 162.217 1626.65 168.117 1628.11 170.194 C 1628.69 175.936 1628.96 174.117 1632.91 179.641 C 1628.21 182.385 1623.53 185.544 1618.28 186.792 C 1609.71 180.838 1602.91 177.586 1593.51 173.017 C 1596.3 149.101 1601.14 119.836 1604.98 95.9067 z"/>
<path transform="translate(0,0)" fill="rgb(254,254,254)" d="M 1699.56 526.884 C 1690.08 512.721 1679.71 498.96 1670.07 484.904 C 1666.72 480.032 1663.17 476.096 1665.53 470.288 C 1668.19 467.814 1668.04 467.944 1671.65 467.286 C 1676.48 468.762 1679.29 473.93 1682.14 478.053 C 1691.5 491.578 1701.22 504.821 1710.9 518.111 C 1706.66 522.74 1704.96 523.579 1699.56 526.884 z"/>
<path transform="translate(0,0)" fill="rgb(254,254,254)" d="M 1591.66 260.158 C 1598.68 262.636 1637.76 282.739 1641.38 288.551 C 1661.77 321.296 1682.48 366.082 1701.64 400.852 C 1702.7 402.792 1699.94 405.985 1699.02 407.412 C 1691.42 406.88 1685.48 393.036 1681.61 386.385 L 1653.66 338.541 C 1649.37 331.221 1643.64 320.614 1638.44 314.01 C 1633.32 307.513 1615.9 310.932 1610.16 306.234 C 1600.17 297.649 1597.93 283.817 1593.42 272.074 C 1591.24 266.38 1587.26 264.853 1591.66 260.158 z"/>
<path transform="translate(0,0)" fill="rgb(0,0,0)" d="M 1165.44 480.662 L 1216.84 458.675 C 1261.39 500.932 1307.07 542.136 1351.89 584.063 C 1374.56 605.263 1401.4 628.751 1423.04 650.557 L 1420.85 727.279 C 1418.89 786.304 1416.2 826.667 1379.67 876.932 C 1380.45 867.674 1384.01 837.288 1381.5 830.067 C 1372.88 824.535 1321.48 826.441 1307.92 826.448 L 1196.63 826.621 C 1180.56 714.649 1160.31 602.45 1144.3 490.296 L 1165.44 480.662 z"/>
<path transform="translate(0,0)" fill="rgb(0,0,0)" d="M 854.521 608.664 L 1142.78 608.655 C 1144.76 619.081 1161.05 718.953 1160.35 722.759 L 1157.22 723.565 C 1130.49 720.707 1087.23 721.153 1059.3 720.722 L 990.766 719.944 C 982.365 719.779 959.588 717.409 953.397 719.864 C 951.348 723.215 951.703 721.504 951.747 725.022 C 954.868 728.476 956.754 728.372 961.54 728.606 L 1085.01 733.826 C 1102.14 734.557 1140.86 737.083 1157.05 735.958 C 1161.28 736.511 1160.96 735.739 1163.13 738.149 C 1165.56 749.932 1181.62 846.73 1180.24 850.352 C 1173.63 848.629 1157.17 847.916 1149.41 847.324 C 1130.25 845.769 1111.08 844.358 1091.9 843.093 C 1030.29 836.951 964.341 827.754 903.448 822.613 C 886.182 819.536 868.974 817.549 851.579 815.398 C 856.25 801.813 855.441 761.109 853.78 745.874 C 855.017 738.011 854.457 709.707 854.452 699.793 L 854.521 608.664 z"/>
<path transform="translate(0,0)" fill="rgb(0,0,0)" d="M 1437.63 93.448 C 1469.8 80.5205 1518.64 77.0519 1552.95 81.2322 C 1547.88 87.2366 1544.65 91.076 1540.32 97.7581 C 1530.22 111.287 1524.46 125.813 1519.38 141.772 C 1340.21 161.756 1297.12 306.24 1214.42 437.962 C 1200.77 445.076 1186.96 449.682 1173.58 456.086 C 1183.62 412.276 1204.89 337.104 1225.58 297.506 C 1225.72 296.759 1225.89 296.016 1226.07 295.277 C 1227.78 288.349 1231.76 284.636 1237.71 281.093 C 1235.85 279.313 1235.78 279.501 1235.32 277.011 C 1239.99 255.902 1280.83 200.578 1295.99 182.375 C 1304.33 187.467 1334.63 212.874 1342.51 210.619 C 1343.78 202.211 1320.67 173.699 1314.71 165.523 C 1340.14 138.57 1380.24 114.54 1414.53 101.029 C 1419.95 111.397 1425.22 121.885 1430.79 132.169 C 1433.08 136.388 1436.03 142.191 1441.37 141.009 C 1443.9 136.308 1438.23 102.364 1437.63 93.448 z"/>
<path transform="translate(0,0)" fill="rgb(254,254,254)" d="M 1237.71 281.093 C 1244.91 285.576 1266.65 300.39 1270.44 307.079 L 1270.29 308.678 C 1263.15 311.839 1234.48 300.533 1225.58 297.506 C 1225.72 296.759 1225.89 296.016 1226.07 295.277 C 1227.78 288.349 1231.76 284.636 1237.71 281.093 z"/>
<path transform="translate(0,0)" fill="rgb(0,0,0)" d="M 854.657 494.447 C 885.95 499.045 917.079 501.684 947.989 505.529 C 1014.4 513.789 1060.2 519.243 1125.57 496.644 L 1140.88 595.441 L 854.388 595.462 L 854.657 494.447 z"/>
<path transform="translate(0,0)" fill="rgb(0,0,0)" d="M 1470.95 362.08 C 1481.1 383.828 1497.99 410.31 1520.93 420.296 C 1521.43 421.073 1521.92 421.85 1522.41 422.627 C 1521.81 432.051 1519.33 446.883 1518.3 455.705 C 1515.15 482.766 1511.97 508.949 1509.15 535.965 C 1506.9 557.538 1502.65 582.456 1504.16 603.827 C 1504.92 614.626 1510.09 625.739 1515.5 634.883 C 1492.63 636.818 1458.63 635.852 1434.91 635.832 C 1422.24 623.842 1409.64 611.788 1397.09 599.67 L 1470.95 362.08 z"/>
<path transform="translate(0,0)" fill="rgb(0,0,0)" d="M 1442.25 655.161 L 1519.67 655.115 C 1518.09 678.013 1516.65 700.921 1515.36 723.838 C 1514.56 737.546 1514.04 757.09 1512.21 770.222 C 1506.08 811.662 1488.66 850.614 1461.85 882.801 C 1438.24 911.709 1407.5 931.539 1372.6 944.039 C 1373.11 938.849 1375.02 914.713 1376.92 912.533 C 1447.21 831.977 1440.5 758.825 1442.25 655.161 z"/>
<path transform="translate(0,0)" fill="rgb(0,0,0)" d="M 1240.32 1109.34 L 1337.92 1109.36 L 1337.98 1205.98 C 1337.95 1232.83 1334.89 1262.8 1346.46 1287.32 C 1331.17 1292.75 1316.02 1296.31 1301.19 1301.33 L 1265.62 1310.91 C 1259.75 1295.26 1257.23 1293.43 1243.77 1283.05 C 1240.47 1280.26 1237.12 1278.1 1236.62 1273.37 C 1235.2 1259.77 1236.79 1244.8 1237.48 1231.13 C 1238.66 1207.74 1239.63 1184.35 1240.4 1160.94 C 1240.94 1145.52 1242.17 1124.38 1240.32 1109.34 z"/>
<path transform="translate(0,0)" fill="rgb(0,0,0)" d="M 1357.34 1109.36 L 1435.51 1109.3 C 1436.58 1114.72 1436.04 1120.63 1436.05 1126.18 C 1436.13 1165.47 1435.27 1204.79 1437.04 1244.05 C 1437.77 1260.07 1441.6 1276.06 1452.53 1288.36 C 1436.18 1294.86 1409.12 1302.21 1391.72 1307.32 C 1381.84 1293.11 1379.61 1288.98 1364.34 1280.63 C 1354.41 1259.52 1357.03 1228.2 1357.05 1204.68 L 1357.34 1109.36 z"/>
<path transform="translate(0,0)" fill="rgb(0,0,0)" d="M 1200.08 845.15 L 1276.55 845.202 C 1277.46 926.139 1279.46 1009.22 1279.52 1089.94 L 1239.61 1089.99 C 1237.06 1063.89 1230.41 1031.44 1226.1 1005.35 L 1205.28 876.949 L 1200.08 845.15 z"/>
<path transform="translate(0,0)" fill="rgb(0,0,0)" d="M 1371.25 966.04 C 1413.26 950.818 1431.69 937.909 1465.23 908.737 C 1458.28 949.459 1451.7 990.243 1445.49 1031.08 C 1444.29 1039.07 1437.95 1084.94 1436.26 1089.74 L 1435.08 1090.4 C 1428.2 1089.55 1414.29 1089.89 1406.84 1089.89 L 1358.34 1089.93 C 1362.16 1048.59 1366.46 1007.29 1371.25 966.04 z"/>
<path transform="translate(0,0)" fill="rgb(0,0,0)" d="M 1296.16 1322.37 C 1316.74 1316.59 1344.51 1307.83 1364.94 1303.1 C 1385.48 1325.88 1391.87 1360.3 1399.05 1388.96 C 1355.24 1388.32 1310.02 1388.84 1266.1 1388.95 L 1266.14 1330.73 C 1276.02 1328.18 1286.3 1325.13 1296.16 1322.37 z"/>
<path transform="translate(0,0)" fill="rgb(0,0,0)" d="M 1467.36 1304.82 C 1483.47 1308.42 1502.23 1372.32 1504.74 1388.93 L 1418.93 1388.81 C 1413.44 1366.22 1408.67 1346.32 1400.02 1324.68 L 1467.36 1304.82 z"/>
<path transform="translate(0,0)" fill="rgb(0,0,0)" d="M 1291 845.145 L 1363.06 845.186 C 1359.95 863.25 1357.62 899.976 1355.72 919.193 L 1340.7 1069.24 L 1338.79 1089.95 L 1288.83 1089.94 C 1288.79 1008.34 1289.51 926.734 1291 845.145 z"/>
<path transform="translate(0,0)" fill="rgb(0,0,0)" d="M 700.652 488.424 C 740.613 479.373 779.255 484.697 819.197 490.436 C 824.054 491.134 829.513 492.018 834.376 492.34 L 834.549 691.151 C 834.571 699.423 833.793 747.979 835.186 752.831 L 834.964 754.162 C 832.625 768.646 835.951 790.334 834.275 799.888 C 829.607 826.489 810.041 861.839 799.102 887.567 C 807.056 884.217 811.114 882.158 818.572 877.803 C 821.827 878.379 820.411 877.702 822.905 880.037 C 821.01 883.881 820.595 883.257 820.849 886.923 L 821.873 887.83 C 824.158 891.607 829.357 897.499 829.541 899.735 C 826.706 903.878 822.642 904.105 818.691 906.706 C 814.978 906.554 812.874 905.666 810.487 908.304 C 804.139 915.321 801.017 924.182 795.411 932.326 C 784.123 923.694 793.517 921.903 787.625 907.959 C 755.255 959.519 722.096 1003.12 676.803 1043.9 C 666.469 1053.2 656.898 1064.7 646.561 1073.93 C 638.566 1071.66 631.28 1069.19 623.441 1066.52 C 599.445 1057.43 572.294 1049.1 547.714 1040.26 C 559.298 1014.46 577.338 989.571 588.601 962.754 C 597.208 942.264 599.03 928.442 604.241 907.529 C 602.274 898.977 602.075 896.552 606.222 888.874 C 596.35 886.336 561.938 769.725 558.594 753.707 C 552.342 754.463 552.612 753.522 548.052 749.757 C 544.412 749.471 543.153 751.18 539.492 753.451 C 534.624 737.158 534.632 704.682 533.814 687.624 C 531.108 631.17 545.705 587.463 578.261 541.687 C 580.406 541.235 605.333 538.659 606.625 538.72 C 635.869 513.468 649.442 504.045 686.675 491.122 C 689.403 489 697.021 488.742 700.652 488.424 z"/>
<path transform="translate(0,0)" fill="rgb(0,0,0)" d="M 606.625 538.72 C 635.869 513.468 649.442 504.045 686.675 491.122 L 686.934 887.98 C 676.838 887.957 612.82 887.172 606.222 888.874 C 596.35 886.336 561.938 769.725 558.594 753.707 C 552.342 754.463 552.612 753.522 548.052 749.757 C 544.412 749.471 543.153 751.18 539.492 753.451 C 534.624 737.158 534.632 704.682 533.814 687.624 C 531.108 631.17 545.705 587.463 578.261 541.687 C 580.406 541.235 605.333 538.659 606.625 538.72 z"/>
<path transform="translate(0,0)" fill="rgb(254,254,254)" d="M 578.261 541.687 C 580.406 541.235 605.333 538.659 606.625 538.72 C 554.171 598.917 549.48 644.698 554.915 722.419 C 555.631 732.902 556.859 743.344 558.594 753.707 C 552.342 754.463 552.612 753.522 548.052 749.757 C 544.412 749.471 543.153 751.18 539.492 753.451 C 534.624 737.158 534.632 704.682 533.814 687.624 C 531.108 631.17 545.705 587.463 578.261 541.687 z"/>
<path transform="translate(0,0)" fill="rgb(0,0,0)" d="M 604.241 907.529 L 731.779 907.472 C 739.951 907.463 780.963 906.844 787.625 907.959 C 755.255 959.519 722.096 1003.12 676.803 1043.9 C 666.469 1053.2 656.898 1064.7 646.561 1073.93 C 638.566 1071.66 631.28 1069.19 623.441 1066.52 C 599.445 1057.43 572.294 1049.1 547.714 1040.26 C 559.298 1014.46 577.338 989.571 588.601 962.754 C 597.208 942.264 599.03 928.442 604.241 907.529 z"/>
<path transform="translate(0,0)" fill="rgb(254,254,254)" d="M 700.652 488.424 L 700.455 887.948 C 713.468 887.98 791.382 889.787 799.102 887.567 C 807.056 884.217 811.114 882.158 818.572 877.803 C 821.827 878.379 820.411 877.702 822.905 880.037 C 821.01 883.881 820.595 883.257 820.849 886.923 L 821.873 887.83 C 824.158 891.607 829.357 897.499 829.541 899.735 C 826.706 903.878 822.642 904.105 818.691 906.706 C 814.978 906.554 812.874 905.666 810.487 908.304 C 804.139 915.321 801.017 924.182 795.411 932.326 C 784.123 923.694 793.517 921.903 787.625 907.959 C 780.963 906.844 739.951 907.463 731.779 907.472 L 604.241 907.529 C 602.274 898.977 602.075 896.552 606.222 888.874 C 612.82 887.172 676.838 887.957 686.934 887.98 L 686.675 491.122 C 689.403 489 697.021 488.742 700.652 488.424 z"/>
<path transform="translate(0,0)" fill="rgb(0,0,0)" d="M 426.266 1003.79 C 424.552 944.338 426.067 878.193 426.04 818.233 L 426.011 745.207 C 426.015 720.707 425.076 698.15 430.06 674.014 C 435.677 647.239 447.763 622.245 465.262 601.216 C 493.294 566.867 534.079 545.381 578.261 541.687 C 545.705 587.463 531.108 631.17 533.814 687.624 C 534.632 704.682 534.624 737.158 539.492 753.451 C 537.467 759.933 549.343 792.695 550.262 799.905 C 551.511 809.7 550.956 825.176 550.938 835.355 L 550.849 903.865 L 550.964 957.118 C 551.014 976.998 553.911 986.967 541.984 1004.01 C 503.816 1004.61 464.868 1003.16 426.266 1003.79 z"/>
<path transform="translate(0,0)" fill="rgb(0,0,0)" d="M 795.411 932.326 C 801.017 924.182 804.139 915.321 810.487 908.304 C 812.874 905.666 814.978 906.554 818.691 906.706 C 828.187 909.753 840.52 911.403 850.504 913.278 C 866.214 916.255 881.898 919.375 897.551 922.637 C 886.751 945.727 873.804 967.75 858.882 988.417 C 836.542 1019.46 809.086 1046.1 785.577 1076.1 C 777.776 1086.06 780.151 1096.79 782.926 1108.15 C 791.002 1141.21 803.464 1172.89 814.786 1204.9 C 825.131 1233.47 832.888 1262.21 850.779 1287.28 C 828.162 1294.85 796.84 1304.32 773.636 1309.91 C 743.012 1286.53 742.565 1290.33 734.051 1251.24 C 722.269 1197.15 701.097 1144.47 681.698 1092.74 C 679.142 1085.93 676.546 1080.5 675.064 1073.24 C 715.485 1036.06 768.862 978.889 795.411 932.326 z"/>
<path transform="translate(0,0)" fill="rgb(0,0,0)" d="M 903.448 822.613 C 964.341 827.754 1030.29 836.951 1091.9 843.093 C 1097.89 851.541 1103.91 846.768 1105.68 858.111 C 1130.28 861.193 1158.83 862.58 1183.67 864.054 C 1185.89 886.771 1192.86 918.354 1196.36 942.101 C 1157.15 942.71 1108.18 937.217 1068.75 931.804 C 986.451 920.506 903.301 904.538 821.873 887.83 L 820.849 886.923 C 820.595 883.257 821.01 883.881 822.905 880.037 C 826.167 878.135 843.985 834.992 846.796 828.52 C 856.494 829.993 878.49 833.67 887.734 833.505 C 891.196 823.197 893.122 823.922 903.448 822.613 z"/>
<path transform="translate(0,0)" fill="rgb(254,254,254)" d="M 903.448 822.613 C 964.341 827.754 1030.29 836.951 1091.9 843.093 C 1097.89 851.541 1103.91 846.768 1105.68 858.111 C 1061.94 853.928 1018.26 849.289 974.618 844.196 C 948.207 841.296 913.131 838.319 887.734 833.505 C 891.196 823.197 893.122 823.922 903.448 822.613 z"/>
<path transform="translate(0,0)" fill="rgb(0,0,0)" d="M 547.714 1040.26 C 572.294 1049.1 599.445 1057.43 623.441 1066.52 C 623.95 1072.86 625.306 1080.55 621.753 1085.8 C 628.409 1088.06 635.933 1090.82 642.572 1092.84 L 658.561 1202.61 C 662.065 1227.32 664.44 1265.69 677.492 1286.38 C 659.815 1291.95 642.052 1297.23 624.21 1302.24 C 616.533 1304.44 602.994 1307.85 596.128 1310.39 C 586.439 1293.89 582.029 1291.45 566.956 1279.42 C 566.846 1208.53 553.459 1130.03 542.652 1059.58 C 542.364 1050.5 542.972 1047.73 547.714 1040.26 z"/>
<path transform="translate(0,0)" fill="rgb(254,254,254)" d="M 547.714 1040.26 C 572.294 1049.1 599.445 1057.43 623.441 1066.52 C 623.95 1072.86 625.306 1080.55 621.753 1085.8 C 596.973 1078.61 567.515 1067.88 542.652 1059.58 C 542.364 1050.5 542.972 1047.73 547.714 1040.26 z"/>
<path transform="translate(0,0)" fill="rgb(0,0,0)" d="M 677.492 1286.38 C 680.68 1291.61 685.867 1298.72 687.625 1304.07 C 690.07 1303.58 692.787 1302.48 694.654 1304.39 C 712.218 1322.44 723.483 1366 728.507 1388.74 L 596.916 1388.83 C 596.789 1369.07 596.792 1349.32 596.925 1329.56 C 595.248 1323.02 596.543 1317.35 596.128 1310.39 C 602.994 1307.85 616.533 1304.44 624.21 1302.24 C 642.052 1297.23 659.815 1291.95 677.492 1286.38 z"/>
<path transform="translate(0,0)" fill="rgb(254,254,254)" d="M 677.492 1286.38 C 680.68 1291.61 685.867 1298.72 687.625 1304.07 C 659.937 1311.93 624.303 1323.21 596.925 1329.56 C 595.248 1323.02 596.543 1317.35 596.128 1310.39 C 602.994 1307.85 616.533 1304.44 624.21 1302.24 C 642.052 1297.23 659.815 1291.95 677.492 1286.38 z"/>
<path transform="translate(0,0)" fill="rgb(0,0,0)" d="M 850.779 1287.28 C 857.432 1292.9 861.32 1295.69 865.36 1303.56 C 880.603 1307.45 898.882 1373.09 902.376 1388 C 860.221 1387.36 818.059 1387.34 775.904 1387.93 C 775.536 1373.89 776.564 1341.03 775.305 1329.21 C 774.872 1322.54 774.43 1316.54 773.636 1309.91 C 796.84 1304.32 828.162 1294.85 850.779 1287.28 z"/>
<path transform="translate(0,0)" fill="rgb(254,254,254)" d="M 850.779 1287.28 C 857.432 1292.9 861.32 1295.69 865.36 1303.56 C 835.361 1312.59 805.192 1320.37 775.305 1329.21 C 774.872 1322.54 774.43 1316.54 773.636 1309.91 C 796.84 1304.32 828.162 1294.85 850.779 1287.28 z"/>
<path transform="translate(0,0)" fill="rgb(0,0,0)" d="M 324.224 1420.34 C 329.138 1412.45 332.327 1408.59 342.007 1408.43 C 373.218 1407.92 404.46 1408.14 435.682 1408.14 L 615.89 1408.15 L 1425.5 1408.55 L 1631.97 1408.11 L 1685.16 1408.12 C 1702.16 1408.11 1713.23 1404.2 1723.8 1419.94 C 1726.35 1446.81 1724.17 1476.07 1725.08 1503.22 C 1725.67 1520.61 1727.56 1543.4 1703.53 1543.55 C 1691.36 1543.64 1677.31 1544.29 1665.22 1543.38 C 1659.34 1543.03 1651.7 1543.2 1645.68 1543.17 C 1646.86 1574.87 1635.58 1601.09 1609.86 1620.76 C 1595.71 1631.58 1582.82 1634.74 1565.66 1638 L 1545.44 1638 C 1531.14 1634.72 1522.65 1633.49 1509.94 1625.42 C 1477.22 1604.66 1462.73 1573.16 1467.88 1535.35 C 1458.03 1532.74 1455.91 1537.48 1447.36 1535.63 C 1446.98 1539.27 1447.44 1540.65 1445.47 1543.29 C 1440.27 1543.77 1411.65 1543.94 1406.63 1543.16 C 1397.88 1544.77 1395.74 1545.2 1387.07 1544.92 C 1386.39 1569.98 1380.71 1594.13 1361.86 1611.64 C 1342.48 1629.64 1330.5 1633.05 1305.92 1638 L 1286.43 1638 C 1272.1 1635.04 1261.54 1632.75 1249.01 1624.54 C 1218.01 1604.24 1203.97 1573.69 1208.29 1537.47 C 1201.25 1539.71 1195.72 1538.89 1188.57 1538.01 L 1187.9 1542.54 C 1184.78 1544.26 1125.38 1543.54 1117.38 1543.54 L 860.156 1543.6 C 850.89 1545.14 849.035 1545.05 840.253 1542.34 C 841.481 1578.01 827.723 1607.97 795.919 1626.48 C 783.961 1633.43 773.226 1635.53 759.782 1638 L 740.516 1638 C 691.752 1628.62 664.061 1599.19 660.877 1549.29 C 652.389 1544.31 651.207 1544.22 641.353 1543.69 C 633.928 1543.62 605.774 1544.8 601.428 1542.31 L 600.85 1538.65 C 591.522 1539.87 590.797 1532.75 580.388 1534.64 C 584.431 1570.9 573.022 1601.65 542.192 1623.2 C 528.96 1632.44 516.453 1635.13 500.868 1638 L 483.122 1638 C 468.76 1635.44 458.963 1633.31 446.041 1625.81 C 415.456 1608.04 400.115 1576.48 402.702 1541.68 C 395.959 1543.25 390.335 1542.32 383.46 1541.64 C 380.961 1544.97 334.616 1544.98 330.516 1539.65 C 318.136 1523.56 325.48 1491.12 323.516 1471.05 C 323.122 1454.93 322.787 1434.74 324.224 1420.34 z M 1302.55 1575.8 C 1316.84 1572.77 1326.06 1558.84 1323.27 1544.5 C 1320.47 1530.15 1306.69 1520.71 1292.3 1523.27 C 1282.78 1524.97 1274.92 1531.66 1271.73 1540.79 C 1268.54 1549.91 1270.52 1560.05 1276.9 1567.31 C 1283.29 1574.56 1293.09 1577.81 1302.55 1575.8 z M 1560.98 1575.5 C 1575.46 1572.66 1584.84 1558.55 1581.86 1544.1 C 1578.87 1529.65 1564.67 1520.41 1550.25 1523.54 C 1536.03 1526.63 1526.95 1540.59 1529.89 1554.84 C 1532.84 1569.08 1546.71 1578.3 1560.98 1575.5 z"/>
<path transform="translate(0,0)" fill="rgb(0,0,0)" d="M 1208.29 1537.47 C 1218.05 1487.23 1262.14 1451.31 1313.87 1461.65 C 1337.9 1466.66 1359 1480.92 1372.6 1501.36 C 1381.9 1515.58 1385.01 1528.37 1387.07 1544.92 C 1386.39 1569.98 1380.71 1594.13 1361.86 1611.64 C 1342.48 1629.64 1330.5 1633.05 1305.92 1638 L 1286.43 1638 C 1272.1 1635.04 1261.54 1632.75 1249.01 1624.54 C 1218.01 1604.24 1203.97 1573.69 1208.29 1537.47 z M 1302.55 1575.8 C 1316.84 1572.77 1326.06 1558.84 1323.27 1544.5 C 1320.47 1530.15 1306.69 1520.71 1292.3 1523.27 C 1282.78 1524.97 1274.92 1531.66 1271.73 1540.79 C 1268.54 1549.91 1270.52 1560.05 1276.9 1567.31 C 1283.29 1574.56 1293.09 1577.81 1302.55 1575.8 z"/>
<path transform="translate(0,0)" fill="rgb(0,0,0)" d="M 660.877 1549.29 C 662.049 1529.18 667.022 1512.48 679.289 1496.22 C 693.958 1476.8 715.764 1464.04 739.876 1460.75 C 763.673 1457.84 787.642 1464.6 806.417 1479.51 C 827.383 1495.87 837.187 1516.42 840.253 1542.34 C 841.481 1578.01 827.723 1607.97 795.919 1626.48 C 783.961 1633.43 773.226 1635.53 759.782 1638 L 740.516 1638 C 691.752 1628.62 664.061 1599.19 660.877 1549.29 z"/>
<path transform="translate(0,0)" fill="rgb(254,254,254)" d="M 745.841 1523.39 C 760.21 1520.62 774.13 1529.94 777.056 1544.27 C 779.982 1558.61 770.825 1572.63 756.521 1575.72 C 747.125 1577.74 737.365 1574.57 730.965 1567.4 C 724.566 1560.22 722.513 1550.17 725.591 1541.06 C 728.669 1531.96 736.402 1525.21 745.841 1523.39 z"/>
<path transform="translate(0,0)" fill="rgb(0,0,0)" d="M 1467.88 1535.35 C 1472.91 1510.2 1484.84 1489.6 1506.54 1475.2 C 1526.44 1461.93 1550.83 1457.17 1574.26 1461.97 C 1597.55 1467.1 1617.93 1481.07 1631.1 1500.95 C 1639.6 1514.01 1644.13 1527.72 1645.68 1543.17 C 1646.86 1574.87 1635.58 1601.09 1609.86 1620.76 C 1595.71 1631.58 1582.82 1634.74 1565.66 1638 L 1545.44 1638 C 1531.14 1634.72 1522.65 1633.49 1509.94 1625.42 C 1477.22 1604.66 1462.73 1573.16 1467.88 1535.35 z M 1560.98 1575.5 C 1575.46 1572.66 1584.84 1558.55 1581.86 1544.1 C 1578.87 1529.65 1564.67 1520.41 1550.25 1523.54 C 1536.03 1526.63 1526.95 1540.59 1529.89 1554.84 C 1532.84 1569.08 1546.71 1578.3 1560.98 1575.5 z"/>
<path transform="translate(0,0)" fill="rgb(0,0,0)" d="M 402.702 1541.68 C 404.846 1527.21 408.128 1516.04 415.792 1503.37 C 428.221 1482.86 448.309 1468.14 471.615 1462.47 C 494.392 1456.99 518.414 1460.88 538.307 1473.25 C 562.482 1488 573.944 1507.92 580.388 1534.64 C 584.431 1570.9 573.022 1601.65 542.192 1623.2 C 528.96 1632.44 516.453 1635.13 500.868 1638 L 483.122 1638 C 468.76 1635.44 458.963 1633.31 446.041 1625.81 C 415.456 1608.04 400.115 1576.48 402.702 1541.68 z"/>
<path transform="translate(0,0)" fill="rgb(254,254,254)" d="M 486.754 1523.35 C 501.193 1520.39 515.299 1529.69 518.271 1544.13 C 521.243 1558.56 511.957 1572.68 497.523 1575.66 C 483.071 1578.65 468.934 1569.35 465.958 1554.9 C 462.983 1540.44 472.296 1526.31 486.754 1523.35 z"/>
<path transform="translate(0,0)" fill="rgb(254,254,254)" d="M 641.353 1543.69 C 644.203 1512.42 656.518 1486.47 680.953 1466.11 C 703.754 1447.14 733.284 1438.24 762.771 1441.46 C 815.091 1446.7 858.513 1490.63 860.156 1543.6 C 850.89 1545.14 849.035 1545.05 840.253 1542.34 C 837.187 1516.42 827.383 1495.87 806.417 1479.51 C 787.642 1464.6 763.673 1457.84 739.876 1460.75 C 715.764 1464.04 693.958 1476.8 679.289 1496.22 C 667.022 1512.48 662.049 1529.18 660.877 1549.29 C 652.389 1544.31 651.207 1544.22 641.353 1543.69 z"/>
<path transform="translate(0,0)" fill="rgb(254,254,254)" d="M 1188.57 1538.01 C 1190.7 1510.82 1204.74 1485.2 1225.34 1467.51 C 1247.85 1448.01 1277.35 1438.53 1307.01 1441.26 C 1336.81 1443.84 1362.54 1457.72 1381.65 1480.62 C 1396.4 1498.29 1405.14 1520.19 1406.63 1543.16 C 1397.88 1544.77 1395.74 1545.2 1387.07 1544.92 C 1385.01 1528.37 1381.9 1515.58 1372.6 1501.36 C 1359 1480.92 1337.9 1466.66 1313.87 1461.65 C 1262.14 1451.31 1218.05 1487.23 1208.29 1537.47 C 1201.25 1539.71 1195.72 1538.89 1188.57 1538.01 z"/>
<path transform="translate(0,0)" fill="rgb(254,254,254)" d="M 1447.36 1535.63 C 1456.69 1473.02 1513.14 1432.14 1575.62 1442.5 C 1604.05 1447.31 1629.32 1463.45 1645.65 1487.23 C 1657.22 1503.78 1664 1523.21 1665.22 1543.38 C 1659.34 1543.03 1651.7 1543.2 1645.68 1543.17 C 1644.13 1527.72 1639.6 1514.01 1631.1 1500.95 C 1617.93 1481.07 1597.55 1467.1 1574.26 1461.97 C 1550.83 1457.17 1526.44 1461.93 1506.54 1475.2 C 1484.84 1489.6 1472.91 1510.2 1467.88 1535.35 C 1458.03 1532.74 1455.91 1537.48 1447.36 1535.63 z"/>
<path transform="translate(0,0)" fill="rgb(254,254,254)" d="M 383.46 1541.64 C 383.306 1520.68 393.617 1498.21 406.38 1482.02 C 424.119 1459.56 450.033 1445.04 478.451 1441.64 C 507.75 1438.29 536.376 1445.58 559.549 1464.06 C 582.839 1482.31 597.74 1509.23 600.85 1538.65 C 591.522 1539.87 590.797 1532.75 580.388 1534.64 C 573.944 1507.92 562.482 1488 538.307 1473.25 C 518.414 1460.88 494.392 1456.99 471.615 1462.47 C 448.309 1468.14 428.221 1482.86 415.792 1503.37 C 408.128 1516.04 404.846 1527.21 402.702 1541.68 C 395.959 1543.25 390.335 1542.32 383.46 1541.64 z"/>
</svg>